<?xml version="1.0" encoding="utf-8"?>
<!-- Generator: Adobe Adobe Illustrator 24.2.0, SVG Export Plug-In . SVG Version: 6.00 Build 0)  -->
<svg version="1.1" id="Layer_1" xmlns="http://www.w3.org/2000/svg" xmlns:xlink="http://www.w3.org/1999/xlink" x="0px" y="0px"
	 width="50px" height="50px" viewBox="0 0 50 50" style="enable-background:new 0 0 50 50;" xml:space="preserve">
<style type="text/css">
	.st0{fill:url(#SVGID_1_);}
	.st1{fill:url(#SVGID_2_);}
	.st2{fill:#FFFFFF;}
</style>
<radialGradient id="SVGID_1_" cx="-325.9915" cy="-318.9643" r="65" gradientTransform="matrix(0 -0.7624 -0.7091 0 -212.8832 -194.6733)" gradientUnits="userSpaceOnUse">
	<stop  offset="0" style="stop-color:#FFDD55"/>
	<stop  offset="0.1" style="stop-color:#FFDD55"/>
	<stop  offset="0.5" style="stop-color:#FF543E"/>
	<stop  offset="1" style="stop-color:#C837AB"/>
</radialGradient>
<path class="st0" d="M25,0C14.6,0,11.5,0,10.9,0.1C8.8,0.2,7.5,0.6,6,1.3C4.9,1.9,4,2.5,3.1,3.4C1.5,5,0.6,7.1,0.2,9.5
	C0.1,10.7,0,10.9,0,16.9c0,2,0,4.6,0,8.1c0,10.4,0,13.5,0.1,14.1c0.2,2.1,0.5,3.4,1.2,4.8c1.3,2.7,3.8,4.8,6.8,5.6
	c1,0.3,2.2,0.4,3.6,0.5c0.6,0,6.9,0,13.2,0s12.6,0,13.2,0c1.7-0.1,2.7-0.2,3.8-0.5c3-0.8,5.5-2.8,6.8-5.6c0.7-1.4,1-2.8,1.2-4.7
	c0-0.4,0-7.3,0-14.2c0-6.9,0-13.7,0-14.1c-0.2-2-0.5-3.4-1.2-4.8c-0.6-1.2-1.2-2-2.1-2.9c-1.7-1.6-3.7-2.5-6.1-2.9
	C39.4,0.1,39.1,0,33.1,0H25z"/>
<radialGradient id="SVGID_2_" cx="352.9425" cy="-28.726" r="65" gradientTransform="matrix(6.688742e-02 0.3342 1.3774 -0.2759 7.5833 -122.2587)" gradientUnits="userSpaceOnUse">
	<stop  offset="0" style="stop-color:#3771C8"/>
	<stop  offset="0.128" style="stop-color:#3771C8"/>
	<stop  offset="1" style="stop-color:#6600FF;stop-opacity:0"/>
</radialGradient>
<path class="st1" d="M25,0C14.6,0,11.5,0,10.9,0.1C8.8,0.2,7.5,0.6,6,1.3C4.9,1.9,4,2.5,3.1,3.4C1.5,5,0.6,7.1,0.2,9.5
	C0.1,10.7,0,10.9,0,16.9c0,2,0,4.6,0,8.1c0,10.4,0,13.5,0.1,14.1c0.2,2.1,0.5,3.4,1.2,4.8c1.3,2.7,3.8,4.8,6.8,5.6
	c1,0.3,2.2,0.4,3.6,0.5c0.6,0,6.9,0,13.2,0s12.6,0,13.2,0c1.7-0.1,2.7-0.2,3.8-0.5c3-0.8,5.5-2.8,6.8-5.6c0.7-1.4,1-2.8,1.2-4.7
	c0-0.4,0-7.3,0-14.2c0-6.9,0-13.7,0-14.1c-0.2-2-0.5-3.4-1.2-4.8c-0.6-1.2-1.2-2-2.1-2.9c-1.7-1.6-3.7-2.5-6.1-2.9
	C39.4,0.1,39.1,0,33.1,0H25z"/>
<path class="st2" d="M25,6.5c-5,0-5.6,0-7.6,0.1c-2,0.1-3.3,0.4-4.5,0.9C11.7,8,10.7,8.6,9.6,9.6c-1,1-1.7,2.1-2.1,3.3
	c-0.5,1.2-0.8,2.5-0.9,4.5c-0.1,2-0.1,2.6-0.1,7.6s0,5.6,0.1,7.6c0.1,2,0.4,3.3,0.9,4.5c0.5,1.2,1.1,2.2,2.1,3.3
	c1,1,2.1,1.7,3.3,2.1c1.2,0.5,2.5,0.8,4.5,0.9c2,0.1,2.6,0.1,7.6,0.1c5,0,5.6,0,7.6-0.1c2-0.1,3.3-0.4,4.5-0.9
	c1.2-0.5,2.2-1.1,3.3-2.1c1-1,1.7-2.1,2.1-3.3c0.5-1.2,0.8-2.5,0.9-4.5c0.1-2,0.1-2.6,0.1-7.6s0-5.6-0.1-7.6c-0.1-2-0.4-3.3-0.9-4.5
	c-0.5-1.2-1.1-2.2-2.1-3.3c-1-1-2.1-1.7-3.3-2.1c-1.2-0.5-2.5-0.8-4.5-0.9C30.6,6.6,30,6.5,25,6.5L25,6.5z M23.3,9.9
	c0.5,0,1,0,1.7,0c4.9,0,5.5,0,7.5,0.1c1.8,0.1,2.8,0.4,3.4,0.6c0.9,0.3,1.5,0.7,2.1,1.4c0.6,0.6,1,1.3,1.4,2.1
	c0.3,0.7,0.6,1.6,0.6,3.4c0.1,1.9,0.1,2.5,0.1,7.5s0,5.5-0.1,7.5c-0.1,1.8-0.4,2.8-0.6,3.4c-0.3,0.9-0.7,1.5-1.4,2.1
	c-0.6,0.6-1.3,1-2.1,1.4c-0.6,0.3-1.6,0.6-3.4,0.6c-1.9,0.1-2.5,0.1-7.5,0.1c-4.9,0-5.5,0-7.5-0.1c-1.8-0.1-2.8-0.4-3.4-0.6
	c-0.9-0.3-1.5-0.7-2.1-1.4c-0.6-0.6-1-1.3-1.4-2.1c-0.3-0.7-0.6-1.6-0.6-3.4c-0.1-1.9-0.1-2.5-0.1-7.5s0-5.5,0.1-7.5
	c0.1-1.8,0.4-2.8,0.6-3.4c0.3-0.9,0.7-1.5,1.4-2.1c0.6-0.6,1.3-1,2.1-1.4c0.7-0.3,1.6-0.6,3.4-0.6C19.2,9.9,19.9,9.9,23.3,9.9
	L23.3,9.9z M34.8,12.9c-1.2,0-2.2,1-2.2,2.2c0,1.2,1,2.2,2.2,2.2s2.2-1,2.2-2.2S36.1,12.9,34.8,12.9L34.8,12.9z M25,15.5
	c-5.2,0-9.5,4.2-9.5,9.5s4.2,9.5,9.5,9.5c5.2,0,9.5-4.2,9.5-9.5S30.2,15.5,25,15.5L25,15.5z M25,18.8c3.4,0,6.2,2.8,6.2,6.2
	c0,3.4-2.8,6.2-6.2,6.2c-3.4,0-6.2-2.8-6.2-6.2C18.8,21.6,21.6,18.8,25,18.8z"/>
</svg>
