<?xml version="1.0" encoding="utf-8"?>
<!-- Generator: Adobe Adobe Illustrator 24.2.0, SVG Export Plug-In . SVG Version: 6.00 Build 0)  -->
<svg version="1.1" id="Layer_1" xmlns="http://www.w3.org/2000/svg" xmlns:xlink="http://www.w3.org/1999/xlink" x="0px" y="0px"
	 width="50px" height="50px" viewBox="0 0 50 50" style="enable-background:new 0 0 50 50;" xml:space="preserve">
<style type="text/css">
	.st0{clip-path:url(#SVGID_2_);}
	.st1{fill:#0866FF;}
	.st2{fill:#FFFFFF;}
</style>
<g>
	<g id="g17" transform="matrix(1.3333333,0,0,-1.3333333,-133.33333,799.99999)">
		<g id="g19">
			<g>
				<defs>
					<rect id="SVGID_1_" x="83.9" y="546.4" width="69.6" height="69.6"/>
				</defs>
				<clipPath id="SVGID_2_">
					<use xlink:href="#SVGID_1_"  style="overflow:visible;"/>
				</clipPath>
				<g id="g21" class="st0">
					<g id="g27" transform="translate(600,350)">
						<path id="path29" class="st1" d="M-462.6,231.2c0,10.3-8.3,18.6-18.6,18.6s-18.6-8.3-18.6-18.6c0-8.7,6-16.1,14.1-18.1v12.4
							h-3.8v5.7h3.8v2.5c0,6.3,2.9,9.3,9.1,9.3c1.2,0,3.2-0.2,4.1-0.5v-5.2c-0.4,0-1.2,0.1-2.2,0.1c-3.1,0-4.2-1.2-4.2-4.2v-2h6.1
							l-1-5.7h-5v-12.8C-469.8,213.8-462.6,221.7-462.6,231.2"/>
					</g>
					<g id="g31" transform="translate(447.9175,273.6036)">
						<path id="path33" class="st2" d="M-321.9,301.9l1,5.7h-6.1v2c0,3,1.2,4.2,4.2,4.2c0.9,0,1.7,0,2.2-0.1v5.2
							c-0.8,0.2-2.9,0.5-4.1,0.5c-6.2,0-9.1-2.9-9.1-9.3v-2.5h-3.8v-5.7h3.8v-12.4c1.4-0.4,2.9-0.5,4.5-0.5c0.8,0,1.5,0,2.3,0.1
							v12.8H-321.9z"/>
					</g>
				</g>
			</g>
		</g>
	</g>
</g>
</svg>
