<?xml version="1.0" encoding="utf-8"?>
<!-- Generator: Adobe Adobe Illustrator 24.2.0, SVG Export Plug-In . SVG Version: 6.00 Build 0)  -->
<svg version="1.1" id="Layer_1" xmlns="http://www.w3.org/2000/svg" xmlns:xlink="http://www.w3.org/1999/xlink" x="0px" y="0px"
	 width="49.9px" height="49.9px" viewBox="0 0 49.9 49.9" style="enable-background:new 0 0 49.9 49.9;" xml:space="preserve">
<style type="text/css">
	.st0{fill-rule:evenodd;clip-rule:evenodd;fill:#007EBB;}
	.st1{fill-rule:evenodd;clip-rule:evenodd;fill:#FFFFFF;}
</style>
<g>
	<path class="st0" d="M5.5,49.9h38.8c3.1,0,5.5-2.5,5.5-5.5V5.5c0-3.1-2.5-5.5-5.5-5.5H5.5C2.5,0,0,2.5,0,5.5v38.8
		C0,47.4,2.5,49.9,5.5,49.9z"/>
	<path class="st1" d="M42.9,42.9h-7.4V30.3c0-3.5-1.3-5.4-4-5.4c-3,0-4.5,2-4.5,5.4v12.6h-7.1v-24H27v3.2c0,0,2.1-4,7.2-4
		c5.1,0,8.7,3.1,8.7,9.5V42.9z M11.3,15.8c-2.4,0-4.4-2-4.4-4.4s2-4.4,4.4-4.4s4.4,2,4.4,4.4S13.7,15.8,11.3,15.8z M7.6,42.9h7.4
		v-24H7.6V42.9z"/>
</g>
</svg>
