<?xml version="1.0" encoding="utf-8"?>
<!-- Generator: Adobe Adobe Illustrator 24.2.0, SVG Export Plug-In . SVG Version: 6.00 Build 0)  -->
<svg version="1.1" id="Layer_1" xmlns="http://www.w3.org/2000/svg" xmlns:xlink="http://www.w3.org/1999/xlink" x="0px" y="0px"
	 width="100px" height="100px" viewBox="0 0 100 100" style="enable-background:new 0 0 100 100;" xml:space="preserve">
<style type="text/css">
	.st0{stroke:#000000;stroke-miterlimit:10;}
</style>
<path class="st0" d="M8.73,13.31L8.73,13.31c0-1.45,1.18-2.63,2.62-2.63h77.5c1.45,0,2.62,1.18,2.62,2.62v0
	c0,1.45-1.18,2.62-2.62,2.62h-77.5C9.91,15.93,8.73,14.76,8.73,13.31z"/>
<path class="st0" d="M7.98,85.56L7.98,85.56c0-1.45,1.18-2.63,2.62-2.63h77.5c1.45,0,2.62,1.18,2.62,2.62v0
	c0,1.45-1.18,2.62-2.62,2.62h-77.5C9.16,88.18,7.98,87.01,7.98,85.56z"/>
<path class="st0" d="M8.73,50L8.73,50c0-1.45,1.18-2.63,2.62-2.63h77.5c1.45,0,2.62,1.18,2.62,2.62v0c0,1.45-1.18,2.62-2.62,2.62
	h-77.5C9.91,52.62,8.73,51.45,8.73,50z"/>
</svg>
