<?xml version="1.0" encoding="utf-8"?>
<!-- Generator: Adobe Adobe Illustrator 24.2.0, SVG Export Plug-In . SVG Version: 6.00 Build 0)  -->
<svg version="1.1" id="Layer_1" xmlns="http://www.w3.org/2000/svg" xmlns:xlink="http://www.w3.org/1999/xlink" x="0px" y="0px"
	 width="60px" height="130px" viewBox="0 0 60 130" style="enable-background:new 0 0 60 130;" xml:space="preserve">
<style type="text/css">
	.st0{fill:#5E5E5E;}
	.st1{fill:#B3B3B3;}
</style>
<rect x="-0.04" class="st0" width="60.04" height="130"/>
<rect x="1.57" y="1.58" class="st1" width="5.38" height="8.31"/>
<rect x="8.02" y="1.58" class="st1" width="5.38" height="8.31"/>
<rect x="14.48" y="1.58" class="st1" width="5.38" height="8.31"/>
<rect x="20.93" y="1.58" class="st1" width="5.38" height="8.31"/>
<rect x="27.38" y="1.58" class="st1" width="5.38" height="8.31"/>
<rect x="33.84" y="1.58" class="st1" width="5.38" height="8.31"/>
<rect x="40.29" y="1.58" class="st1" width="5.38" height="8.31"/>
<rect x="46.74" y="1.58" class="st1" width="5.38" height="8.31"/>
<rect x="53.19" y="1.58" class="st1" width="5.38" height="8.31"/>
<rect x="1.5" y="11.45" class="st1" width="5.38" height="8.31"/>
<rect x="7.95" y="11.45" class="st1" width="5.38" height="8.31"/>
<rect x="14.41" y="11.45" class="st1" width="5.38" height="8.31"/>
<rect x="20.86" y="11.45" class="st1" width="5.38" height="8.31"/>
<rect x="27.31" y="11.45" class="st1" width="5.38" height="8.31"/>
<rect x="33.76" y="11.45" class="st1" width="5.38" height="8.31"/>
<rect x="40.22" y="11.45" class="st1" width="5.38" height="8.31"/>
<rect x="46.67" y="11.45" class="st1" width="5.38" height="8.31"/>
<rect x="53.12" y="11.45" class="st1" width="5.38" height="8.31"/>
<rect x="1.5" y="21.58" class="st1" width="5.38" height="8.31"/>
<rect x="7.95" y="21.58" class="st1" width="5.38" height="8.31"/>
<rect x="14.41" y="21.58" class="st1" width="5.38" height="8.31"/>
<rect x="20.86" y="21.58" class="st1" width="5.38" height="8.31"/>
<rect x="27.31" y="21.58" class="st1" width="5.38" height="8.31"/>
<rect x="33.76" y="21.58" class="st1" width="5.38" height="8.31"/>
<rect x="40.22" y="21.58" class="st1" width="5.38" height="8.31"/>
<rect x="46.67" y="21.58" class="st1" width="5.38" height="8.31"/>
<rect x="53.12" y="21.58" class="st1" width="5.38" height="8.31"/>
<rect x="1.5" y="31.45" class="st1" width="5.38" height="8.31"/>
<rect x="7.95" y="31.45" class="st1" width="5.38" height="8.31"/>
<rect x="14.41" y="31.45" class="st1" width="5.38" height="8.31"/>
<rect x="20.86" y="31.45" class="st1" width="5.38" height="8.31"/>
<rect x="27.31" y="31.45" class="st1" width="5.38" height="8.31"/>
<rect x="33.76" y="31.45" class="st1" width="5.38" height="8.31"/>
<rect x="40.22" y="31.45" class="st1" width="5.38" height="8.31"/>
<rect x="46.67" y="31.45" class="st1" width="5.38" height="8.31"/>
<rect x="53.12" y="31.45" class="st1" width="5.38" height="8.31"/>
<rect x="1.57" y="41.32" class="st1" width="5.38" height="8.31"/>
<rect x="8.02" y="41.32" class="st1" width="5.38" height="8.31"/>
<rect x="14.48" y="41.32" class="st1" width="5.38" height="8.31"/>
<rect x="20.93" y="41.32" class="st1" width="5.38" height="8.31"/>
<rect x="27.38" y="41.32" class="st1" width="5.38" height="8.31"/>
<rect x="33.84" y="41.32" class="st1" width="5.38" height="8.31"/>
<rect x="40.29" y="41.32" class="st1" width="5.38" height="8.31"/>
<rect x="46.74" y="41.32" class="st1" width="5.38" height="8.31"/>
<rect x="53.19" y="41.32" class="st1" width="5.38" height="8.31"/>
<rect x="1.54" y="51.18" class="st1" width="5.38" height="8.31"/>
<rect x="7.99" y="51.18" class="st1" width="5.38" height="8.31"/>
<rect x="14.44" y="51.18" class="st1" width="5.38" height="8.31"/>
<rect x="20.89" y="51.18" class="st1" width="5.38" height="8.31"/>
<rect x="27.35" y="51.18" class="st1" width="5.38" height="8.31"/>
<rect x="33.8" y="51.18" class="st1" width="5.38" height="8.31"/>
<rect x="40.25" y="51.18" class="st1" width="5.38" height="8.31"/>
<rect x="46.71" y="51.18" class="st1" width="5.38" height="8.31"/>
<rect x="53.16" y="51.18" class="st1" width="5.38" height="8.31"/>
<rect x="1.46" y="61.05" class="st1" width="5.38" height="8.31"/>
<rect x="7.92" y="61.05" class="st1" width="5.38" height="8.31"/>
<rect x="14.37" y="61.05" class="st1" width="5.38" height="8.31"/>
<rect x="20.82" y="61.05" class="st1" width="5.38" height="8.31"/>
<rect x="27.28" y="61.05" class="st1" width="5.38" height="8.31"/>
<rect x="33.73" y="61.05" class="st1" width="5.38" height="8.31"/>
<rect x="40.18" y="61.05" class="st1" width="5.38" height="8.31"/>
<rect x="46.63" y="61.05" class="st1" width="5.38" height="8.31"/>
<rect x="53.09" y="61.05" class="st1" width="5.38" height="8.31"/>
<rect x="1.46" y="71.18" class="st1" width="5.38" height="8.31"/>
<rect x="7.92" y="71.18" class="st1" width="5.38" height="8.31"/>
<rect x="14.37" y="71.18" class="st1" width="5.38" height="8.31"/>
<rect x="20.82" y="71.18" class="st1" width="5.38" height="8.31"/>
<rect x="27.28" y="71.18" class="st1" width="5.38" height="8.31"/>
<rect x="33.73" y="71.18" class="st1" width="5.38" height="8.31"/>
<rect x="40.18" y="71.18" class="st1" width="5.38" height="8.31"/>
<rect x="46.63" y="71.18" class="st1" width="5.38" height="8.31"/>
<rect x="53.09" y="71.18" class="st1" width="5.38" height="8.31"/>
<rect x="1.46" y="81.05" class="st1" width="5.38" height="8.31"/>
<rect x="7.92" y="81.05" class="st1" width="5.38" height="8.31"/>
<rect x="14.37" y="81.05" class="st1" width="5.38" height="8.31"/>
<rect x="20.82" y="81.05" class="st1" width="5.38" height="8.31"/>
<rect x="27.28" y="81.05" class="st1" width="5.38" height="8.31"/>
<rect x="33.73" y="81.05" class="st1" width="5.38" height="8.31"/>
<rect x="40.18" y="81.05" class="st1" width="5.38" height="8.31"/>
<rect x="46.63" y="81.05" class="st1" width="5.38" height="8.31"/>
<rect x="53.09" y="81.05" class="st1" width="5.38" height="8.31"/>
<rect x="1.54" y="90.92" class="st1" width="5.38" height="8.31"/>
<rect x="7.99" y="90.92" class="st1" width="5.38" height="8.31"/>
<rect x="14.44" y="90.92" class="st1" width="5.38" height="8.31"/>
<rect x="20.89" y="90.92" class="st1" width="5.38" height="8.31"/>
<rect x="27.35" y="90.92" class="st1" width="5.38" height="8.31"/>
<rect x="33.8" y="90.92" class="st1" width="5.38" height="8.31"/>
<rect x="40.25" y="90.92" class="st1" width="5.38" height="8.31"/>
<rect x="46.71" y="90.92" class="st1" width="5.38" height="8.31"/>
<rect x="53.16" y="90.92" class="st1" width="5.38" height="8.31"/>
<rect x="1.54" y="100.79" class="st1" width="5.38" height="8.31"/>
<rect x="7.99" y="100.79" class="st1" width="5.38" height="8.31"/>
<rect x="14.44" y="100.79" class="st1" width="5.38" height="8.31"/>
<rect x="20.89" y="100.79" class="st1" width="5.38" height="8.31"/>
<rect x="27.35" y="100.79" class="st1" width="5.38" height="8.31"/>
<rect x="33.8" y="100.79" class="st1" width="5.38" height="8.31"/>
<rect x="40.25" y="100.79" class="st1" width="5.38" height="8.31"/>
<rect x="46.71" y="100.79" class="st1" width="5.38" height="8.31"/>
<rect x="53.16" y="100.79" class="st1" width="5.38" height="8.31"/>
<rect x="1.54" y="110.65" class="st1" width="5.38" height="8.31"/>
<rect x="7.99" y="110.65" class="st1" width="5.38" height="8.31"/>
<rect x="14.44" y="110.65" class="st1" width="5.38" height="8.31"/>
<rect x="20.89" y="110.65" class="st1" width="5.38" height="8.31"/>
<rect x="27.35" y="110.65" class="st1" width="5.38" height="8.31"/>
<rect x="33.8" y="110.65" class="st1" width="5.38" height="8.31"/>
<rect x="40.25" y="110.65" class="st1" width="5.38" height="8.31"/>
<rect x="46.71" y="110.65" class="st1" width="5.38" height="8.31"/>
<rect x="53.16" y="110.65" class="st1" width="5.38" height="8.31"/>
<rect x="1.61" y="120.52" class="st1" width="5.38" height="8.31"/>
<rect x="8.06" y="120.52" class="st1" width="5.38" height="8.31"/>
<rect x="14.51" y="120.52" class="st1" width="5.38" height="8.31"/>
<rect x="20.96" y="120.52" class="st1" width="5.38" height="8.31"/>
<rect x="27.42" y="120.52" class="st1" width="5.38" height="8.31"/>
<rect x="33.87" y="120.52" class="st1" width="5.38" height="8.31"/>
<rect x="40.32" y="120.52" class="st1" width="5.38" height="8.31"/>
<rect x="46.78" y="120.52" class="st1" width="5.38" height="8.31"/>
<rect x="53.23" y="120.52" class="st1" width="5.38" height="8.31"/>
</svg>
