<?xml version="1.0" encoding="utf-8"?>
<!-- Generator: Adobe Adobe Illustrator 24.2.0, SVG Export Plug-In . SVG Version: 6.00 Build 0)  -->
<svg version="1.1" xmlns="http://www.w3.org/2000/svg" xmlns:xlink="http://www.w3.org/1999/xlink" x="0px" y="0px" width="120px"
	 height="60px" viewBox="0 0 120 60" style="enable-background:new 0 0 120 60;" xml:space="preserve">
<style type="text/css">
	.st0{fill:#858585;stroke:#333131;stroke-miterlimit:10;}
	.st1{fill:#E8F730;stroke:#333131;stroke-miterlimit:10;}
</style>
<g id="Layer_1">
</g>
<g id="Layer_2">
	<path class="st0" d="M45.4,8.2c-3.61-2.31-9.28-2.22-14.1-1.45c-3.81,0.61-7.6,1.6-10.51,3.38s-4.84,4.45-4.3,7.08
		c-6.19,1.28-11.58,4.38-14.15,8.41s-2.12,8.94,1.43,12.61c3.55,3.67,10.21,5.91,16.64,5.38c4.12-0.34,7.9-1.71,11.29-3.33
		c2.87,2.28,8.91,2.14,11.55-0.26c0.68,2.12,3.64,3.63,6.76,4.08c3.12,0.46,6.36,0.04,9.45-0.51c3.47-0.62,7.05-1.49,9.41-3.33
		c5.87,3.6,15.46,4,21.94,0.92c2.73,1.3,6.45,1.1,9.64,0.44c6.48-1.35,12.15-4.43,15.5-8.43c1.6-1.91,2.7-4.13,2.11-6.29
		c-0.54-2.01-2.46-3.71-4.57-5.17c-4.13-2.84-9.89-5.12-15.66-4.34c-2.26-2.73-4.95-5.41-8.79-7.16c-3.84-1.74-9.06-2.38-13.12-0.89
		c-1.42-4.51-7.93-7.93-14.72-8.04S47.85,4.2,45.4,8.2z"/>
</g>
<g id="Layer_4">
	<path class="st1" d="M58.81,34.15c-0.83,4.5-1.73,8.98-2.62,13.29c0.9-0.45,1.8-0.85,2.72-1.2c0.32-0.13,0.66-0.25,1.11-0.32
		c-1.8,4.81-3.66,9.56-5.32,14.08c1.66-3.4,3.45-6.7,5.52-9.58c1.82-2.53,3.84-4.72,5.89-6.84c0.59-0.61,1.2-1.24,1.59-2.21
		c-1.96,0.4-3.92,0.82-5.85,1.28c0.93-2.39,1.99-4.67,3.15-6.83c0.31-0.57,0.63-1.15,0.71-1.75C63.36,33.94,61.01,34.01,58.81,34.15
		z"/>
	<path class="st1" d="M29.33,33.03c-0.7,3.34-1.47,6.67-2.22,9.87c0.76-0.33,1.53-0.63,2.3-0.89c0.27-0.09,0.56-0.18,0.94-0.24
		c-1.52,3.57-3.1,7.1-4.5,10.45c1.41-2.52,2.92-4.97,4.67-7.11c1.54-1.88,3.25-3.5,4.99-5.08c0.5-0.46,1.01-0.92,1.34-1.64
		c-1.66,0.29-3.32,0.61-4.95,0.95c0.79-1.77,1.68-3.47,2.67-5.07c0.26-0.42,0.53-0.85,0.6-1.3C33.18,32.88,31.19,32.93,29.33,33.03z
		"/>
	<path class="st1" d="M89.08,33.03c-0.7,3.34-1.47,6.67-2.22,9.87c0.76-0.33,1.53-0.63,2.3-0.89c0.27-0.09,0.56-0.18,0.94-0.24
		c-1.52,3.57-3.1,7.1-4.5,10.45c1.41-2.52,2.92-4.97,4.67-7.11c1.54-1.88,3.25-3.5,4.99-5.08c0.5-0.46,1.01-0.92,1.34-1.64
		c-1.66,0.29-3.32,0.61-4.95,0.95c0.79-1.77,1.68-3.47,2.67-5.07c0.26-0.42,0.53-0.85,0.6-1.3C92.93,32.88,90.94,32.93,89.08,33.03z
		"/>
</g>
<g id="Layer_3">
</g>
</svg>
