<?xml version="1.0" encoding="utf-8"?>
<!-- Generator: Adobe Adobe Illustrator 24.2.0, SVG Export Plug-In . SVG Version: 6.00 Build 0)  -->
<svg version="1.1" xmlns="http://www.w3.org/2000/svg" xmlns:xlink="http://www.w3.org/1999/xlink" x="0px" y="0px" width="40px"
	 height="100px" viewBox="0 0 40 100" style="enable-background:new 0 0 40 100;" xml:space="preserve">
<style type="text/css">
	.st0{fill:#5ABB70;}
</style>
<g id="Layer_1">
</g>
<g id="Layer_3">
</g>
<g id="Layer_2">
	<g>
		<path class="st0" d="M39.02,69.5c-0.45-3.09-1.98-5.41-3.89-6.45c1.51-3.48,1.02-6.29,0.21-9.06c-0.56-1.36-1.35-2.43-2.24-3.29
			c-0.39-0.32-0.81-0.61-1.18-0.98c-0.14-0.19-0.2-0.25-0.18-0.21c0,0,0-0.01-0.01-0.01c0-0.52,0.01-1.05,0.03-1.57
			c0.06-0.38,0.12-0.75,0.2-1.11c0.02-0.05,0.03-0.11,0.05-0.18c0.75-2.3,1.6-4.67,1.5-7.3c-0.07-2.12-0.49-4.28-1.57-5.74
			c-0.5-0.67-1.08-1.14-1.69-1.52c0-0.03,0-0.07,0-0.1c0,0.02,0,0.06,0,0.1c0,0-0.01,0-0.01,0c0.01-0.08,0.01-0.16,0.02-0.24
			c0,0.02,0,0.04-0.01,0.06c0,0.05-0.01,0.1-0.01,0.15c0-0.04,0.01-0.08,0.01-0.12c-0.01,0.05-0.01,0.09-0.02,0.14
			c0.04-0.4,0.08-0.8,0.11-1.2c-0.03,0.3-0.05,0.6-0.08,0.9c0-0.02,0-0.03,0.01-0.04c0.04-0.42,0.08-0.85,0.12-1.27
			c0.17-3.14-0.41-6.41-1.85-8.77c-0.76-1.4-1.81-2.51-2.99-2.89c0.09,0.02,0.1,0.02-0.11-0.06c-0.03-0.01-0.06-0.02-0.1-0.03
			c0-0.02,0-0.02-0.01-0.04c-0.02-0.13-0.04-0.27-0.07-0.4c-0.01-0.21-0.03-0.42-0.04-0.62c-0.02-0.43-0.05-0.81-0.07-0.95
			c-0.2-2.75-0.21-3.73-1.22-7.24c0-0.03-0.03-0.14-0.11-0.39c-0.02-0.07-0.04-0.14-0.06-0.21c0,0,0,0,0-0.01c0,0,0,0,0,0
			c-0.46-1.58-1.2-3.1-2.33-3.66c-1.26-0.48-2.64,0.09-3.75,1c-1.25,1.23-1.91,3.42-1.97,5.6c0,0.09-0.01,0.17-0.01,0.23
			c0.01-0.09,0.02-0.21,0.03-0.33c-0.01,0.13-0.02,0.26-0.04,0.39c-0.01,0.21-0.01,0.2-0.01,0.06c-0.09,0.89-0.14,1.78-0.14,2.67
			c-0.25,0.11-0.51,0.23-0.76,0.35c-0.04,0.02-0.09,0.04-0.16,0.07c-0.01,0-0.02,0.01-0.03,0.01c-0.02,0.01-0.04,0.02-0.06,0.03
			c0.01,0,0.02-0.01,0.04-0.01c-0.53,0.22-1,0.61-1.34,1.07c0.01-0.01,0.01-0.01,0.01-0.02c-0.01,0.01-0.01,0.02-0.02,0.02
			c0,0.01-0.01,0.01-0.02,0.02c-0.01,0.02-0.02,0.03-0.03,0.04c-0.57,0.69-1.07,1.45-1.4,2.29c-0.79,2.66-1.68,5.56-1.03,8.33
			c0.17,1.54,0.56,3.16,1.46,4.35c-0.68,0.08-1.35,0.27-1.97,0.76c-2.8,2.19-3.01,7.7-1.42,11.35c0.25,0.64,0.56,1.21,0.88,1.78
			c-0.04,0.01-0.07,0.02-0.11,0.03c-0.15,0.02-0.29,0.05-0.44,0.07c-3.48,0.38-7.05,2.55-6.76,8.62c0.12,3.46,1.59,6.16,3.17,8.51
			c-1.57,1.5-3.35,2.7-4.29,5.21c-1.68,4.86,0.77,10.13,3.6,12.61c3.1,2.56,6.85,3.29,10.34,2.53c-0.31,0.07-0.61,0.13-0.25,0.06
			c2.14-0.25,4.25,0.55,6.38,0.52c3.94-0.38,1.57-0.6,6.16-0.82c2.03-0.31,4.1-0.32,6.1-0.91c2.34-1.21,4.65-3.59,5.43-7.23
			C39.36,72.7,39.27,71.42,39.02,69.5z"/>
		<path class="st0" d="M15.71,12c0,0.04-0.01,0.08-0.01,0.11c0-0.02,0-0.04,0.01-0.06C15.71,12.04,15.71,12.02,15.71,12z"/>
		<path class="st0" d="M30.27,31.78c0,0.04-0.01,0.09-0.01,0.13c0-0.01,0-0.02,0-0.02c0-0.04,0.01-0.09,0.01-0.13
			C30.27,31.77,30.27,31.77,30.27,31.78z"/>
		<path class="st0" d="M30.28,31.71c0,0.04-0.01,0.07-0.01,0.11C30.29,31.67,30.29,31.61,30.28,31.71z"/>
	</g>
	<g>
		<g>
			<path d="M11.29,64c0.93,1.1,2.05,2.09,2.84,3.31c0.75,1.17,1.72,2.19,2.4,3.4c0.64,1.13,1.58,2.15,1.99,3.39
				c0.21,0.62,0.53,1.2,0.78,1.81c0.24,0.57,0.52,1.29,0.56,1.91c-0.01-0.14,0.88-0.35,0.87-0.5c-0.04-0.63-0.32-1.34-0.56-1.91
				c-0.25-0.6-0.58-1.18-0.78-1.81c-0.41-1.24-1.35-2.26-1.99-3.39c-0.69-1.2-1.65-2.23-2.4-3.4c-0.79-1.22-1.91-2.21-2.84-3.31
				C12.12,63.45,11.33,64.04,11.29,64L11.29,64z"/>
		</g>
	</g>
	<g>
		<g>
			<path d="M19.7,74.36c0-0.88,0.23-1.73,0.39-2.6c0.15-0.84,0.52-1.56,0.8-2.35c0.32-0.89,0.69-1.75,1.09-2.61
				c0.38-0.81,0.86-1.55,1.23-2.36c0.37-0.81,0.85-1.53,1.31-2.29c0.25-0.41,0.44-0.84,0.69-1.25c0.24-0.39,0.55-0.74,0.83-1.11
				c0.52-0.69,1.02-1.4,1.51-2.1c0.26-0.37,0.54-0.71,0.83-1.06c0.28-0.35,0.56-0.85,0.91-1.12c-0.29,0.17-0.58,0.33-0.87,0.5
				c0.01,0.03,0.01,0.06,0.02,0.09c-0.02-0.08,0.89-0.4,0.87-0.5c-0.01-0.03-0.01-0.06-0.02-0.09c0.01,0.04-0.79,0.44-0.87,0.5
				c-0.33,0.25-0.58,0.71-0.84,1.04c-0.3,0.38-0.62,0.75-0.9,1.15c-0.49,0.71-0.98,1.42-1.51,2.1c-0.56,0.73-0.99,1.47-1.46,2.26
				c-0.47,0.8-0.98,1.54-1.37,2.38c-0.35,0.77-0.82,1.48-1.18,2.25c-0.42,0.89-0.81,1.79-1.15,2.72c-0.29,0.79-0.65,1.51-0.8,2.35
				c-0.16,0.86-0.39,1.72-0.39,2.6C18.83,74.7,19.7,74.53,19.7,74.36L19.7,74.36z"/>
		</g>
	</g>
	<g>
		<g>
			<path d="M19.79,45.59c-0.19-0.81,0.04-1.63,0.13-2.45c0.08-0.79,0.27-1.51,0.47-2.27c0.21-0.78,0.35-1.54,0.6-2.31
				c0.24-0.73,0.49-1.4,0.83-2.09c0.72-1.48,1.43-2.92,2.25-4.34c0.67-1.17,1.42-2.32,2.21-3.4c-0.18,0.24-0.68,0.25-0.87,0.5
				c-0.37,0.51-0.79,1.03-1.09,1.59c-0.32,0.59-0.74,1.12-1.07,1.71c-0.84,1.46-1.57,2.92-2.31,4.43c-0.68,1.39-1.03,2.81-1.41,4.3
				c-0.2,0.8-0.41,1.55-0.5,2.37c-0.09,0.82-0.32,1.64-0.13,2.45C18.91,46.01,19.82,45.7,19.79,45.59L19.79,45.59z"/>
		</g>
	</g>
	<g>
		<g>
			<path d="M19.89,43.02c-0.18-0.59-0.27-1.2-0.42-1.8c-0.06-0.26-0.19-0.48-0.28-0.73c-0.1-0.28-0.13-0.58-0.19-0.87
				c-0.29-1.24-0.9-2.37-1.38-3.54c-0.46-1.11-1.04-2.23-1.75-3.2c-0.36-0.51-0.73-1.05-1.17-1.49c-0.17-0.16-0.32-0.34-0.49-0.51
				c-0.19-0.19-0.42-0.27-0.64-0.43c-0.12-0.08-0.76,0.58-0.87,0.5c0.19,0.14,0.41,0.21,0.58,0.37c0.17,0.16,0.31,0.35,0.48,0.51
				c0.45,0.43,0.8,0.96,1.17,1.46c0.73,1,1.34,2.15,1.81,3.29c0.47,1.13,1.05,2.24,1.35,3.43c0.07,0.29,0.1,0.6,0.19,0.89
				c0.08,0.25,0.21,0.47,0.28,0.72c0.18,0.63,0.26,1.28,0.45,1.91C19,43.46,19.91,43.1,19.89,43.02L19.89,43.02z"/>
		</g>
	</g>
	<g>
		<g>
			<path d="M19.7,42.17c-0.01-0.84-0.1-1.68-0.13-2.52c-0.04-0.87-0.03-1.74-0.06-2.61c-0.05-1.81-0.19-3.63-0.19-5.44
				c0-1.79-0.05-3.59,0-5.38c0.02-0.86,0.08-1.71,0.09-2.57c0.01-0.38,0-0.76,0.02-1.14c0.01-0.25,0.07-0.52-0.11-0.73
				c-0.04-0.05-0.83,0.54-0.87,0.5c0.29,0.34,0.09,1.35,0.09,1.76c-0.01,0.85-0.07,1.7-0.09,2.56c-0.05,1.83-0.01,3.67,0,5.5
				c0,1.77,0.13,3.55,0.19,5.32c0.03,0.88,0.01,1.75,0.06,2.62c0.04,0.87,0.13,1.75,0.14,2.62C18.83,42.51,19.7,42.33,19.7,42.17
				L19.7,42.17z"/>
		</g>
	</g>
	<g>
		<g>
			<path d="M20.27,57.02c-0.13-1.25-0.56-2.39-0.8-3.61c-0.23-1.18-0.63-2.44-1.13-3.53c-0.26-0.58-0.53-1.16-0.86-1.71
				c-0.29-0.47-0.45-1.02-0.77-1.47c-0.35-0.48-0.78-0.88-1.22-1.27c-0.51-0.46-0.99-0.94-1.53-1.35c-0.11-0.08-0.77,0.57-0.87,0.5
				c0.94,0.71,1.98,1.59,2.7,2.54c0.34,0.45,0.48,0.99,0.77,1.46c0.35,0.58,0.64,1.18,0.92,1.8c0.48,1.06,0.88,2.28,1.11,3.42
				c0.25,1.26,0.69,2.44,0.83,3.73C19.39,57.4,20.28,57.17,20.27,57.02L20.27,57.02z"/>
		</g>
	</g>
	<g>
		<g>
			<path d="M17.76,73.01c1.29,4.35,1.12,8.81,0.42,13.24c-0.7,4.42-1.75,8.78-1.9,13.26c0.01-0.17,0.86-0.32,0.87-0.5
				c0.15-4.49,1.2-8.85,1.9-13.26c0.7-4.43,0.88-8.9-0.42-13.24C18.65,72.58,17.74,72.93,17.76,73.01L17.76,73.01z"/>
		</g>
	</g>
	<g>
		<g>
			<path d="M20.73,71.04c0.17,9.48-0.38,18.97-1.35,28.4c0.02-0.19,0.85-0.3,0.87-0.5c0.97-9.43,1.52-18.91,1.35-28.4
				C21.6,70.69,20.73,70.87,20.73,71.04L20.73,71.04z"/>
		</g>
	</g>
	<g>
		<g>
			<path d="M17.6,71.88c0.12,1.03,0.91,0.64,1.47,0.3c0.34-0.21,0.41-0.35,0.43-0.77c0.03-0.45,0.02-0.89,0.04-1.33
				c0.05-1.02-0.09-2.04-0.05-3.06c0.04-1.12-0.03-2.24-0.06-3.36c-0.05-2.23,0.15-4.47,0.2-6.7c0.02-1.03-0.13-2.05-0.16-3.08
				c-0.02-0.61,0-1.22,0-1.84c0-0.54-0.11-1.05-0.13-1.58c0.01,0.15-0.87,0.34-0.87,0.5c0.02,0.46,0.12,0.9,0.13,1.35
				c0.01,0.46,0,0.92,0,1.38c0,0.98,0.08,1.94,0.15,2.92c0.06,0.85-0.05,1.69-0.08,2.53c-0.04,0.95-0.03,1.9-0.06,2.85
				c-0.05,1.91,0.13,3.83,0.01,5.74c-0.05,0.83,0.1,1.64,0.09,2.48c0,0.35-0.03,0.7-0.03,1.06c-0.01,0.4,0.07,1.01-0.25,1.29
				c0.29-0.17,0.58-0.33,0.87-0.5c-0.46,0.11-0.77-0.22-0.82-0.67C18.48,71.5,17.58,71.74,17.6,71.88L17.6,71.88z"/>
		</g>
	</g>
	<g>
		<g>
			<path d="M21.51,71.21c-0.3-1.75-0.2-3.61-0.25-5.39c-0.06-2.03-0.09-4.05-0.08-6.07c0.01-1.89-0.03-3.75-0.12-5.64
				c-0.04-0.92-0.06-1.85-0.13-2.77c-0.05-0.76,0.05-1.74-0.23-2.46c0.02,0.06-0.83,0.4-0.87,0.5c-0.01,0.03-0.02,0.06-0.03,0.09
				c0.08-0.23,0.78-0.26,0.87-0.5c0.01-0.03,0.02-0.06,0.03-0.09c-0.29,0.17-0.58,0.33-0.87,0.5c0.27,0.73,0.18,1.7,0.23,2.46
				c0.06,0.89,0.09,1.78,0.12,2.66c0.07,1.92,0.13,3.82,0.12,5.74c-0.01,1.99,0.01,3.97,0.08,5.95c0.06,1.81-0.05,3.72,0.26,5.51
				C20.63,71.6,21.53,71.33,21.51,71.21L21.51,71.21z"/>
		</g>
	</g>
	<g>
		<g>
			<path d="M20.28,69.46c0.44-1.32,1.01-2.58,1.62-3.82c0.33-0.68,0.65-1.37,1.07-2c0.37-0.56,0.73-1.12,1.06-1.71
				c0.36-0.63,0.84-1.18,1.24-1.78c0.43-0.63,0.93-1.29,1.46-1.85c0.93-0.98,1.73-2.1,2.82-2.93c-0.29,0.17-0.58,0.33-0.87,0.5
				c0.04-0.02,0.08-0.04,0.12-0.05c0.3-0.14,0.56-0.36,0.87-0.5c-1.08,0.49-1.84,1.31-2.65,2.16c-1.13,1.18-2.09,2.51-3.07,3.82
				c-0.5,0.67-0.89,1.37-1.33,2.08c-0.44,0.72-0.91,1.38-1.29,2.14c-0.72,1.45-1.41,2.92-1.93,4.45
				C19.5,69.73,20.2,69.7,20.28,69.46L20.28,69.46z"/>
		</g>
	</g>
	<g>
		<g>
			<path d="M21.33,67.29c0.43-0.95,1.01-1.78,1.52-2.68c0.23-0.4,0.36-0.82,0.57-1.23c0.21-0.43,0.46-0.84,0.69-1.26
				c0.22-0.4,0.54-0.73,0.79-1.11c0.25-0.38,0.47-0.78,0.73-1.16c0.25-0.36,0.5-0.7,0.8-1.01c0.15-0.15,0.26-0.31,0.38-0.49
				c0.12-0.16,0.29-0.28,0.39-0.45c-0.16,0.25-0.71,0.25-0.87,0.5c-0.1,0.15-0.25,0.25-0.36,0.39c-0.13,0.17-0.23,0.34-0.37,0.49
				c-0.3,0.32-0.56,0.64-0.81,1c-0.26,0.37-0.49,0.76-0.73,1.15c-0.26,0.41-0.59,0.75-0.83,1.17c-0.22,0.39-0.45,0.79-0.65,1.19
				c-0.21,0.4-0.33,0.83-0.56,1.23c-0.53,0.92-1.12,1.78-1.56,2.76c0.04-0.08,0.36-0.2,0.44-0.25
				C20.99,67.49,21.28,67.39,21.33,67.29L21.33,67.29z"/>
		</g>
	</g>
	<g>
		<g>
			<path d="M19.31,51.31c0.15-1.05,0.2-2.09,0.19-3.15c-0.01-0.95,0.09-1.9,0.1-2.85c0-0.91,0.09-1.81,0.04-2.72
				c-0.02-0.34,0.02-0.65-0.04-0.99c-0.07-0.47-0.1-0.94-0.16-1.42c0.02,0.12-0.88,0.37-0.87,0.5c0.06,0.47,0.09,0.94,0.16,1.42
				c0.05,0.32,0.02,0.6,0.03,0.92c0.01,0.93-0.03,1.86-0.03,2.8c0,0.92-0.1,1.83-0.1,2.75c0.01,1.1-0.03,2.18-0.19,3.26
				C18.47,51.61,19.28,51.52,19.31,51.31L19.31,51.31z"/>
		</g>
	</g>
	<g>
		<g>
			<path d="M21,51.47c-0.11-1.09-0.17-2.17-0.24-3.27c-0.07-1.17-0.3-2.32-0.41-3.49c-0.11-1.11-0.11-2.2-0.32-3.3
				c-0.11-0.58-0.26-1.14-0.31-1.72c-0.05-0.56-0.25-1.13-0.24-1.69c-0.29,0.17-0.58,0.33-0.87,0.5c0.01,0.01,0.02,0.02,0.03,0.02
				c0.09,0.08,0.79-0.57,0.87-0.5c-0.01-0.01-0.02-0.02-0.03-0.02c-0.02-0.01-0.87,0.45-0.87,0.5c-0.01,0.53,0.18,1.07,0.24,1.6
				c0.06,0.58,0.19,1.13,0.3,1.7c0.22,1.15,0.23,2.27,0.34,3.42c0.11,1.14,0.32,2.25,0.4,3.39c0.08,1.12,0.14,2.24,0.25,3.37
				C20.12,51.84,21.01,51.61,21,51.47L21,51.47z"/>
		</g>
	</g>
	<g>
		<g>
			<path d="M20.34,55.27c-0.14-0.84-0.14-1.68-0.17-2.53c-0.03-0.85-0.19-1.68-0.24-2.53c-0.02-0.38-0.05-0.76-0.06-1.14
				c-0.02-0.45-0.12-0.88-0.15-1.32c-0.02-0.35,0-0.73,0.03-1.08c0.02-0.29-0.04-0.63,0.04-0.91c-0.29,0.17-0.58,0.33-0.87,0.5
				c0.2,0.1,0.17,0.58,0.2,0.76c0.06,0.48,0.12,0.96,0.17,1.44c0.09,0.94,0.08,1.89,0.05,2.83c-0.06,1.84,0.21,3.65,0.22,5.48
				c0,1.02-0.26,1.99-0.26,3c0,0.91-0.06,1.82-0.04,2.73c0.01,0.94,0.04,1.9-0.03,2.83c-0.08,0.91-0.25,1.82-0.27,2.73
				c-0.01,0.88-0.08,1.78-0.15,2.65c-0.07,0.9-0.28,1.81-0.32,2.71c0.29-0.17,0.58-0.33,0.87-0.5c-0.01-0.04-0.03-0.08-0.04-0.12
				c0.02,0.05-0.89,0.44-0.87,0.5c0.01,0.04,0.03,0.08,0.04,0.12c-0.03-0.07,0.86-0.39,0.87-0.5c0.04-0.81,0.23-1.62,0.3-2.43
				c0.06-0.75,0.09-1.5,0.14-2.25c0.12-1.8,0.3-3.58,0.36-5.38c0.03-0.95-0.07-1.9-0.03-2.85c0.02-0.43,0.02-0.87,0.06-1.29
				c0.04-0.5,0.18-0.99,0.23-1.49c0.09-0.98-0.01-1.99-0.11-2.97c-0.09-0.89-0.1-1.81-0.12-2.71c-0.02-1.05,0.09-2.1,0.02-3.16
				c-0.03-0.51-0.09-1.01-0.16-1.51c-0.03-0.21,0.01-0.99-0.24-1.12c-0.05-0.02-0.85,0.44-0.87,0.5c-0.08,0.27-0.01,0.56-0.03,0.84
				c-0.03,0.38-0.07,0.77-0.05,1.15c0.02,0.44,0.13,0.88,0.15,1.32c0.02,0.38,0.04,0.76,0.06,1.14c0.05,0.85,0.21,1.68,0.24,2.53
				c0.03,0.85,0.03,1.69,0.17,2.53C19.45,55.67,20.36,55.39,20.34,55.27L20.34,55.27z"/>
		</g>
	</g>
	<g>
		<g>
			<path d="M16.57,70.81c0.35,0.38,0.82,1.49,1.41,1.29c0.25-0.08,0.66-0.31,0.85-0.49c0.23-0.21,0.28-0.56,0.37-0.85
				c0.09-0.31,0.23-0.62,0.31-0.93c0.21-0.78,0.21-1.65,0.29-2.45c0.17-1.67,0.19-3.36,0.36-5.03c0.17-1.62,0.34-3.24,0.39-4.87
				c-0.29,0.17-0.58,0.33-0.87,0.5c0.01,1.27,0.01,2.52-0.09,3.78c-0.09,1.25-0.12,2.5-0.05,3.75c0.07,1.24,0.15,2.45,0.09,3.7
				c-0.03,0.6-0.02,1.21-0.06,1.82c-0.02,0.35-0.08,0.69-0.1,1.04c-0.01,0.19,0.03,0.41-0.07,0.58c0.29-0.17,0.58-0.33,0.87-0.5
				c-0.19-0.55-0.11-1.24-0.12-1.82c-0.01-0.75-0.12-1.49-0.13-2.23c0,0.16-0.86,0.32-0.87,0.5c-0.04,0.8-0.21,1.59-0.34,2.38
				c-0.09,0.61-0.09,1.69-0.55,2.15c0.29-0.17,0.58-0.33,0.87-0.5c-0.35,0.08-0.16-1.19-0.11-1.41c-0.29,0.17-0.58,0.33-0.87,0.5
				c-0.01,0.29,0.14,0.84-0.01,1.08c0.29-0.17,0.58-0.33,0.87-0.5c-0.28-0.23-0.23-0.66-0.54-0.9c-0.04-0.03-0.87,0.5-0.87,0.5
				c0.11,0.3,0.27,0.55,0.33,0.85c0.02,0.11,0,0.43,0.04,0.5c0.01,0.02,0.86-0.51,0.87-0.5c-0.05-0.08-0.01-0.37-0.04-0.5
				c-0.06-0.31-0.23-0.54-0.33-0.85c-0.29,0.17-0.58,0.33-0.87,0.5c0.31,0.24,0.26,0.67,0.54,0.9c0.03,0.02,0.83-0.43,0.87-0.5
				c0.15-0.24,0-0.79,0.01-1.08c0,0.18-0.82,0.31-0.87,0.5c-0.07,0.32-0.12,0.71-0.09,1.04c0.02,0.27,0.02,0.39,0.26,0.34
				c0.25-0.06,0.71-0.34,0.89-0.55c0.18-0.21,0.21-0.57,0.26-0.83c0.08-0.45,0.16-0.9,0.23-1.36c0.12-0.75,0.28-1.5,0.32-2.26
				c-0.29,0.17-0.58,0.33-0.87,0.5c0.01,0.74,0.12,1.48,0.13,2.23c0.01,0.57-0.07,1.27,0.12,1.82c-0.02-0.05,0.81-0.41,0.87-0.5
				c0.09-0.15,0.05-0.29,0.06-0.46c0.01-0.35,0.07-0.69,0.1-1.03c0.05-0.61,0.04-1.22,0.07-1.83c0.06-1.28-0.02-2.53-0.09-3.81
				c-0.07-1.21-0.05-2.42,0.04-3.62c0.1-1.31,0.1-2.6,0.1-3.9c0,0.16-0.86,0.32-0.87,0.5c-0.04,1.16-0.1,2.35-0.23,3.51
				c-0.14,1.3-0.22,2.61-0.34,3.91c-0.11,1.16-0.13,2.33-0.29,3.49c-0.08,0.57-0.09,1.16-0.29,1.7c-0.18,0.48-0.24,1.11-0.57,1.51
				c0.29-0.17,0.58-0.33,0.87-0.5c-0.53,0.25-1.11-0.97-1.41-1.29C17.38,70.25,16.61,70.86,16.57,70.81L16.57,70.81z"/>
		</g>
	</g>
	<g>
		<g>
			<path d="M20.08,74.39c0.09-0.8,0.08-1.61,0.12-2.42c0.02-0.4,0.05-0.8,0.11-1.2c0.03-0.21,0.03-0.65,0.19-0.81
				c-0.29,0.17-0.58,0.33-0.87,0.5c0.08,0.4,0.01,0.87-0.01,1.27c-0.03,0.46-0.08,0.92-0.11,1.38c-0.03,0.42-0.03,0.85-0.05,1.27
				c-0.02,0.44-0.07,0.87,0.01,1.31c-0.01-0.06,0.78-0.43,0.87-0.5c0.16-0.14,0.12-0.64,0.13-0.82c0.03-0.5,0.04-0.99,0.03-1.49
				c0-0.49,0-0.98,0.03-1.46c0.01-0.21,0.04-0.42,0.05-0.64c0-0.1-0.02-0.23,0.04-0.31c-0.29,0.17-0.58,0.33-0.87,0.5
				c0.07,0.77-0.04,1.56-0.07,2.33c-0.04,0.79-0.12,1.62-0.04,2.41c0-0.03,0.4-0.22,0.44-0.25c0.12-0.07,0.35-0.14,0.43-0.25
				c0.14-0.2,0.09-0.46,0.09-0.69c0.01-0.38,0.03-0.76,0.05-1.14c0.02-0.39,0.02-0.77,0.03-1.16c0.01-0.32,0.05-0.64-0.04-0.95
				c0.02,0.07-0.83,0.39-0.87,0.5c-0.12,0.39-0.04,0.88-0.07,1.29c-0.02,0.41-0.08,0.88-0.01,1.29c0-0.02,0.4-0.22,0.44-0.25
				c0.08-0.05,0.4-0.16,0.43-0.25c0.14-0.45,0.15-0.97,0.18-1.43c0.03-0.47,0.13-1,0.06-1.47c0,0.02-0.4,0.22-0.44,0.25
				c-0.09,0.05-0.39,0.16-0.43,0.25c-0.15,0.4-0.08,0.91-0.1,1.33c-0.03,0.51-0.07,1.03-0.1,1.54c0-0.04,0.39-0.22,0.44-0.25
				c0.08-0.05,0.4-0.16,0.43-0.25c0.12-0.35,0.14-0.76,0.21-1.13c0.03-0.18,0.07-0.36,0.1-0.53c0.03-0.18,0.01-0.38,0.06-0.56
				c-0.29,0.17-0.58,0.33-0.87,0.5c-0.05,0.36-0.07,0.72-0.12,1.08c-0.06,0.39-0.12,0.79-0.16,1.19c-0.04,0.31-0.1,0.66-0.08,0.98
				c0,0.08,0.06,0.14,0.06,0.21c0.01,0.07-0.03,0.18-0.04,0.25c-0.02,0.13-0.14,0.34-0.12,0.47c0.03,0.19,0.46-0.13,0.55-0.19
				c0.12-0.07,0.32-0.14,0.42-0.24c0.07-0.08,0.08-0.21,0.1-0.31c0.05-0.35,0.06-0.71,0.06-1.07c0-0.14-0.04-0.55,0.07-0.66
				c-0.29,0.17-0.58,0.33-0.87,0.5c0.08,0.7,0.06,1.4,0.05,2.11c0.29-0.17,0.58-0.33,0.87-0.5c0-0.27-0.2-0.56-0.16-0.83
				c-0.29,0.17-0.58,0.33-0.87,0.5c0.15,0.29-0.01,0.75-0.01,1.06c0-0.03,0.39-0.22,0.44-0.25c0.05-0.03,0.43-0.2,0.43-0.25
				c0-0.91,0-1.82,0-2.72c0-0.9,0.02-1.81,0.17-2.7c-0.01,0.05-0.38,0.21-0.44,0.25c-0.07,0.04-0.42,0.18-0.43,0.25
				c-0.16,0.89-0.17,1.8-0.17,2.7c0,0.91,0,1.82,0,2.72c0.29-0.17,0.58-0.33,0.87-0.5c-0.01-0.31,0.16-0.77,0.01-1.06
				c0.02,0.04-0.85,0.41-0.87,0.5c-0.04,0.27,0.16,0.56,0.16,0.83c0-0.03,0.39-0.22,0.44-0.25c0.05-0.03,0.43-0.2,0.43-0.25
				c0-0.7,0.02-1.41-0.05-2.11c0,0.03-0.4,0.22-0.44,0.25c-0.13,0.08-0.32,0.14-0.43,0.25c-0.07,0.07-0.05,0.2-0.05,0.29
				c-0.01,0.2-0.02,0.4-0.02,0.6c-0.01,0.33,0.03,0.85-0.15,1.14c0.29-0.17,0.58-0.33,0.87-0.5c-0.18,0.05-0.1-0.12-0.07-0.23
				c0.04-0.16,0.13-0.38,0.11-0.55c0-0.06-0.06-0.13-0.06-0.21c0-0.08,0.01-0.16,0.01-0.24c0.02-0.19,0.03-0.38,0.05-0.58
				c0.03-0.41,0.11-0.82,0.16-1.23c0.06-0.4,0.08-0.8,0.14-1.2c-0.01,0.05-0.38,0.21-0.44,0.25c-0.07,0.04-0.41,0.17-0.43,0.25
				c-0.04,0.16-0.03,0.34-0.05,0.5c-0.03,0.2-0.07,0.39-0.1,0.59c-0.07,0.37-0.09,0.78-0.21,1.13c0.29-0.17,0.58-0.33,0.87-0.5
				c0.03-0.51,0.07-1.03,0.1-1.54c0.02-0.42-0.05-0.94,0.1-1.33c-0.29,0.17-0.58,0.33-0.87,0.5c0.07,0.47-0.03,1-0.06,1.47
				c-0.03,0.47-0.04,0.98-0.18,1.43c0.29-0.17,0.58-0.33,0.87-0.5c-0.07-0.41-0.01-0.88,0.01-1.29c0.02-0.41-0.06-0.9,0.07-1.29
				c-0.29,0.17-0.58,0.33-0.87,0.5c0.1,0.31,0.05,0.63,0.04,0.95c-0.01,0.39-0.02,0.77-0.03,1.16c-0.02,0.38-0.04,0.76-0.05,1.14
				c0,0.23,0.05,0.49-0.09,0.69c0.29-0.17,0.58-0.33,0.87-0.5c-0.08-0.79,0.01-1.61,0.04-2.41c0.03-0.77,0.14-1.56,0.07-2.33
				c0,0.03-0.4,0.22-0.44,0.25c-0.11,0.07-0.35,0.14-0.43,0.25c-0.06,0.09-0.04,0.2-0.04,0.3c-0.01,0.2-0.03,0.39-0.05,0.59
				c-0.03,0.51-0.03,1.02-0.03,1.52c0,0.48,0,0.95-0.03,1.43c-0.01,0.19,0.03,0.74-0.13,0.88c0.29-0.17,0.58-0.33,0.87-0.5
				c-0.08-0.42-0.03-0.83-0.01-1.25c0.02-0.44,0.02-0.89,0.05-1.33c0.03-0.44,0.08-0.88,0.11-1.32c0.02-0.42,0.09-0.92,0.01-1.33
				c0.01,0.06-0.79,0.42-0.87,0.5c-0.15,0.16-0.15,0.55-0.18,0.75c-0.06,0.42-0.1,0.83-0.12,1.26c-0.04,0.81-0.03,1.62-0.12,2.42
				c0.01-0.05,0.38-0.22,0.44-0.25C19.71,74.61,20.07,74.46,20.08,74.39L20.08,74.39z"/>
		</g>
	</g>
	<g>
		<g>
			<path d="M19.7,98.89c-0.24-5.89,0.78-11.7,1.28-17.54c-0.29,0.17-0.58,0.33-0.87,0.5c-0.04,0.97-0.19,2.08-0.03,3.05
				c0.02,0.13,0,0.2,0.1,0.21c0.12,0.02,0.76-0.38,0.83-0.48c0.17-0.25,0.12-0.76,0.13-1.05c0.02-0.75-0.03-1.5-0.16-2.23
				c0.02,0.12-0.86,0.35-0.87,0.5c-0.27,5.88-1.62,11.66-1.62,17.55c0-0.16,0.87-0.33,0.87-0.5c0-5.9,1.35-11.68,1.62-17.55
				c-0.29,0.17-0.58,0.33-0.87,0.5c0.13,0.72,0.18,1.45,0.16,2.19c0,0.19,0.06,0.96-0.13,1.09c0.29-0.17,0.58-0.33,0.87-0.5
				c-0.23-0.01-0.04-3.15-0.03-3.28c-0.01,0.18-0.85,0.31-0.87,0.5c-0.51,5.85-1.52,11.65-1.28,17.54
				C18.83,99.24,19.71,99.05,19.7,98.89L19.7,98.89z"/>
		</g>
	</g>
	<g>
		<g>
			<path d="M18.75,99.04c0.01-0.95,0.05-1.9,0.28-2.82c-0.29,0.17-0.58,0.33-0.87,0.5c0.22,0.81,0.31,1.64,0.44,2.47
				c0-0.02,0.4-0.22,0.44-0.25c0.1-0.06,0.2-0.12,0.31-0.18c0.01-0.01,0.13-0.07,0.13-0.08c-0.13-0.83-0.22-1.66-0.44-2.47
				c0,0.01-0.4,0.23-0.44,0.25c-0.1,0.06-0.2,0.12-0.31,0.18c-0.02,0.01-0.12,0.05-0.13,0.08c-0.23,0.92-0.27,1.87-0.28,2.82
				c0,0,0.15-0.08,0.13-0.07c0.1-0.06,0.2-0.12,0.31-0.18c0.1-0.06,0.2-0.12,0.31-0.18C18.65,99.11,18.75,99.06,18.75,99.04
				L18.75,99.04z"/>
		</g>
	</g>
	<g>
		<g>
			<path d="M17.59,99.37c1.3-7.67,2.77-15.34,3.31-23.11c-0.29,0.17-0.58,0.33-0.87,0.5c0.71,3.43-0.32,6.94-0.61,10.36
				c-0.34,4.09-0.71,8.19-1.02,12.28c0.01-0.18,0.85-0.31,0.87-0.5c0.31-4.1,0.68-8.19,1.02-12.28c0.28-3.42,1.32-6.93,0.61-10.36
				c0.02,0.11-0.86,0.36-0.87,0.5c-0.54,7.77-2.01,15.44-3.31,23.11C16.76,99.67,17.55,99.59,17.59,99.37L17.59,99.37z"/>
		</g>
	</g>
	<g>
		<g>
			<path d="M18.31,99.16c1.42-7.85,2.86-16.12,1.44-24.08c0.02,0.11-0.88,0.38-0.87,0.5c0.59,4.11-0.34,8.26-0.4,12.38
				c-0.05,4-0.63,8-1.38,11.93c0.04-0.21,0.82-0.28,0.87-0.5c0.75-3.93,1.33-7.93,1.38-11.93c0.05-4.12,0.99-8.27,0.4-12.38
				c-0.29,0.17-0.58,0.33-0.87,0.5c1.42,7.95-0.02,16.23-1.44,24.08C17.48,99.46,18.27,99.38,18.31,99.16L18.31,99.16z"/>
		</g>
	</g>
</g>
</svg>
