<?xml version="1.0" encoding="utf-8"?>
<!-- Generator: Adobe Adobe Illustrator 24.2.0, SVG Export Plug-In . SVG Version: 6.00 Build 0)  -->
<svg version="1.1" xmlns="http://www.w3.org/2000/svg" xmlns:xlink="http://www.w3.org/1999/xlink" x="0px" y="0px" width="40px"
	 height="100px" viewBox="0 0 40 100" style="enable-background:new 0 0 40 100;" xml:space="preserve">
<style type="text/css">
	.st0{fill:#297239;}
</style>
<g id="Layer_1">
</g>
<g id="Layer_3">
	<g>
		<path class="st0" d="M39.76,66.33c-0.47-3.17-2.06-5.57-4.04-6.63c1.57-3.58,1.06-6.47,0.22-9.31c-0.58-1.4-1.4-2.5-2.33-3.38
			c-0.41-0.33-0.84-0.63-1.23-1.01c-0.15-0.2-0.21-0.26-0.19-0.22c0,0-0.01-0.01-0.01-0.01c0-0.54,0.01-1.08,0.03-1.61
			c0.06-0.39,0.13-0.77,0.21-1.14c0.02-0.06,0.03-0.11,0.05-0.18c0.78-2.37,1.66-4.8,1.56-7.51c-0.07-2.18-0.51-4.4-1.63-5.91
			c-0.52-0.69-1.12-1.17-1.75-1.57c0-0.04,0-0.07,0-0.11c0,0.02,0,0.06,0,0.1c0,0-0.01,0-0.01-0.01c0.01-0.08,0.02-0.17,0.02-0.25
			c0,0.02,0,0.04-0.01,0.06c0,0.05-0.01,0.1-0.01,0.15c0-0.04,0.01-0.08,0.01-0.12c-0.01,0.05-0.01,0.09-0.02,0.15
			c0.04-0.41,0.08-0.82,0.12-1.23c-0.03,0.31-0.06,0.61-0.08,0.92c0-0.02,0-0.03,0.01-0.04c0.04-0.44,0.08-0.87,0.12-1.31
			c0.17-3.22-0.42-6.59-1.92-9.02c-0.79-1.44-1.88-2.58-3.1-2.97c0.1,0.02,0.1,0.02-0.11-0.06c-0.03-0.01-0.07-0.02-0.1-0.03
			c0-0.02,0-0.02-0.01-0.04c-0.02-0.14-0.05-0.28-0.07-0.41c-0.01-0.21-0.03-0.43-0.04-0.64c-0.02-0.44-0.05-0.83-0.07-0.97
			c-0.21-2.83-0.22-3.84-1.27-7.45c0-0.03-0.03-0.14-0.12-0.4c-0.02-0.07-0.04-0.14-0.06-0.21c0,0,0,0,0-0.01c0,0,0,0,0,0
			c-0.48-1.62-1.24-3.18-2.42-3.76c-1.31-0.49-2.74,0.09-3.9,1.03c-1.3,1.26-1.98,3.52-2.05,5.76c0,0.1-0.01,0.17-0.01,0.24
			c0.01-0.1,0.02-0.22,0.03-0.34c-0.01,0.13-0.02,0.27-0.04,0.4c-0.01,0.22-0.01,0.2-0.01,0.06c-0.09,0.91-0.14,1.83-0.14,2.75
			c-0.26,0.11-0.53,0.23-0.79,0.36c-0.04,0.02-0.09,0.04-0.16,0.07c-0.01,0-0.02,0.01-0.03,0.01c-0.02,0.01-0.04,0.02-0.07,0.03
			c0.01,0,0.02-0.01,0.04-0.01c-0.55,0.23-1.04,0.62-1.39,1.1C13,11.61,13,11.61,13.01,11.6C13,11.61,13,11.62,12.99,11.63
			c0,0.01-0.01,0.01-0.02,0.02c-0.02,0.02-0.02,0.03-0.03,0.04c-0.59,0.71-1.11,1.49-1.45,2.35c-0.82,2.73-1.75,5.71-1.07,8.57
			c0.18,1.58,0.58,3.25,1.52,4.48c-0.71,0.08-1.41,0.28-2.05,0.79c-2.91,2.25-3.13,7.92-1.47,11.67C8.67,40.2,9,40.79,9.33,41.38
			c-0.04,0.01-0.08,0.02-0.11,0.03c-0.15,0.02-0.3,0.05-0.45,0.07c-3.62,0.39-7.32,2.62-7.02,8.87c0.13,3.56,1.65,6.33,3.29,8.76
			c-1.63,1.54-3.48,2.78-4.46,5.35c-1.75,4.99,0.8,10.42,3.74,12.96c3.22,2.63,7.11,3.38,10.74,2.6c-0.33,0.07-0.64,0.13-0.26,0.06
			c2.22-0.26,4.41,0.56,6.62,0.54c4.09-0.39,1.63-0.61,6.4-0.84c2.11-0.32,4.26-0.33,6.34-0.94c2.43-1.25,4.83-3.69,5.64-7.44
			C40.12,69.61,40.02,68.29,39.76,66.33z"/>
		<path class="st0" d="M15.55,7.2c0,0.05-0.01,0.08-0.01,0.12c0-0.02,0-0.04,0.01-0.06C15.54,7.24,15.54,7.22,15.55,7.2z"/>
		<path class="st0" d="M30.67,27.54c0,0.04-0.01,0.09-0.01,0.13c0-0.01,0-0.02,0-0.02c0-0.05,0.01-0.09,0.01-0.14
			C30.67,27.53,30.67,27.53,30.67,27.54z"/>
		<path class="st0" d="M30.68,27.47c0,0.04-0.01,0.08-0.01,0.12C30.69,27.42,30.69,27.36,30.68,27.47z"/>
	</g>
</g>
<g id="Layer_2">
	<g>
		<g>
			<path d="M10.97,60.66c0.92,1.09,2.02,2.05,2.84,3.23c0.43,0.62,0.87,1.23,1.31,1.85c0.42,0.58,0.89,1.11,1.25,1.73
				c0.34,0.59,0.81,1.11,1.12,1.71c0.31,0.6,0.76,1.11,0.97,1.76c0.23,0.68,0.57,1.31,0.85,1.96c0.25,0.58,0.54,1.33,0.58,1.97
				c-0.01-0.14,0.88-0.35,0.87-0.5c-0.02-0.33-0.17-0.62-0.25-0.94c-0.08-0.33-0.15-0.62-0.29-0.93c-0.28-0.65-0.63-1.29-0.86-1.96
				c-0.45-1.31-1.44-2.38-2.12-3.57c-0.71-1.23-1.71-2.3-2.5-3.49c-0.81-1.22-1.95-2.2-2.89-3.31C11.79,60.11,11,60.7,10.97,60.66
				L10.97,60.66z"/>
		</g>
	</g>
	<g>
		<g>
			<path d="M19.67,71.33c0-0.91,0.24-1.78,0.41-2.67c0.16-0.9,0.58-1.66,0.86-2.52c0.29-0.87,0.69-1.7,1.08-2.53
				c0.4-0.85,0.91-1.63,1.31-2.48c0.4-0.87,0.93-1.63,1.42-2.45c0.49-0.82,0.94-1.57,1.52-2.32c0.59-0.77,1.13-1.57,1.7-2.35
				c0.27-0.37,0.58-0.72,0.87-1.08c0.25-0.31,0.49-0.74,0.8-0.98c-0.29,0.17-0.58,0.33-0.87,0.5c0.01,0.03,0.01,0.06,0.02,0.09
				c-0.02-0.08,0.89-0.41,0.87-0.5c-0.01-0.03-0.01-0.06-0.02-0.09c0.01,0.04-0.79,0.44-0.87,0.5c-0.31,0.23-0.56,0.67-0.8,0.98
				c-0.29,0.36-0.59,0.71-0.87,1.08c-0.55,0.75-1.07,1.52-1.63,2.27c-0.57,0.76-1.05,1.49-1.53,2.31c-0.5,0.86-1.06,1.64-1.48,2.55
				c-0.76,1.65-1.77,3.17-2.35,4.91c-0.3,0.89-0.73,1.69-0.9,2.62c-0.16,0.89-0.41,1.76-0.41,2.67
				C18.81,71.67,19.67,71.5,19.67,71.33L19.67,71.33z"/>
		</g>
	</g>
	<g>
		<g>
			<path d="M19.77,41.75c-0.19-0.82,0.04-1.63,0.13-2.46c0.08-0.76,0.23-1.48,0.44-2.21c0.23-0.78,0.35-1.57,0.61-2.34
				c0.27-0.8,0.54-1.56,0.91-2.32c0.76-1.53,1.5-3.03,2.37-4.51c0.37-0.63,0.83-1.21,1.17-1.85c0.31-0.58,0.74-1.12,1.13-1.64
				c-0.18,0.24-0.68,0.25-0.87,0.5c-0.37,0.5-0.8,1.01-1.1,1.57c-0.34,0.64-0.78,1.2-1.15,1.83c-0.43,0.73-0.89,1.45-1.27,2.2
				c-0.4,0.79-0.75,1.61-1.15,2.4c-0.36,0.73-0.62,1.44-0.88,2.21c-0.26,0.78-0.39,1.57-0.62,2.36c-0.21,0.73-0.37,1.44-0.46,2.19
				c-0.1,0.85-0.34,1.72-0.14,2.57C18.88,42.16,19.79,41.85,19.77,41.75L19.77,41.75z"/>
		</g>
	</g>
	<g>
		<g>
			<path d="M19.87,39.1c-0.19-0.61-0.28-1.24-0.44-1.85c-0.07-0.27-0.19-0.49-0.29-0.75c-0.1-0.29-0.13-0.6-0.2-0.9
				c-0.3-1.27-0.93-2.44-1.43-3.64c-0.48-1.14-1.08-2.29-1.81-3.29c-0.38-0.52-0.75-1.08-1.22-1.53c-0.17-0.17-0.33-0.35-0.51-0.52
				c-0.2-0.2-0.44-0.28-0.66-0.44c-0.12-0.08-0.76,0.58-0.87,0.5c0.2,0.14,0.42,0.21,0.6,0.38c0.18,0.16,0.33,0.36,0.5,0.52
				c0.47,0.44,0.83,0.98,1.22,1.5c0.76,1.03,1.39,2.21,1.88,3.39c0.49,1.17,1.09,2.3,1.41,3.53c0.08,0.3,0.11,0.62,0.2,0.91
				c0.08,0.25,0.22,0.48,0.29,0.74c0.19,0.64,0.27,1.32,0.46,1.96C18.98,39.54,19.89,39.18,19.87,39.1L19.87,39.1z"/>
		</g>
	</g>
	<g>
		<g>
			<path d="M19.67,38.22c-0.01-0.9-0.1-1.8-0.14-2.7c-0.04-0.83-0.04-1.65-0.05-2.47c-0.04-1.86-0.19-3.72-0.2-5.58
				c-0.01-1.86-0.05-3.72,0-5.57c0.02-0.91,0.08-1.81,0.1-2.72c0.01-0.39,0-0.78,0.02-1.17c0.01-0.26,0.07-0.54-0.11-0.75
				c-0.04-0.05-0.83,0.54-0.87,0.5c0.18,0.21,0.13,0.49,0.11,0.75c-0.02,0.39-0.02,0.78-0.02,1.17c-0.02,0.87-0.07,1.73-0.1,2.6
				c-0.05,1.89-0.01,3.8,0,5.69c0.01,1.82,0.15,3.64,0.2,5.46c0.03,0.86,0.01,1.72,0.06,2.59c0.05,0.9,0.13,1.8,0.14,2.7
				C18.8,38.57,19.67,38.39,19.67,38.22L19.67,38.22z"/>
		</g>
	</g>
	<g>
		<g>
			<path d="M20.26,53.5c-0.13-1.29-0.59-2.46-0.84-3.72c-0.23-1.19-0.65-2.42-1.12-3.53c-0.26-0.6-0.55-1.21-0.89-1.77
				c-0.31-0.52-0.5-1.12-0.85-1.6c-0.38-0.52-0.86-0.94-1.34-1.37c-0.5-0.45-0.98-0.93-1.53-1.33c-0.11-0.08-0.77,0.57-0.87,0.5
				c0.52,0.39,0.97,0.83,1.45,1.26c0.48,0.43,0.96,0.84,1.35,1.35c0.37,0.48,0.54,1.08,0.86,1.6c0.36,0.59,0.68,1.23,0.95,1.86
				c0.46,1.08,0.87,2.27,1.1,3.42c0.26,1.29,0.72,2.5,0.86,3.82C19.38,53.87,20.27,53.64,20.26,53.5L20.26,53.5z"/>
		</g>
	</g>
	<g>
		<g>
			<path d="M17.69,69.93c0.28,0.99,0.51,1.97,0.62,3c0.05,0.49,0.08,1.02,0.08,1.51c0,0.44,0.07,0.84,0.07,1.27
				c0.03,1.89-0.29,3.82-0.56,5.68c-0.07,0.47-0.06,1-0.08,1.47c-0.01,0.48-0.04,0.94-0.07,1.42c-0.05,0.87-0.17,1.74-0.21,2.61
				c-0.02,0.47-0.12,0.91-0.17,1.38c-0.06,0.53-0.06,1.06-0.14,1.59c-0.15,1.07-0.38,2.11-0.52,3.18c-0.07,0.54-0.24,1.07-0.28,1.61
				c-0.05,0.62-0.11,1.23-0.21,1.84c-0.17,1.09-0.29,2.23-0.29,3.34c0-0.16,0.87-0.33,0.87-0.5c0-0.97,0.14-1.92,0.22-2.88
				c0.05-0.54,0.15-1.08,0.22-1.62c0.06-0.48,0.09-0.94,0.2-1.41c0.24-1.03,0.23-2.14,0.49-3.16c0.26-1.04,0.23-2.11,0.41-3.16
				c0.16-0.89,0.1-1.81,0.21-2.7c0.11-0.91,0.18-1.85,0.22-2.77c0.09-1.86,0.38-3.73,0.57-5.58c0.05-0.47,0.01-0.98-0.06-1.44
				c-0.09-0.56-0.05-1.18-0.08-1.75c-0.07-1.17-0.32-2.3-0.64-3.43C18.58,69.5,17.67,69.84,17.69,69.93L17.69,69.93z"/>
		</g>
	</g>
	<g>
		<g>
			<path d="M20.77,67.9c0,1.16,0.03,2.33-0.09,3.49c-0.1,0.95-0.25,1.91-0.26,2.87c-0.01,1.26,0,2.52,0,3.78
				c0,1.05,0.14,2.08,0.14,3.13c0,0.46,0.03,0.92-0.02,1.37c-0.05,0.46-0.13,0.93-0.12,1.4c0,0.45-0.07,0.9-0.13,1.34
				c-0.07,0.51-0.04,1-0.08,1.51c-0.07,1.01-0.07,2.03-0.25,3.03c-0.17,0.95-0.11,1.94-0.23,2.89c-0.32,2.5-0.36,5.02-0.37,7.55
				c0-0.16,0.87-0.33,0.87-0.5c0-2.25,0.02-4.49,0.27-6.72c0.11-1.01,0.15-2.02,0.25-3.03c0.1-0.99,0.26-1.93,0.25-2.93
				c-0.01-0.94,0.13-1.92,0.21-2.86c0.08-0.92,0.23-1.86,0.22-2.78c-0.02-1.01-0.11-1.99-0.14-2.99c-0.04-1.2,0-2.41,0-3.61
				c0-1.17,0.12-2.29,0.21-3.44c0.1-1.33,0.14-2.64,0.14-3.97C21.64,67.56,20.77,67.72,20.77,67.9L20.77,67.9z"/>
		</g>
	</g>
	<g>
		<g>
			<path d="M15.94,99.76c0.26,0.09,0.51,0.2,0.78,0.25c0.14,0.02,0.27,0.03,0.41,0.03c0.13,0,0.25,0.02,0.37-0.02
				c0.1-0.04,0.18-0.11,0.29-0.12c0.14-0.02,0.28,0.02,0.42-0.02c0.13-0.03,0.24-0.06,0.37-0.06c0.13,0,0.27,0.02,0.4,0.02
				c0.29-0.17,0.58-0.33,0.87-0.5c-0.48,0-0.91-0.22-1.36-0.36c-0.22-0.07-0.44-0.12-0.67-0.13c-0.18-0.01-0.32-0.02-0.49,0.07
				c-0.22,0.12-0.43,0.25-0.65,0.37c-0.04,0.02-0.11,0.05-0.14,0.08c-0.04,0.05-0.04,0.02,0.01,0.06c0.14,0.11,0.37,0.12,0.54,0.14
				c0.45,0.04,0.89,0.12,1.33,0.13c0.29-0.17,0.58-0.33,0.87-0.5c-0.76,0-1.52-0.03-2.28-0.07c-0.29,0.17-0.58,0.33-0.87,0.5
				c0.09,0,0.17,0.04,0.26,0.06c0.1,0.02,0.21,0.02,0.32,0.03c0.19,0.01,0.37,0.05,0.56,0.08c0.2,0.04,0.41,0.08,0.61,0.06
				c0.09-0.01,0.16-0.03,0.24-0.07c0.2-0.11,0.4-0.23,0.6-0.35c0.06-0.04,0.19-0.08,0.19-0.17c0-0.06-0.06-0.09-0.12-0.11
				c-0.17-0.06-0.37-0.09-0.54-0.14c-0.39-0.11-0.81-0.2-1.18-0.38c-0.29,0.17-0.58,0.33-0.87,0.5c0.21-0.01,0.39,0.11,0.57,0.2
				c0.16,0.08,0.33,0.21,0.52,0.21c0.1,0,0.85-0.53,0.87-0.5c-0.11-0.16-0.31-0.15-0.47-0.21c-0.17-0.06-0.37-0.18-0.45-0.34
				c-0.12-0.24-0.1-0.72,0.14-0.88c-0.28,0.16-0.57,0.33-0.85,0.49c0.04,0.13,0.01,0.26,0.01,0.39c0,0.08,0.02,0.15,0.04,0.23
				c0.03,0.11,0.07,0.35,0.21,0.39c0.02,0,0.13-0.07,0.13-0.07c0.1-0.06,0.2-0.12,0.31-0.18c0.1-0.06,0.2-0.12,0.31-0.18
				c0.02-0.01,0.12-0.05,0.13-0.08c0.03-0.15-0.03-0.29-0.04-0.44c-0.01-0.17,0-0.34-0.01-0.51c-0.03-0.32-0.08-0.63-0.17-0.94
				c-0.29,0.17-0.58,0.33-0.87,0.5c0.17,0.35,0.29,0.73,0.44,1.09c0.07,0.15,0.14,0.31,0.19,0.47c0.05,0.14,0.09,0.29,0.19,0.41
				c0.01,0.01,0.21-0.12,0.22-0.12c0.13-0.08,0.27-0.15,0.4-0.23c0.08-0.05,0.18-0.09,0.26-0.15c0.04-0.03,0.05-0.06,0.07-0.11
				c0.03-0.15,0-0.32-0.04-0.46c-0.04-0.18-0.09-0.35-0.15-0.52c-0.04-0.11-0.08-0.24-0.16-0.33c-0.01-0.02-0.4,0.23-0.44,0.25
				c-0.1,0.06-0.2,0.12-0.31,0.18c-0.02,0.01-0.13,0.06-0.13,0.08c0.02,0.31,0.23,0.58,0.38,0.85c0.13,0.24,0.22,0.54,0.45,0.71
				c0.03,0.02,0.39-0.22,0.44-0.25c0.1-0.06,0.2-0.12,0.31-0.18c0.02-0.01,0.12-0.06,0.13-0.08c0.06-0.29-0.03-0.58-0.16-0.84
				c-0.09-0.17-0.2-0.43-0.4-0.51c-0.01,0-0.14,0.08-0.13,0.07c-0.1,0.06-0.2,0.12-0.31,0.18c-0.1,0.06-0.2,0.12-0.31,0.18
				c-0.03,0.02-0.11,0.05-0.13,0.08c-0.11,0.25,0.01,0.56,0.1,0.81c0.08,0.23,0.12,0.53,0.32,0.69c0.03,0.02,0.4-0.22,0.44-0.25
				c0.1-0.06,0.2-0.12,0.31-0.18c0.03-0.02,0.11-0.05,0.13-0.08c0.07-0.14-0.11-0.34-0.18-0.45c-0.13-0.22-0.28-0.43-0.42-0.64
				c-0.02-0.02-0.86,0.51-0.87,0.5c0.19,0.29,0.43,0.54,0.67,0.79c0.09,0.09,0.2,0.22,0.33,0.26c0.05,0.02,0.09,0.01,0.14-0.01
				c0.15-0.06,0.31-0.17,0.45-0.25c0.14-0.08,0.3-0.16,0.43-0.26c0.04-0.03,0.07-0.06,0.08-0.11c0.04-0.11,0-0.24-0.03-0.34
				c-0.07-0.22-0.17-0.45-0.32-0.62c-0.01-0.01-0.4,0.23-0.44,0.25c-0.1,0.06-0.2,0.12-0.31,0.18c-0.02,0.01-0.12,0.06-0.13,0.08
				c-0.02,0.25,0.15,0.48,0.27,0.68c0.12,0.2,0.22,0.44,0.41,0.58c0.03,0.02,0.39-0.22,0.44-0.25c0.1-0.06,0.2-0.12,0.31-0.18
				c0.02-0.01,0.12-0.05,0.13-0.08c0.07-0.25-0.11-0.47-0.19-0.7c-0.06-0.18-0.1-0.4-0.27-0.51c-0.04-0.02-0.39,0.22-0.44,0.25
				c-0.04,0.02-0.44,0.23-0.43,0.25c0.07,0.24,0.22,0.43,0.32,0.65c0.09,0.2,0.16,0.41,0.32,0.57c0.02,0.02,0.4-0.22,0.44-0.25
				c0.1-0.06,0.2-0.12,0.31-0.18c0.02-0.01,0.12-0.06,0.13-0.08c0.04-0.21-0.06-0.45-0.12-0.65c-0.08-0.29-0.16-0.58-0.27-0.86
				c0,0-0.4,0.23-0.44,0.25c-0.04,0.02-0.44,0.22-0.43,0.25c0.03,0.14,0.13,0.25,0.15,0.4c0-0.02,0.4-0.22,0.44-0.25
				c0.1-0.06,0.2-0.12,0.31-0.18c0.01-0.01,0.13-0.07,0.13-0.08c-0.02-0.14-0.12-0.25-0.15-0.4c-0.29,0.17-0.58,0.33-0.87,0.5
				c0.11,0.28,0.19,0.57,0.27,0.86c0.06,0.2,0.16,0.44,0.12,0.65c0.29-0.17,0.58-0.33,0.87-0.5c-0.16-0.16-0.23-0.37-0.32-0.57
				c-0.1-0.22-0.25-0.41-0.32-0.65c-0.29,0.17-0.58,0.33-0.87,0.5c0.17,0.11,0.21,0.33,0.27,0.51c0.08,0.23,0.25,0.44,0.19,0.7
				c0.29-0.17,0.58-0.33,0.87-0.5c-0.19-0.14-0.29-0.39-0.41-0.58c-0.13-0.2-0.29-0.43-0.27-0.68c-0.29,0.17-0.58,0.33-0.87,0.5
				c0.12,0.15,0.21,0.34,0.28,0.52c0.05,0.14,0.16,0.44-0.01,0.55c0.28-0.16,0.56-0.32,0.84-0.48c-0.2,0.1-0.44-0.22-0.55-0.34
				c-0.21-0.23-0.42-0.44-0.59-0.7c-0.29,0.17-0.58,0.33-0.87,0.5c0.14,0.21,0.29,0.42,0.42,0.64c0.07,0.11,0.25,0.31,0.18,0.45
				c0.29-0.17,0.58-0.33,0.87-0.5c-0.2-0.16-0.25-0.46-0.32-0.69c-0.08-0.24-0.21-0.56-0.1-0.81c-0.29,0.17-0.58,0.33-0.87,0.5
				c0.19,0.08,0.31,0.33,0.4,0.51c0.13,0.26,0.22,0.55,0.16,0.84c0.29-0.17,0.58-0.33,0.87-0.5c-0.22-0.17-0.31-0.48-0.45-0.71
				c-0.15-0.27-0.36-0.53-0.38-0.85c-0.29,0.17-0.58,0.33-0.87,0.5c0.16,0.17,0.22,0.49,0.28,0.71c0.04,0.16,0.18,0.58,0.01,0.71
				c0.22-0.13,0.43-0.25,0.65-0.38c0,0-0.01,0-0.01,0.01c0.07-0.04,0.14-0.08,0.22-0.12c-0.1-0.11-0.14-0.25-0.19-0.39
				c-0.05-0.17-0.13-0.33-0.19-0.49c-0.15-0.36-0.27-0.74-0.44-1.09c0,0-0.4,0.23-0.44,0.25c-0.04,0.02-0.44,0.23-0.43,0.25
				c0.09,0.31,0.14,0.62,0.17,0.94c0.01,0.16,0.01,0.32,0.01,0.48c0.01,0.16,0.08,0.32,0.04,0.47c0.29-0.17,0.58-0.33,0.87-0.5
				c-0.13-0.03-0.18-0.28-0.21-0.39c-0.02-0.07-0.04-0.15-0.04-0.23c-0.01-0.13,0.02-0.26-0.01-0.39c0,0.01-0.37,0.21-0.38,0.21
				c-0.16,0.09-0.32,0.18-0.47,0.28c-0.26,0.16-0.3,0.61-0.18,0.87c0.07,0.17,0.26,0.28,0.42,0.35c0.17,0.07,0.39,0.06,0.51,0.23
				c0.29-0.17,0.58-0.33,0.87-0.5c-0.19,0-0.36-0.13-0.52-0.21c-0.18-0.09-0.36-0.21-0.57-0.2c-0.03,0-0.12,0.06-0.13,0.07
				c-0.1,0.06-0.2,0.12-0.31,0.18c-0.1,0.06-0.2,0.12-0.31,0.18c-0.02,0.01-0.11,0.08-0.13,0.08c0.34,0.16,0.72,0.24,1.07,0.34
				c0.19,0.06,0.37,0.1,0.56,0.14c0.11,0.03,0.24,0.07,0.18,0.21c0.29-0.17,0.58-0.33,0.87-0.5c-0.32,0.07-0.64-0.01-0.96-0.07
				c-0.15-0.03-0.31-0.04-0.46-0.05c-0.16-0.01-0.31-0.07-0.47-0.08c-0.02,0-0.12,0.07-0.13,0.07c-0.1,0.06-0.2,0.12-0.31,0.18
				c-0.1,0.06-0.2,0.12-0.31,0.18c-0.03,0.02-0.1,0.08-0.13,0.08c0.76,0.04,1.52,0.07,2.28,0.07c0.03,0,0.12-0.07,0.13-0.07
				c0.1-0.06,0.2-0.12,0.31-0.18c0.1-0.06,0.2-0.12,0.31-0.18c0.03-0.02,0.1-0.08,0.13-0.08c-0.37-0.01-0.72-0.08-1.09-0.11
				c-0.15-0.01-0.3-0.02-0.44-0.04c-0.08-0.01-0.16-0.03-0.23-0.06c-0.04-0.02-0.18-0.07-0.14-0.11c-0.04,0.03-0.08,0.05-0.13,0.08
				c0.01-0.01,0.02-0.01,0.03-0.02c-0.25,0.14-0.49,0.28-0.74,0.42c0.14-0.06,0.3-0.02,0.45-0.02c0.23,0.01,0.45,0.07,0.66,0.14
				c0.43,0.14,0.84,0.35,1.3,0.35c0.03,0,0.12-0.07,0.13-0.07c0.1-0.06,0.2-0.12,0.31-0.18c0.1-0.06,0.2-0.12,0.31-0.18
				c0.03-0.02,0.1-0.08,0.13-0.08c-0.13,0-0.27-0.02-0.4-0.02c-0.13,0-0.24,0.03-0.37,0.06c-0.14,0.04-0.28,0-0.42,0.02
				c-0.11,0.02-0.19,0.08-0.29,0.12c-0.12,0.04-0.25,0.03-0.37,0.02c-0.14-0.01-0.27-0.01-0.41-0.03c-0.27-0.05-0.52-0.16-0.78-0.25
				c-0.01,0-0.14,0.08-0.13,0.07c-0.1,0.06-0.2,0.12-0.31,0.18c-0.1,0.06-0.2,0.12-0.31,0.18C16.05,99.69,15.95,99.76,15.94,99.76
				L15.94,99.76z"/>
		</g>
	</g>
	<g>
		<g>
			<path d="M17.52,68.76c0.13,1.04,0.93,0.67,1.51,0.32c0.28-0.17,0.42-0.29,0.44-0.65c0.03-0.5,0.02-1.01,0.04-1.51
				c0.05-0.98-0.13-1.95-0.07-2.92c0.08-1.22-0.01-2.45-0.04-3.67c-0.06-2.3,0.15-4.6,0.2-6.89c0.02-1.06-0.14-2.11-0.17-3.17
				c-0.02-0.63,0-1.26,0-1.89c0-0.55-0.12-1.08-0.14-1.63c0.01,0.15-0.87,0.34-0.87,0.5c0.02,0.47,0.13,0.92,0.14,1.39
				c0.01,0.51,0,1.03,0,1.54c0,0.96,0.09,1.92,0.15,2.88c0.06,0.87-0.05,1.73-0.09,2.6c-0.04,0.98-0.03,1.95-0.06,2.93
				c-0.06,1.97,0.13,3.94,0.01,5.9c-0.05,0.86,0.1,1.69,0.09,2.55c0,0.43-0.03,0.87-0.05,1.31c-0.02,0.39,0.07,0.83-0.25,1.1
				c0.29-0.17,0.58-0.33,0.87-0.5c-0.48,0.12-0.8-0.22-0.85-0.69C18.4,68.38,17.51,68.62,17.52,68.76L17.52,68.76z"/>
		</g>
	</g>
	<g>
		<g>
			<path d="M21.56,68.09c-0.31-1.84-0.21-3.79-0.27-5.65c-0.06-2.04-0.09-4.07-0.08-6.11c0.01-1.99-0.05-3.95-0.13-5.93
				c-0.04-0.95-0.07-1.9-0.13-2.85c-0.05-0.76,0.04-1.71-0.23-2.42c0.02,0.06-0.83,0.4-0.87,0.5c-0.01,0.03-0.02,0.06-0.03,0.09
				c0.09-0.24,0.78-0.26,0.87-0.5c0.01-0.03,0.02-0.06,0.03-0.09c-0.29,0.17-0.58,0.33-0.87,0.5c0.27,0.72,0.17,1.66,0.23,2.42
				c0.07,0.95,0.1,1.9,0.13,2.85c0.07,1.98,0.14,3.95,0.13,5.93c-0.01,2.04,0.02,4.07,0.08,6.11c0.06,1.86-0.05,3.81,0.27,5.65
				C20.67,68.48,21.58,68.21,21.56,68.09L21.56,68.09z"/>
		</g>
	</g>
	<g>
		<g>
			<path d="M20.28,66.29c0.46-1.35,1.05-2.65,1.68-3.93c0.69-1.39,1.52-2.68,2.32-4.01c0.41-0.67,0.92-1.3,1.39-1.93
				c0.42-0.57,0.88-1.17,1.37-1.67c0.96-0.97,1.76-2.12,2.87-2.96c-0.29,0.17-0.58,0.33-0.87,0.5c0.04-0.02,0.08-0.04,0.13-0.06
				c0.3-0.14,0.56-0.36,0.87-0.5c-1.07,0.48-1.83,1.29-2.63,2.12c-1.15,1.18-2.17,2.5-3.14,3.83c-2.02,2.77-3.75,5.84-4.86,9.1
				C19.49,66.56,20.2,66.53,20.28,66.29L20.28,66.29z"/>
		</g>
	</g>
	<g>
		<g>
			<path d="M21.36,64.06c0.45-0.98,1.05-1.83,1.58-2.76c0.24-0.41,0.38-0.84,0.59-1.27c0.22-0.44,0.47-0.87,0.71-1.29
				c0.23-0.41,0.56-0.75,0.82-1.14c0.26-0.39,0.49-0.81,0.76-1.19c0.26-0.37,0.52-0.72,0.84-1.04c0.15-0.15,0.27-0.32,0.4-0.5
				c0.12-0.17,0.3-0.28,0.41-0.46c-0.16,0.25-0.7,0.25-0.87,0.5c-0.1,0.16-0.26,0.26-0.37,0.4c-0.13,0.17-0.24,0.35-0.39,0.51
				c-0.31,0.33-0.58,0.66-0.84,1.03c-0.27,0.38-0.51,0.79-0.76,1.18c-0.27,0.42-0.62,0.77-0.86,1.21c-0.23,0.4-0.46,0.81-0.68,1.22
				c-0.22,0.42-0.35,0.86-0.58,1.26c-0.55,0.95-1.17,1.83-1.63,2.83c0.04-0.08,0.35-0.2,0.44-0.25
				C21.03,64.26,21.32,64.16,21.36,64.06L21.36,64.06z"/>
		</g>
	</g>
	<g>
		<g>
			<path d="M19.26,47.62c0.16-1.08,0.21-2.15,0.2-3.24c-0.01-0.98,0.1-1.96,0.1-2.94c0-0.93,0.09-1.86,0.04-2.8
				c-0.02-0.35,0.02-0.67-0.04-1.02c-0.07-0.49-0.11-0.97-0.17-1.46c0.02,0.12-0.88,0.37-0.87,0.5c0.06,0.48,0.1,0.97,0.17,1.46
				c0.05,0.33,0.02,0.61,0.03,0.94c0.02,0.96-0.03,1.91-0.03,2.88c0,0.94-0.1,1.88-0.1,2.83c0.01,1.13-0.03,2.24-0.2,3.35
				C18.43,47.93,19.23,47.83,19.26,47.62L19.26,47.62z"/>
		</g>
	</g>
	<g>
		<g>
			<path d="M21.02,47.79c-0.12-1.15-0.17-2.3-0.26-3.46c-0.09-1.24-0.37-2.47-0.43-3.7c-0.06-1.15-0.14-2.26-0.35-3.4
				c-0.11-0.56-0.24-1.09-0.29-1.66c-0.05-0.54-0.25-1.1-0.24-1.64c-0.29,0.17-0.58,0.33-0.87,0.5c0.01,0.01,0.02,0.02,0.03,0.02
				c0.09,0.08,0.79-0.57,0.87-0.5c-0.01-0.01-0.02-0.02-0.03-0.02c-0.02-0.01-0.87,0.46-0.87,0.5c-0.01,0.51,0.17,1.03,0.23,1.54
				c0.06,0.56,0.18,1.1,0.29,1.65c0.22,1.17,0.31,2.31,0.37,3.5c0.07,1.2,0.34,2.39,0.43,3.6c0.08,1.19,0.15,2.37,0.27,3.56
				C20.14,48.16,21.03,47.93,21.02,47.79L21.02,47.79z"/>
		</g>
	</g>
	<g>
		<g>
			<path d="M20.33,51.7c-0.15-0.9-0.15-1.8-0.18-2.71c-0.03-0.89-0.22-1.78-0.27-2.67c-0.02-0.4-0.03-0.8-0.05-1.19
				c-0.02-0.39-0.13-0.77-0.15-1.16c-0.02-0.39,0.02-0.8,0.05-1.18c0.02-0.27-0.07-0.61,0.03-0.86c-0.29,0.17-0.58,0.33-0.87,0.5
				c0.22,0.11,0.18,0.58,0.2,0.78c0.06,0.49,0.13,0.99,0.17,1.48c0.09,1,0.1,2.03,0.05,3.02c-0.09,1.87,0.24,3.73,0.23,5.59
				c0,0.98-0.28,1.93-0.28,2.9c0,0.97-0.06,1.94-0.04,2.92c0.02,0.93,0.05,1.87-0.02,2.8c-0.07,0.94-0.25,1.88-0.29,2.82
				c-0.03,0.94-0.08,1.89-0.16,2.83c-0.07,0.93-0.29,1.86-0.34,2.79c0.29-0.17,0.58-0.33,0.87-0.5c-0.02-0.04-0.03-0.08-0.05-0.12
				c0.02,0.05-0.89,0.44-0.87,0.5c0.02,0.04,0.03,0.08,0.05,0.12c-0.03-0.07,0.86-0.39,0.87-0.5c0.04-0.83,0.24-1.66,0.31-2.49
				c0.07-0.8,0.1-1.61,0.16-2.41c0.13-1.86,0.34-3.69,0.37-5.55c0.01-0.96-0.1-1.94-0.03-2.91c0.03-0.45,0.01-0.91,0.06-1.36
				c0.06-0.53,0.2-1.05,0.24-1.59c0.06-0.92-0.02-1.85-0.12-2.77c-0.09-0.92-0.09-1.86-0.13-2.79c-0.05-1.12,0.09-2.24,0.02-3.36
				c-0.03-0.52-0.1-1.04-0.16-1.56c-0.03-0.24,0.02-1.01-0.25-1.15c-0.05-0.03-0.84,0.43-0.87,0.5c-0.09,0.24-0.01,0.54-0.02,0.79
				c-0.02,0.38-0.06,0.76-0.06,1.15c0.01,0.42,0.13,0.84,0.15,1.26c0.02,0.4,0.03,0.8,0.05,1.19c0.05,0.86,0.23,1.71,0.27,2.56
				c0.04,0.95,0.02,1.88,0.18,2.82C19.45,52.1,20.36,51.82,20.33,51.7L20.33,51.7z"/>
		</g>
	</g>
	<g>
		<g>
			<path d="M16.45,67.66c0.33,0.35,0.84,1.46,1.39,1.36c0.26-0.04,0.74-0.35,0.93-0.52c0.22-0.2,0.27-0.5,0.35-0.77
				c0.11-0.35,0.26-0.7,0.36-1.06c0.21-0.8,0.22-1.69,0.31-2.52c0.18-1.68,0.2-3.38,0.36-5.06c0.17-1.71,0.37-3.41,0.42-5.13
				c-0.29,0.17-0.58,0.33-0.87,0.5c0.01,1.24,0.02,2.46-0.08,3.69c-0.1,1.31-0.14,2.63-0.07,3.94c0.06,1.23,0.17,2.44,0.11,3.67
				c-0.04,0.7-0.02,1.41-0.07,2.11c-0.02,0.32-0.07,0.63-0.09,0.95c-0.02,0.22,0.04,0.52-0.08,0.71c0.29-0.17,0.58-0.33,0.87-0.5
				c-0.2-0.57-0.12-1.28-0.12-1.87c-0.01-0.77-0.13-1.53-0.14-2.29c0,0.16-0.86,0.32-0.87,0.5c-0.05,0.86-0.23,1.72-0.37,2.57
				c-0.09,0.59-0.1,1.64-0.55,2.09c0.29-0.17,0.58-0.33,0.87-0.5c-0.36,0.08-0.16-1.23-0.11-1.45c-0.29,0.17-0.58,0.33-0.87,0.5
				c-0.01,0.3,0.14,0.86-0.01,1.11c0.29-0.17,0.58-0.33,0.87-0.5c-0.29-0.24-0.23-0.7-0.56-0.93c-0.05-0.03-0.86,0.5-0.87,0.5
				c0.11,0.31,0.28,0.56,0.35,0.87c0.02,0.12,0,0.44,0.04,0.51c0.01,0.02,0.86-0.51,0.87-0.5c-0.05-0.08-0.02-0.38-0.04-0.51
				c-0.06-0.32-0.23-0.56-0.35-0.87c-0.29,0.17-0.58,0.33-0.87,0.5c0.33,0.23,0.27,0.69,0.56,0.93c0.03,0.02,0.82-0.43,0.87-0.5
				c0.15-0.25,0-0.82,0.01-1.11c0,0.18-0.82,0.31-0.87,0.5c-0.08,0.36-0.14,0.79-0.09,1.16c0.03,0.25,0.05,0.3,0.26,0.26
				c0.26-0.05,0.76-0.38,0.92-0.6c0.36-0.51,0.37-1.48,0.46-2.07c0.13-0.81,0.3-1.62,0.35-2.45c-0.29,0.17-0.58,0.33-0.87,0.5
				c0.01,0.77,0.13,1.53,0.14,2.29c0.01,0.59-0.08,1.31,0.12,1.87c-0.02-0.05,0.81-0.41,0.87-0.5c0.11-0.17,0.06-0.39,0.07-0.59
				c0.01-0.32,0.07-0.63,0.09-0.95c0.06-0.7,0.05-1.41,0.08-2.11c0.05-1.27-0.04-2.52-0.1-3.79c-0.07-1.28-0.04-2.56,0.06-3.84
				c0.1-1.27,0.09-2.53,0.08-3.8c0,0.16-0.86,0.32-0.87,0.5c-0.08,2.51-0.37,5.02-0.58,7.52c-0.11,1.23-0.14,2.48-0.31,3.7
				c-0.07,0.55-0.08,1.12-0.26,1.65c-0.17,0.51-0.28,1.23-0.63,1.65c0.29-0.17,0.58-0.33,0.87-0.5c-0.55,0.25-1.14-0.99-1.46-1.33
				C17.26,67.1,16.5,67.71,16.45,67.66L16.45,67.66z"/>
		</g>
	</g>
	<g>
		<g>
			<path d="M20.06,71.36c0.1-0.83,0.09-1.66,0.13-2.49c0.02-0.41,0.05-0.82,0.12-1.23c0.03-0.22,0.03-0.67,0.2-0.84
				c-0.29,0.17-0.58,0.33-0.87,0.5c0.08,0.41,0.01,0.89-0.01,1.31c-0.03,0.47-0.08,0.94-0.11,1.42c-0.03,0.44-0.03,0.87-0.05,1.31
				c-0.02,0.45-0.07,0.9,0.01,1.34c-0.01-0.06,0.78-0.43,0.87-0.5c0.16-0.14,0.12-0.66,0.13-0.85c0.04-0.51,0.04-1.02,0.04-1.53
				c0-0.5,0-1,0.03-1.51c0.01-0.22,0.04-0.44,0.05-0.65c0-0.1-0.02-0.23,0.04-0.32c-0.29,0.17-0.58,0.33-0.87,0.5
				c0.07,0.79-0.04,1.61-0.07,2.4c-0.04,0.82-0.12,1.66-0.04,2.48c0-0.03,0.4-0.22,0.44-0.25c0.12-0.07,0.35-0.14,0.43-0.25
				c0.14-0.2,0.09-0.47,0.09-0.71c0.01-0.39,0.03-0.78,0.05-1.18c0.02-0.4,0.02-0.8,0.03-1.19c0.01-0.33,0.06-0.66-0.05-0.97
				c0.02,0.07-0.83,0.39-0.87,0.5c-0.13,0.4-0.04,0.9-0.07,1.33c-0.02,0.42-0.08,0.91-0.01,1.33c0-0.02,0.4-0.22,0.44-0.25
				c0.08-0.05,0.4-0.16,0.43-0.25c0.14-0.46,0.16-0.99,0.19-1.47c0.03-0.49,0.14-1.03,0.07-1.51c0,0.02-0.4,0.22-0.44,0.25
				c-0.09,0.05-0.39,0.16-0.43,0.25c-0.16,0.41-0.09,0.94-0.11,1.37c-0.03,0.53-0.07,1.06-0.1,1.58c0-0.04,0.39-0.22,0.44-0.25
				c0.08-0.05,0.4-0.16,0.43-0.25c0.12-0.36,0.15-0.78,0.22-1.16c0.03-0.18,0.07-0.37,0.1-0.55c0.03-0.19,0.01-0.39,0.06-0.57
				c-0.29,0.17-0.58,0.33-0.87,0.5c-0.05,0.37-0.07,0.74-0.13,1.11c-0.06,0.41-0.12,0.81-0.17,1.22c-0.04,0.32-0.1,0.68-0.08,1
				c0,0.08,0.06,0.15,0.07,0.21c0.01,0.07-0.03,0.18-0.04,0.26c-0.02,0.14-0.14,0.35-0.12,0.48c0.03,0.2,0.46-0.13,0.55-0.18
				c0.12-0.07,0.32-0.14,0.42-0.24c0.07-0.08,0.09-0.22,0.1-0.32c0.05-0.36,0.06-0.73,0.06-1.1c0-0.14-0.04-0.57,0.08-0.68
				c-0.29,0.17-0.58,0.33-0.87,0.5c0.08,0.72,0.06,1.44,0.06,2.17c0.29-0.17,0.58-0.33,0.87-0.5c0-0.28-0.21-0.57-0.17-0.85
				c-0.29,0.17-0.58,0.33-0.87,0.5c0.16,0.29-0.01,0.77-0.01,1.09c0-0.03,0.39-0.22,0.44-0.25c0.05-0.03,0.43-0.2,0.43-0.25
				c0-0.93,0-1.87,0-2.8c0-0.93,0.02-1.86,0.18-2.78c-0.01,0.05-0.38,0.21-0.44,0.25c-0.07,0.04-0.42,0.18-0.43,0.25
				c-0.16,0.92-0.18,1.85-0.18,2.78c0,0.93,0,1.87,0,2.8c0.29-0.17,0.58-0.33,0.87-0.5c-0.01-0.32,0.17-0.8,0.01-1.09
				c0.02,0.04-0.85,0.41-0.87,0.5c-0.04,0.28,0.17,0.57,0.17,0.85c0-0.03,0.39-0.22,0.44-0.25c0.05-0.03,0.43-0.2,0.43-0.25
				c0-0.72,0.02-1.45-0.06-2.17c0,0.03-0.4,0.22-0.44,0.25c-0.13,0.08-0.32,0.14-0.43,0.25c-0.07,0.07-0.05,0.21-0.05,0.3
				c-0.01,0.21-0.02,0.41-0.02,0.61c-0.01,0.34,0.03,0.88-0.15,1.17c0.29-0.17,0.58-0.33,0.87-0.5c-0.18,0.05-0.11-0.12-0.07-0.24
				c0.05-0.17,0.13-0.39,0.12-0.57c0-0.06-0.06-0.14-0.07-0.21c0-0.08,0.01-0.17,0.01-0.25c0.02-0.2,0.03-0.4,0.05-0.59
				c0.04-0.42,0.11-0.85,0.17-1.27c0.06-0.41,0.09-0.82,0.14-1.23c-0.01,0.05-0.38,0.21-0.44,0.25c-0.07,0.04-0.41,0.17-0.43,0.25
				c-0.04,0.17-0.03,0.34-0.05,0.52c-0.03,0.2-0.07,0.4-0.11,0.6c-0.07,0.38-0.1,0.8-0.22,1.16c0.29-0.17,0.58-0.33,0.87-0.5
				c0.03-0.53,0.08-1.06,0.1-1.58c0.02-0.43-0.05-0.96,0.11-1.37c-0.29,0.17-0.58,0.33-0.87,0.5c0.07,0.48-0.03,1.03-0.07,1.51
				c-0.03,0.48-0.04,1.01-0.19,1.47c0.29-0.17,0.58-0.33,0.87-0.5c-0.07-0.42-0.01-0.9,0.01-1.33c0.02-0.42-0.06-0.93,0.07-1.33
				c-0.29,0.17-0.58,0.33-0.87,0.5c0.1,0.32,0.05,0.65,0.05,0.97c-0.01,0.4-0.02,0.8-0.03,1.19c-0.02,0.39-0.04,0.78-0.05,1.18
				c0,0.23,0.05,0.5-0.09,0.71c0.29-0.17,0.58-0.33,0.87-0.5c-0.08-0.81,0.01-1.66,0.04-2.48c0.04-0.79,0.15-1.61,0.07-2.4
				c0,0.03-0.4,0.22-0.44,0.25c-0.11,0.07-0.35,0.14-0.43,0.25c-0.06,0.09-0.04,0.21-0.04,0.31c-0.01,0.2-0.03,0.4-0.05,0.61
				c-0.04,0.52-0.04,1.05-0.03,1.57c0,0.49,0,0.98-0.03,1.47c-0.01,0.19,0.03,0.76-0.14,0.91c0.29-0.17,0.58-0.33,0.87-0.5
				c-0.08-0.43-0.03-0.85-0.01-1.29c0.02-0.46,0.02-0.91,0.05-1.37c0.03-0.45,0.08-0.9,0.11-1.35c0.03-0.43,0.1-0.94,0.01-1.37
				c0.01,0.06-0.79,0.42-0.87,0.5c-0.16,0.16-0.16,0.57-0.19,0.78c-0.07,0.43-0.11,0.86-0.13,1.29c-0.04,0.83-0.03,1.66-0.13,2.49
				c0.01-0.05,0.38-0.22,0.44-0.25C19.69,71.58,20.06,71.43,20.06,71.36L20.06,71.36z"/>
		</g>
	</g>
	<g>
		<g>
			<path d="M18.09,97.48c0.24-0.98,0.43-2.01,0.59-3.01c0.18-1.13,0.18-2.27,0.35-3.4c0.16-1.03,0.19-2.09,0.3-3.13
				c0.12-1.18,0.24-2.35,0.33-3.54c0.15-2.16,0.28-4.33,0.45-6.49c0.08-1,0.14-2.14-0.02-3.14c-0.07-0.46-0.09-0.92-0.16-1.39
				c-0.06-0.43-0.17-0.88-0.19-1.31c-0.29,0.17-0.58,0.33-0.87,0.5c0.03,0.51,0.12,1,0.12,1.53c0,0.51-0.03,1.02-0.05,1.53
				c-0.06,1.07-0.11,2.13-0.2,3.2c-0.19,2.21-0.37,4.41-0.25,6.62c0.11,2.15-0.6,4.2-0.89,6.3c-0.15,1.04-0.28,2.09-0.34,3.14
				c-0.03,0.46-0.07,0.92-0.07,1.39c0,0.42,0.04,0.9-0.16,1.28c0.29-0.17,0.58-0.33,0.87-0.5c-0.05,0.02-0.38,0.01-0.4-0.02
				c-0.05-0.08,0.09-0.43,0.1-0.53c0.05-0.52,0.08-1.04,0.11-1.57c0.08-1.1,0.3-2.16,0.5-3.25c0.2-1.11,0.26-2.24,0.43-3.36
				c0.16-1.04,0.3-2.08,0.43-3.13c0.13-1.02,0.26-2.05,0.48-3.05c0.22-0.97,0.35-1.94,0.56-2.91c0.22-1,0.38-2.04,0.52-3.05
				c0.14-0.97,0.15-1.96,0.29-2.92c-0.29,0.17-0.58,0.33-0.87,0.5c0.14,0.23,0.12,0.67,0.13,0.94c0.03,0.53-0.03,1.07-0.06,1.6
				c-0.06,1.12-0.25,2.23-0.34,3.34c-0.17,2.15-0.29,4.32-0.49,6.47c-0.2,2.2-0.37,4.41-0.59,6.61c-0.11,1.07-0.21,2.14-0.26,3.21
				c-0.02,0.48-0.08,0.95-0.09,1.43c-0.01,0.41,0.03,0.91-0.06,1.3c0.29-0.17,0.58-0.33,0.87-0.5c-0.52-0.45-0.82-1.65-0.68-2.29
				c-0.29,0.17-0.58,0.33-0.87,0.5c-0.09,0.6,0.15,1.31,0.18,1.92c-0.01-0.15,0.86-0.33,0.87-0.5c0.01-0.71,0.04-1.43,0.07-2.14
				c0.02-0.55-0.02-1.4,0.26-1.88c-0.29,0.17-0.58,0.33-0.87,0.5c0.3,0.47,0.25,1.18,0.33,1.72c0.09,0.63,0.26,1.26,0.31,1.88
				c-0.01-0.12,0.8-0.36,0.87-0.5c0.14-0.27,0.05-0.69,0.05-0.98c0-0.44,0-0.88,0.02-1.32c0.04-0.77,0.14-1.53,0.21-2.3
				c0.14-1.55,0.16-3.11,0.26-4.67c0.11-1.65,0.37-3.27,0.61-4.9c0.22-1.55,0.52-3.19,0.24-4.73c0.02,0.12-0.86,0.36-0.87,0.5
				c-0.2,3.28-0.65,6.54-1.11,9.79c-0.23,1.63-0.42,3.26-0.51,4.91c-0.04,0.85-0.06,1.7-0.07,2.54c0,0.4,0,0.81,0,1.21
				c0,0.36-0.15,0.88,0.01,1.21c-0.01-0.02,0.88-0.46,0.87-0.5c-0.16-0.36-0.03-1.02,0.11-1.38c-0.29,0.17-0.58,0.33-0.87,0.5
				c0.19,0.27,0.32,0.67,0.39,0.99c0.29-0.17,0.58-0.33,0.87-0.5c-0.14-0.25-0.13-0.64-0.17-0.92c-0.04-0.27-0.15-0.67-0.07-0.94
				c-0.29,0.17-0.58,0.33-0.87,0.5c0.15,0.4,0.26,0.8,0.33,1.23c-0.02-0.11,0.89-0.38,0.87-0.5c-0.01-0.06-0.02-0.12-0.03-0.18
				c0.02,0.11-0.89,0.38-0.87,0.5c0.01,0.06,0.02,0.12,0.03,0.18c0.29-0.17,0.58-0.33,0.87-0.5c-0.07-0.42-0.17-0.83-0.33-1.23
				c0.02,0.06-0.84,0.39-0.87,0.5c-0.08,0.28,0.03,0.66,0.07,0.94c0.04,0.28,0.03,0.67,0.17,0.92c-0.01-0.03,0.88-0.44,0.87-0.5
				c-0.07-0.32-0.2-0.72-0.39-0.99c0.01,0.01-0.84,0.43-0.87,0.5c-0.14,0.36-0.26,1.02-0.11,1.38c0.29-0.17,0.58-0.33,0.87-0.5
				c-0.15-0.31-0.01-0.75,0-1.09c0.01-0.4,0-0.81,0-1.21c0.01-0.85,0.02-1.7,0.06-2.54c0.08-1.68,0.28-3.36,0.51-5.03
				c0.46-3.25,0.91-6.52,1.11-9.79c-0.29,0.17-0.58,0.33-0.87,0.5c0.28,1.52-0.01,3.1-0.22,4.62c-0.23,1.67-0.51,3.33-0.62,5.01
				c-0.1,1.52-0.12,3.04-0.25,4.55c-0.07,0.81-0.18,1.61-0.22,2.42c-0.02,0.4-0.02,0.8-0.02,1.2c0,0.33,0.1,0.8-0.05,1.1
				c0.29-0.17,0.58-0.33,0.87-0.5c-0.06-0.63-0.22-1.26-0.31-1.88c-0.08-0.54-0.03-1.24-0.33-1.72c0.01,0.01-0.82,0.43-0.87,0.5
				c-0.27,0.47-0.23,1.34-0.26,1.88c-0.03,0.71-0.06,1.43-0.07,2.14c0.29-0.17,0.58-0.33,0.87-0.5c-0.03-0.61-0.26-1.32-0.18-1.92
				c-0.03,0.2-0.82,0.29-0.87,0.5c-0.1,0.43,0.02,0.96,0.17,1.36c0.1,0.28,0.28,0.73,0.51,0.93c0.02,0.01,0.85-0.44,0.87-0.5
				c0.08-0.37,0.04-0.82,0.06-1.2c0.03-0.51,0.07-1.02,0.09-1.54c0.05-1.07,0.16-2.14,0.26-3.21c0.22-2.2,0.39-4.4,0.59-6.61
				c0.19-2.15,0.31-4.31,0.49-6.47c0.09-1.12,0.28-2.22,0.34-3.34c0.03-0.49,0.09-0.99,0.06-1.49c-0.01-0.28,0.02-0.8-0.14-1.05
				c0.02,0.03-0.85,0.42-0.87,0.5c-0.11,0.74-0.11,1.51-0.2,2.26c-0.11,0.89-0.27,1.76-0.42,2.64c-0.28,1.61-0.63,3.2-0.9,4.81
				c-0.57,3.49-0.94,7-1.54,10.49c-0.14,0.84-0.18,1.69-0.24,2.54c-0.01,0.19-0.01,0.39-0.04,0.58c-0.01,0.06-0.13,0.39-0.09,0.45
				c0.06,0.1,0.37,0.02,0.46-0.01c0.27-0.09,0.74-0.33,0.87-0.59c0.15-0.29,0.1-0.76,0.1-1.07c0-0.42,0.04-0.83,0.06-1.24
				c0.09-1.77,0.39-3.49,0.7-5.24c0.15-0.86,0.37-1.72,0.47-2.59c0.11-0.94,0.05-1.86,0.04-2.8c-0.03-2.06,0.15-4.09,0.32-6.15
				c0.08-0.94,0.11-1.88,0.17-2.83c0.06-1-0.01-1.95-0.08-2.95c0.01,0.14-0.87,0.35-0.87,0.5c0.02,0.4,0.12,0.81,0.18,1.21
				c0.06,0.46,0.09,0.93,0.16,1.39c0.15,1,0.12,2.11,0.05,3.12c-0.15,2.2-0.31,4.4-0.46,6.6c-0.08,1.14-0.19,2.28-0.31,3.42
				c-0.11,1.04-0.14,2.1-0.29,3.13c-0.17,1.13-0.17,2.27-0.35,3.4c-0.16,1.04-0.35,2.11-0.61,3.13
				C17.28,97.76,18.03,97.71,18.09,97.48L18.09,97.48z"/>
		</g>
	</g>
</g>
</svg>
