<?xml version="1.0" encoding="utf-8"?>
<!-- Generator: Adobe Adobe Illustrator 24.2.0, SVG Export Plug-In . SVG Version: 6.00 Build 0)  -->
<svg version="1.1" xmlns="http://www.w3.org/2000/svg" xmlns:xlink="http://www.w3.org/1999/xlink" x="0px" y="0px" width="40px"
	 height="100px" viewBox="0 0 40 100" style="enable-background:new 0 0 40 100;" xml:space="preserve">
<style type="text/css">
	.st0{fill:#297239;}
	.st1{fill:#3B854D;}
	.st2{fill:#5ABB70;}
</style>
<g id="Layer_1">
</g>
<g id="Layer_3">
	<g>
		<path class="st0" d="M19.88,66.33c-0.23-3.17-1.03-5.57-2.02-6.63c0.78-3.58,0.53-6.47,0.11-9.31c-0.29-1.4-0.7-2.5-1.17-3.38
			c-0.21-0.33-0.42-0.63-0.61-1.01c-0.07-0.2-0.1-0.26-0.1-0.22c0,0,0-0.01,0-0.01c0-0.54,0-1.08,0.02-1.61
			c0.03-0.39,0.06-0.77,0.11-1.14c0.01-0.06,0.02-0.11,0.03-0.18c0.39-2.37,0.83-4.8,0.78-7.51c-0.04-2.18-0.26-4.4-0.82-5.91
			c-0.26-0.69-0.56-1.17-0.88-1.57c0-0.04,0-0.07,0-0.11c0,0.02,0,0.06,0,0.1c0,0,0,0,0-0.01c0-0.08,0.01-0.17,0.01-0.25
			c0,0.02,0,0.04,0,0.06c0,0.05,0,0.1-0.01,0.15c0-0.04,0-0.08,0.01-0.12c0,0.05-0.01,0.09-0.01,0.15c0.02-0.41,0.04-0.82,0.06-1.23
			c-0.01,0.31-0.03,0.61-0.04,0.92c0-0.02,0-0.03,0-0.04c0.02-0.44,0.04-0.87,0.06-1.31c0.09-3.22-0.21-6.59-0.96-9.02
			c-0.4-1.44-0.94-2.58-1.55-2.97c0.05,0.02,0.05,0.02-0.06-0.06c-0.02-0.01-0.03-0.02-0.05-0.03c0-0.02,0-0.02,0-0.04
			c-0.01-0.14-0.02-0.28-0.03-0.41c-0.01-0.21-0.01-0.43-0.02-0.64c-0.01-0.44-0.03-0.83-0.04-0.97c-0.1-2.83-0.11-3.84-0.64-7.45
			c0-0.03-0.02-0.14-0.06-0.4c-0.01-0.07-0.02-0.14-0.03-0.21c0,0,0,0,0-0.01c0,0,0,0,0,0c-0.24-1.62-0.62-3.18-1.21-3.76
			C10.1-0.31,9.38,0.27,8.8,1.21C8.15,2.47,7.81,4.72,7.78,6.96c0,0.1,0,0.17,0,0.24c0-0.1,0.01-0.22,0.02-0.34
			c-0.01,0.13-0.01,0.27-0.02,0.4c-0.01,0.22-0.01,0.2,0,0.06C7.72,8.23,7.7,9.15,7.7,10.06c-0.13,0.11-0.26,0.23-0.39,0.36
			c-0.02,0.02-0.05,0.04-0.08,0.07c-0.01,0-0.01,0.01-0.02,0.01c-0.01,0.01-0.02,0.02-0.03,0.03c0.01,0,0.01-0.01,0.02-0.01
			c-0.28,0.23-0.52,0.62-0.7,1.1c0-0.01,0-0.01,0.01-0.02c0,0.01-0.01,0.02-0.01,0.03c0,0.01-0.01,0.01-0.01,0.02
			c-0.01,0.02-0.01,0.03-0.02,0.04c-0.29,0.71-0.55,1.49-0.73,2.35c-0.41,2.73-0.87,5.71-0.53,8.57c0.09,1.58,0.29,3.25,0.76,4.48
			c-0.36,0.08-0.7,0.28-1.03,0.79c-1.46,2.25-1.56,7.92-0.74,11.67c0.13,0.66,0.29,1.25,0.46,1.83c-0.02,0.01-0.04,0.02-0.06,0.03
			c-0.08,0.02-0.15,0.05-0.23,0.07c-1.81,0.39-3.66,2.62-3.51,8.87c0.06,3.56,0.82,6.33,1.65,8.76c-0.82,1.54-1.74,2.78-2.23,5.35
			c-0.87,4.99,0.4,10.42,1.87,12.96c1.61,2.63,3.56,3.38,5.37,2.6c-0.16,0.07-0.32,0.13-0.13,0.06c1.11-0.26,2.21,0.56,3.31,0.54
			c2.05-0.39,0.81-0.61,3.2-0.84c1.06-0.32,2.13-0.33,3.17-0.94c1.22-1.25,2.41-3.69,2.82-7.44C20.06,69.61,20.01,68.29,19.88,66.33
			z"/>
		<path class="st0" d="M7.77,7.2c0,0.05,0,0.08,0,0.12c0-0.02,0-0.04,0-0.06C7.77,7.24,7.77,7.22,7.77,7.2z"/>
		<path class="st0" d="M15.34,27.54c0,0.04,0,0.09-0.01,0.13c0-0.01,0-0.02,0-0.02c0-0.05,0-0.09,0.01-0.14
			C15.34,27.53,15.34,27.53,15.34,27.54z"/>
		<path class="st0" d="M15.34,27.47c0,0.04,0,0.08-0.01,0.12C15.34,27.42,15.35,27.36,15.34,27.47z"/>
	</g>
</g>
<g id="Layer_2">
	<g>
		<g>
			<path d="M5.27,60.66C6.24,62.94,7.3,65.19,8,67.57c0.35,1.19,0.84,2.35,1.05,3.58c0.21,1.24,0.64,2.45,0.68,3.71
				c-0.01-0.15,0.87-0.34,0.87-0.5c-0.04-1.23-0.44-2.4-0.67-3.6c-0.23-1.27-0.7-2.45-1.06-3.69c-0.7-2.38-1.75-4.64-2.73-6.91
				C6.15,60.19,5.25,60.62,5.27,60.66L5.27,60.66z"/>
		</g>
	</g>
	<g>
		<g>
			<path d="M10.05,71.33c0-3.42,1.01-6.7,1.78-10c0.37-1.58,0.82-3.22,1.42-4.73c0.32-0.8,0.6-1.62,0.89-2.43
				c0.15-0.41,0.32-0.82,0.48-1.22c0.13-0.32,0.22-0.71,0.41-1c-0.29,0.17-0.58,0.33-0.87,0.5c0,0.03,0.01,0.06,0.01,0.09
				c-0.02-0.12,0.88-0.37,0.87-0.5c0-0.03-0.01-0.06-0.01-0.09c0.01,0.1-0.79,0.38-0.87,0.5c-0.19,0.29-0.28,0.68-0.41,1
				c-0.16,0.41-0.34,0.81-0.48,1.22C13,55.45,12.73,56.23,12.43,57c-0.61,1.55-1.08,3.21-1.46,4.83c-0.77,3.3-1.78,6.57-1.78,10
				C9.19,71.67,10.05,71.5,10.05,71.33L10.05,71.33z"/>
		</g>
	</g>
	<g>
		<g>
			<path d="M10.1,41.75c-0.09-0.76,0.02-1.49,0.05-2.25c0.03-0.72,0.08-1.45,0.19-2.17c0.22-1.47,0.32-2.95,0.67-4.4
				c0.69-2.88,1.43-5.75,2.46-8.52c-0.09,0.24-0.77,0.25-0.87,0.5c-1.03,2.77-1.77,5.64-2.46,8.52c-0.34,1.41-0.43,2.86-0.65,4.29
				c-0.11,0.72-0.17,1.44-0.2,2.17c-0.03,0.79-0.15,1.56-0.06,2.35C9.22,42.13,10.12,41.89,10.1,41.75L10.1,41.75z"/>
		</g>
	</g>
	<g>
		<g>
			<path d="M10.15,39.1c-0.17-1.13-0.33-2.26-0.45-3.39c-0.13-1.15-0.41-2.28-0.66-3.41c-0.24-1.13-0.5-2.27-0.88-3.36
				c-0.33-0.96-0.67-1.96-1.29-2.76c-0.03-0.04-0.84,0.53-0.87,0.5c0.62,0.8,0.96,1.81,1.29,2.76c0.38,1.09,0.64,2.23,0.88,3.36
				c0.24,1.13,0.53,2.26,0.66,3.41c0.12,1.13,0.28,2.27,0.45,3.39C9.27,39.49,10.17,39.23,10.15,39.1L10.15,39.1z"/>
		</g>
	</g>
	<g>
		<g>
			<path d="M10.05,38.22c-0.02-3.54-0.19-7.08-0.2-10.63c-0.01-1.86-0.02-3.72,0-5.57c0.01-0.87,0.04-1.73,0.05-2.6
				c0-0.43,0-0.86,0.01-1.3c0.01-0.28,0.06-0.59-0.05-0.86c0.01,0.04-0.89,0.45-0.87,0.5c0.11,0.27,0.06,0.58,0.05,0.86
				c-0.01,0.39,0,0.79-0.01,1.18c-0.01,0.91-0.04,1.81-0.05,2.72c-0.02,1.86,0,3.72,0,5.57c0.01,3.54,0.18,7.08,0.2,10.63
				C9.19,38.57,10.05,38.39,10.05,38.22L10.05,38.22z"/>
		</g>
	</g>
	<g>
		<g>
			<path d="M10.35,53.5c-0.06-1.18-0.28-2.32-0.4-3.49c-0.12-1.2-0.32-2.38-0.54-3.56c-0.2-1.06-0.53-2.1-0.78-3.14
				c-0.26-1.09-0.95-2.2-1.56-3.13c-0.02-0.02-0.86,0.51-0.87,0.5c0.61,0.92,1.31,2.04,1.56,3.13c0.25,1.05,0.58,2.08,0.78,3.14
				c0.22,1.18,0.42,2.37,0.54,3.56c0.12,1.17,0.33,2.31,0.4,3.49C9.47,53.86,10.35,53.66,10.35,53.5L10.35,53.5z"/>
		</g>
	</g>
	<g>
		<g>
			<path d="M8.63,69.93C8.9,71.84,9,73.77,9.02,75.7c0.02,1.96-0.23,3.91-0.29,5.87c-0.05,1.78-0.13,3.55-0.17,5.32
				c-0.04,1.98-0.26,3.95-0.4,5.93c-0.16,2.33-0.4,4.67-0.4,7.01c0-0.16,0.87-0.33,0.87-0.5c0-2.03,0.14-4.1,0.34-6.13
				c0.2-2.03,0.24-4.07,0.43-6.1c0.16-1.75,0.11-3.52,0.2-5.27c0.1-1.93,0.2-3.86,0.29-5.79c0.05-1.02-0.04-2.06-0.07-3.08
				c-0.03-1.19-0.15-2.36-0.32-3.54C9.51,69.54,8.61,69.8,8.63,69.93L8.63,69.93z"/>
		</g>
	</g>
	<g>
		<g>
			<path d="M10.17,67.9c0,2.06-0.14,4.1-0.17,6.16c-0.03,2.28,0.03,4.55,0.07,6.82c0.04,1.94-0.13,3.87-0.17,5.8
				c-0.05,2.1-0.12,4.2-0.26,6.3c-0.16,2.42-0.16,4.85-0.16,7.27c0-0.16,0.87-0.33,0.87-0.5c0-4.27,0.28-8.52,0.38-12.79
				c0.05-1.94,0.22-3.88,0.21-5.82c-0.01-2.23-0.07-4.45-0.07-6.68c0-2.35,0.18-4.7,0.18-7.06C11.04,67.56,10.17,67.72,10.17,67.9
				L10.17,67.9z"/>
		</g>
	</g>
	<g>
		<g>
			<path d="M7.75,99.76c0.21,0.15,0.44,0.34,0.72,0.29c0.06-0.01,0.13-0.06,0.18-0.09c0.16-0.09,0.32-0.18,0.47-0.27
				c0.09-0.05,0.18-0.1,0.26-0.16c0.05-0.03,0.08-0.08,0.13-0.12c-0.29,0.17-0.58,0.33-0.87,0.5c0.06-0.03,0.12,0,0.19-0.01
				c0.08-0.02,0.16-0.08,0.22-0.11c0.25-0.14,0.5-0.28,0.74-0.43c-0.28,0.16-0.57,0.33-0.85,0.49c0.11-0.05,0.22-0.02,0.33-0.01
				c0.29-0.17,0.58-0.33,0.87-0.5c-0.26,0-0.46-0.22-0.67-0.36c-0.12-0.08-0.22-0.12-0.36-0.14c-0.15-0.01-0.21,0.02-0.34,0.1
				c-0.16,0.09-0.32,0.18-0.48,0.28c-0.07,0.04-0.17,0.08-0.22,0.14c-0.05,0.05,0,0.09,0.05,0.13c0.04,0.03,0.09,0.05,0.14,0.07
				c0.09,0.03,0.19,0.03,0.29,0.05c0.15,0.04,0.3,0.09,0.46,0.09c0.29-0.17,0.58-0.33,0.87-0.5c-0.38,0-0.76-0.03-1.14-0.07
				c-0.02,0-0.13,0.07-0.13,0.07c-0.1,0.06-0.2,0.12-0.31,0.18c-0.1,0.06-0.2,0.12-0.31,0.18c-0.02,0.01-0.1,0.08-0.13,0.08
				c0.05,0.01,0.08,0.04,0.13,0.06c0.06,0.02,0.12,0.02,0.18,0.03c0.12,0.02,0.23,0.07,0.34,0.11c0.11,0.03,0.21,0.05,0.31,0
				c0.25-0.12,0.49-0.28,0.72-0.42c0.06-0.04,0.12-0.05,0.13-0.12c0.01-0.04,0-0.08-0.03-0.11c-0.06-0.07-0.18-0.1-0.26-0.14
				c-0.21-0.11-0.45-0.24-0.63-0.4c-0.29,0.17-0.58,0.33-0.87,0.5c0.13-0.01,0.21,0.13,0.29,0.21c0.06,0.07,0.15,0.2,0.25,0.2
				c0.03,0,0.12-0.07,0.13-0.07c0.1-0.06,0.2-0.12,0.31-0.18c0.03-0.02,0.44-0.23,0.43-0.25c-0.05-0.15-0.18-0.16-0.29-0.26
				c-0.11-0.11-0.17-0.25-0.19-0.4c-0.03-0.22-0.05-0.59,0.1-0.78c-0.29,0.17-0.58,0.33-0.87,0.5c0.03,0.2,0,0.41,0.03,0.61
				C8.1,98.79,8.1,99.06,8.2,99.1c0.01,0,0.14-0.08,0.13-0.07c0.1-0.06,0.2-0.12,0.31-0.18c0.1-0.06,0.2-0.12,0.31-0.18
				c0.02-0.01,0.12-0.06,0.13-0.08c0.02-0.15-0.02-0.31-0.02-0.46c0-0.16,0-0.33-0.01-0.49c-0.01-0.31-0.04-0.63-0.09-0.94
				c-0.29,0.17-0.58,0.33-0.87,0.5c0.09,0.36,0.14,0.73,0.22,1.09c0.03,0.16,0.07,0.31,0.09,0.47c0.02,0.14,0.04,0.28,0.1,0.41
				c-0.01-0.02,0.8-0.43,0.87-0.5c0.05-0.06,0.04-0.18,0.04-0.26c0-0.15-0.02-0.3-0.04-0.45c-0.03-0.23-0.04-0.51-0.14-0.72
				c0,0-0.4,0.23-0.44,0.25c-0.1,0.06-0.2,0.12-0.31,0.18c-0.02,0.01-0.13,0.06-0.13,0.08c0.01,0.3,0.12,0.59,0.2,0.88
				c0.06,0.22,0.09,0.49,0.21,0.68c0.01,0.01,0.4-0.23,0.44-0.25c0.1-0.06,0.2-0.12,0.31-0.18c0.02-0.01,0.12-0.06,0.13-0.08
				c0.03-0.28-0.01-0.57-0.08-0.84c-0.04-0.15-0.07-0.4-0.2-0.51c-0.03-0.02-0.4,0.22-0.44,0.25c-0.1,0.06-0.2,0.12-0.31,0.18
				c-0.02,0.01-0.12,0.05-0.13,0.08c-0.06,0.25,0,0.53,0.04,0.78c0.04,0.23,0.04,0.52,0.17,0.72c0,0.01,0.4-0.23,0.44-0.25
				c0.1-0.06,0.2-0.12,0.31-0.18c0.02-0.01,0.12-0.05,0.13-0.08c0.03-0.14-0.04-0.31-0.08-0.44c-0.07-0.22-0.14-0.44-0.22-0.65
				c0,0.01-0.4,0.23-0.44,0.25c-0.04,0.02-0.44,0.23-0.43,0.25c0.09,0.29,0.22,0.57,0.36,0.84c0.03,0.06,0.09,0.21,0.17,0.22
				c0.07,0,0.2-0.1,0.24-0.13c0.2-0.11,0.4-0.22,0.59-0.34c0.18-0.11,0.13-0.34,0.11-0.52c-0.03-0.2-0.08-0.42-0.16-0.61
				c0,0-0.4,0.23-0.44,0.25c-0.1,0.06-0.2,0.12-0.31,0.18c-0.02,0.01-0.12,0.06-0.13,0.08C8.83,98.56,8.91,98.79,8.98,99
				c0.06,0.19,0.09,0.42,0.21,0.59c0.01,0.01,0.4-0.23,0.44-0.25c0.1-0.06,0.2-0.12,0.31-0.18c0.02-0.01,0.12-0.06,0.13-0.08
				c0.03-0.24-0.05-0.45-0.09-0.68c-0.03-0.17-0.03-0.38-0.14-0.52c-0.01-0.01-0.4,0.23-0.44,0.25c-0.1,0.06-0.2,0.12-0.31,0.18
				c-0.01,0.01-0.13,0.07-0.13,0.08c0.03,0.22,0.11,0.43,0.16,0.65c0.04,0.19,0.07,0.39,0.16,0.57c0,0,0.4-0.23,0.44-0.25
				c0.1-0.06,0.2-0.12,0.31-0.18c0.02-0.01,0.12-0.06,0.13-0.08c0.02-0.21-0.03-0.43-0.06-0.64c-0.04-0.29-0.08-0.58-0.14-0.87
				c0,0.02-0.4,0.22-0.44,0.25c-0.1,0.06-0.2,0.12-0.31,0.18c-0.02,0.01-0.13,0.06-0.13,0.08c0.01,0.14,0.06,0.26,0.08,0.4
				c0,0,0.15-0.08,0.13-0.07c0.1-0.06,0.2-0.12,0.31-0.18c0.1-0.06,0.2-0.12,0.31-0.18c0.02-0.01,0.13-0.06,0.13-0.08
				c-0.01-0.14-0.06-0.26-0.08-0.4c-0.29,0.17-0.58,0.33-0.87,0.5c0.06,0.29,0.09,0.58,0.14,0.87c0.03,0.21,0.08,0.43,0.06,0.64
				c0.29-0.17,0.58-0.33,0.87-0.5c-0.09-0.18-0.12-0.38-0.16-0.57c-0.05-0.22-0.13-0.43-0.16-0.65c-0.29,0.17-0.58,0.33-0.87,0.5
				c0.11,0.14,0.11,0.36,0.14,0.52c0.04,0.23,0.12,0.45,0.09,0.68c0.29-0.17,0.58-0.33,0.87-0.5c-0.11-0.17-0.15-0.39-0.21-0.59
				c-0.07-0.22-0.15-0.44-0.14-0.67c-0.29,0.17-0.58,0.33-0.87,0.5c0.07,0.18,0.12,0.37,0.15,0.56c0.02,0.13,0.1,0.43-0.04,0.53
				c0.28-0.16,0.57-0.33,0.85-0.49C9.67,99,9.28,97.94,9.26,97.87c-0.29,0.17-0.58,0.33-0.87,0.5c0.07,0.22,0.15,0.43,0.22,0.65
				c0.04,0.13,0.12,0.3,0.08,0.44c0.29-0.17,0.58-0.33,0.87-0.5c-0.13-0.21-0.13-0.49-0.17-0.72c-0.04-0.25-0.1-0.53-0.04-0.78
				c-0.29,0.17-0.58,0.33-0.87,0.5c0.13,0.1,0.16,0.36,0.2,0.51c0.07,0.28,0.11,0.56,0.08,0.84c0.29-0.17,0.58-0.33,0.87-0.5
				c-0.13-0.2-0.15-0.46-0.21-0.68c-0.08-0.29-0.19-0.57-0.2-0.88c-0.29,0.17-0.58,0.33-0.87,0.5c0.1,0.21,0.11,0.49,0.14,0.72
				c0.02,0.15,0.03,0.3,0.04,0.45c0,0.07,0.01,0.2-0.04,0.26c0.29-0.17,0.58-0.33,0.87-0.5c-0.06-0.12-0.07-0.26-0.09-0.39
				c-0.03-0.16-0.06-0.33-0.1-0.49c-0.08-0.36-0.13-0.73-0.22-1.09c0,0.01-0.4,0.23-0.44,0.25c-0.1,0.06-0.2,0.12-0.31,0.18
				c-0.01,0.01-0.13,0.07-0.13,0.08c0.05,0.31,0.07,0.63,0.09,0.94c0.01,0.15,0,0.31,0.01,0.46c0,0.16,0.04,0.33,0.02,0.49
				c0.29-0.17,0.58-0.33,0.87-0.5c-0.09-0.04-0.09-0.31-0.11-0.39c-0.03-0.2,0-0.41-0.03-0.61c0,0.02-0.4,0.22-0.44,0.25
				c-0.1,0.06-0.2,0.12-0.31,0.18c-0.04,0.02-0.1,0.04-0.13,0.08c-0.15,0.19-0.13,0.55-0.1,0.78c0.02,0.16,0.08,0.29,0.19,0.4
				c0.1,0.1,0.23,0.11,0.29,0.26c0.29-0.17,0.58-0.33,0.87-0.5c-0.1,0-0.19-0.13-0.25-0.2c-0.08-0.08-0.17-0.22-0.29-0.21
				c-0.03,0-0.12,0.06-0.13,0.07c-0.1,0.06-0.2,0.12-0.31,0.18c-0.04,0.02-0.41,0.27-0.43,0.25c0.16,0.15,0.37,0.25,0.57,0.36
				c0.15,0.09,0.39,0.12,0.34,0.33c0.29-0.17,0.58-0.33,0.87-0.5c-0.17,0.07-0.33-0.02-0.49-0.08c-0.08-0.03-0.16-0.03-0.24-0.05
				c-0.08-0.01-0.14-0.06-0.22-0.08c-0.29,0.17-0.58,0.33-0.87,0.5c0.38,0.04,0.76,0.07,1.14,0.07c0.03,0,0.12-0.07,0.13-0.07
				c0.1-0.06,0.2-0.12,0.31-0.18c0.1-0.06,0.2-0.12,0.31-0.18c0.03-0.02,0.1-0.08,0.13-0.08c-0.21-0.01-0.39-0.09-0.6-0.12
				c-0.08-0.01-0.47-0.11-0.32-0.23c-0.29,0.17-0.58,0.33-0.87,0.5c0.07-0.03,0.17-0.01,0.24,0c0.13,0.02,0.24,0.1,0.34,0.17
				c0.19,0.13,0.37,0.31,0.61,0.32c0.02,0,0.12-0.07,0.13-0.07c0.1-0.06,0.2-0.12,0.31-0.18c0.1-0.06,0.2-0.12,0.31-0.18
				c0.03-0.02,0.1-0.08,0.13-0.08c-0.07,0-0.14-0.02-0.21-0.02c-0.08,0-0.14,0.04-0.21,0.08c-0.27,0.15-0.55,0.31-0.82,0.48
				c0.28-0.16,0.57-0.33,0.85-0.49c-0.08,0.04-0.16,0-0.23,0.03c-0.13,0.05-0.26,0.14-0.38,0.21c-0.16,0.09-0.33,0.17-0.47,0.28
				c-0.05,0.04-0.09,0.09-0.14,0.13c0.29-0.17,0.58-0.33,0.87-0.5C9.29,99.57,9.11,99.55,9,99.51c-0.14-0.05-0.26-0.16-0.38-0.25
				c-0.03-0.02-0.39,0.22-0.44,0.25c-0.1,0.06-0.2,0.12-0.31,0.18C7.87,99.69,7.76,99.76,7.75,99.76L7.75,99.76z"/>
		</g>
	</g>
	<g>
		<g>
			<path d="M8.54,68.76c0.02,0.33,0.07,0.75,0.44,0.69c0.2-0.03,0.56-0.29,0.72-0.42c0.31-0.24,0.24-0.58,0.24-0.96
				c0.01-0.45,0.02-0.89,0.03-1.34c0.02-1.06-0.04-2.12-0.03-3.18c0.01-1.14-0.04-2.29-0.04-3.43c0.01-2.29,0.1-4.58,0.11-6.86
				c0.01-2.17-0.12-4.34-0.16-6.51c0,0.15-0.87,0.33-0.87,0.5c0.03,1.88,0.06,3.76,0.14,5.64c0.08,1.85-0.03,3.74-0.07,5.59
				c-0.04,1.97,0.06,3.94,0.01,5.9c-0.02,0.86,0.03,1.71,0.04,2.56c0,0.39-0.01,0.79-0.02,1.18c0,0.4,0.07,0.97-0.13,1.32
				c0.28-0.16,0.57-0.33,0.85-0.49c-0.33,0.16-0.4-0.52-0.41-0.7C9.42,68.4,8.54,68.61,8.54,68.76L8.54,68.76z"/>
		</g>
	</g>
	<g>
		<g>
			<path d="M10.99,68.09c-0.16-1.87-0.1-3.77-0.13-5.65c-0.03-2-0.04-3.99-0.04-5.99c0-1.95-0.01-3.88-0.06-5.83
				c-0.05-1.82,0.02-3.68-0.19-5.5c0.02,0.14-0.84,0.34-0.87,0.5c-0.01,0.03-0.01,0.06-0.02,0.09c0.04-0.21,0.83-0.28,0.87-0.5
				c0.01-0.03,0.01-0.06,0.02-0.09c-0.29,0.17-0.58,0.33-0.87,0.5c0.21,1.81,0.14,3.67,0.19,5.5c0.05,1.94,0.06,3.88,0.06,5.83
				c0,2,0.01,3.99,0.04,5.99c0.03,1.88-0.03,3.78,0.13,5.65C10.12,68.45,11.01,68.23,10.99,68.09L10.99,68.09z"/>
		</g>
	</g>
	<g>
		<g>
			<path d="M10.36,66.29c0.22-1.27,0.49-2.54,0.81-3.79c0.31-1.24,0.71-2.45,1.06-3.67c0.37-1.29,0.87-2.56,1.39-3.8
				c0.26-0.62,0.53-1.24,0.82-1.84c0.22-0.45,0.42-1.11,0.8-1.45c-0.24,0.22-0.62,0.28-0.87,0.5c-0.36,0.32-0.55,0.93-0.75,1.35
				c-0.3,0.61-0.55,1.23-0.83,1.84c-0.56,1.25-1.05,2.58-1.43,3.9c-0.34,1.19-0.73,2.35-1.03,3.56c-0.32,1.29-0.61,2.59-0.84,3.91
				C9.52,66.58,10.32,66.5,10.36,66.29L10.36,66.29z"/>
		</g>
	</g>
	<g>
		<g>
			<path d="M10.9,64.06c0.2-0.86,0.47-1.69,0.73-2.54c0.26-0.84,0.43-1.7,0.65-2.55c0.21-0.81,0.53-1.6,0.8-2.4
				c0.25-0.74,0.61-1.43,0.88-2.16c-0.03,0.07-0.36,0.2-0.44,0.25c-0.08,0.05-0.4,0.16-0.43,0.25c-0.26,0.73-0.63,1.42-0.88,2.16
				c-0.27,0.79-0.58,1.59-0.8,2.4c-0.23,0.85-0.4,1.71-0.65,2.55c-0.26,0.85-0.53,1.67-0.73,2.54c0.01-0.06,0.38-0.21,0.44-0.25
				C10.54,64.28,10.88,64.14,10.9,64.06L10.9,64.06z"/>
		</g>
	</g>
	<g>
		<g>
			<path d="M9.85,47.62C10,45.6,9.99,43.56,10,41.53c0.01-1.8,0.04-3.57-0.08-5.36c0.01,0.14-0.88,0.35-0.87,0.5
				c0.12,1.79,0.09,3.57,0.08,5.36c-0.01,2.02,0,4.07-0.15,6.09C9,47.94,9.83,47.82,9.85,47.62L9.85,47.62z"/>
		</g>
	</g>
	<g>
		<g>
			<path d="M10.73,47.79c-0.06-1.15-0.09-2.31-0.13-3.46c-0.04-1.2-0.17-2.4-0.22-3.6c-0.04-1.1-0.05-2.19-0.16-3.29
				c-0.11-1.16-0.3-2.35-0.29-3.51c-0.29,0.17-0.58,0.33-0.87,0.5c0,0.01,0.01,0.02,0.01,0.02c0,0.01,0.87-0.49,0.87-0.5
				c0-0.01-0.01-0.02-0.01-0.02c0.02,0.03-0.87,0.42-0.87,0.5c-0.01,1.13,0.17,2.29,0.28,3.41c0.11,1.13,0.12,2.26,0.17,3.39
				c0.05,1.17,0.17,2.33,0.21,3.5c0.04,1.19,0.07,2.37,0.13,3.56C9.85,48.14,10.73,47.95,10.73,47.79L10.73,47.79z"/>
		</g>
	</g>
	<g>
		<g>
			<path d="M10.38,51.7c-0.07-0.87-0.07-1.74-0.09-2.61c-0.02-0.9-0.1-1.79-0.13-2.69c-0.03-0.85-0.1-1.7-0.1-2.55
				c-0.01-0.61-0.07-1.34,0.04-1.94c-0.29,0.17-0.58,0.33-0.87,0.5c0.15,0.15,0.09,0.6,0.1,0.78c0.03,0.49,0.06,0.99,0.09,1.48
				c0.05,1.01,0.05,2.02,0.02,3.02c-0.04,1.87,0.12,3.73,0.12,5.59c0,0.97-0.14,1.93-0.14,2.9c0,0.97-0.03,1.95-0.02,2.92
				c0.02,1.88-0.12,3.74-0.16,5.62c-0.03,1.88-0.2,3.75-0.25,5.62c0.29-0.17,0.58-0.33,0.87-0.5c-0.01-0.04-0.02-0.08-0.02-0.12
				c0.02,0.1-0.89,0.38-0.87,0.5c0.01,0.04,0.02,0.08,0.02,0.12c-0.02-0.12,0.86-0.36,0.87-0.5c0.04-1.64,0.18-3.27,0.24-4.91
				c0.07-1.85,0.17-3.7,0.18-5.55c0.01-0.97-0.05-1.94-0.01-2.91c0.04-0.98,0.12-1.96,0.15-2.95c0.06-1.85-0.09-3.71-0.12-5.56
				c-0.02-1.12,0.05-2.24,0.01-3.36c-0.02-0.52-0.05-1.04-0.08-1.56c-0.02-0.26,0.08-0.94-0.13-1.15c-0.01-0.01-0.85,0.44-0.87,0.5
				c-0.11,0.57-0.04,1.25-0.04,1.83c0,0.88,0.08,1.77,0.1,2.65c0.03,0.86,0.12,1.72,0.13,2.58c0.01,0.91,0.01,1.81,0.09,2.71
				C9.51,52.07,10.4,51.85,10.38,51.7L10.38,51.7z"/>
		</g>
	</g>
	<g>
		<g>
			<path d="M8.01,67.66c0.2,0.43,0.28,1.06,0.63,1.39c0.04,0.03,0.77-0.44,0.85-0.49c0.32-0.22,0.29-0.88,0.34-1.24
				c0.09-0.56,0.16-1.1,0.19-1.67c0.08-1.32,0.11-2.64,0.17-3.96c0.13-2.57,0.26-5.16,0.3-7.73c-0.29,0.17-0.58,0.33-0.87,0.5
				c0.01,2.55-0.14,5.09-0.07,7.64c0.03,1.22,0.08,2.44,0.05,3.67c-0.02,0.7-0.01,1.41-0.03,2.11c-0.02,0.5,0.06,1.18-0.09,1.66
				c0.29-0.17,0.58-0.33,0.87-0.5c-0.11-0.61-0.06-1.26-0.06-1.87c0-0.76-0.06-1.53-0.07-2.29c0,0.16-0.86,0.32-0.87,0.5
				c-0.02,0.78-0.11,1.55-0.17,2.33c-0.03,0.39-0.07,0.78-0.1,1.18c-0.02,0.26,0.03,0.99-0.23,1.16c0.28-0.16,0.57-0.33,0.85-0.49
				c-0.11-0.47-0.06-1,0-1.47c-0.29,0.17-0.58,0.33-0.87,0.5c0,0.34,0.08,0.78-0.01,1.11c0.29-0.17,0.58-0.33,0.87-0.5
				c-0.17-0.28-0.1-0.65-0.28-0.93c0.01,0.02-0.88,0.45-0.87,0.5c0.06,0.31,0.14,0.6,0.17,0.91c0.01,0.14-0.02,0.35,0.02,0.47
				c-0.02-0.06,0.89-0.43,0.87-0.5c-0.04-0.13-0.01-0.33-0.02-0.47c-0.03-0.31-0.11-0.6-0.17-0.91c-0.29,0.17-0.58,0.33-0.87,0.5
				c0.18,0.28,0.11,0.65,0.28,0.93c-0.01-0.02,0.84-0.42,0.87-0.5c0.09-0.33,0-0.77,0.01-1.11c0,0.17-0.84,0.31-0.87,0.5
				c-0.05,0.47-0.1,1.01,0,1.47c-0.01-0.04,0.77-0.44,0.85-0.49c0.21-0.14,0.2-0.52,0.23-0.74c0.05-0.46,0.08-0.92,0.12-1.38
				c0.07-0.86,0.16-1.71,0.18-2.57c-0.29,0.17-0.58,0.33-0.87,0.5c0,0.76,0.06,1.53,0.07,2.29c0,0.61-0.05,1.26,0.06,1.87
				c-0.02-0.11,0.82-0.36,0.87-0.5c0.14-0.44,0.06-1.07,0.08-1.54c0.03-0.7,0.02-1.41,0.04-2.11c0.03-1.26-0.02-2.52-0.05-3.79
				c-0.07-2.55,0.08-5.09,0.07-7.64c0,0.16-0.86,0.32-0.87,0.5c-0.04,2.51-0.18,5.01-0.29,7.52c-0.05,1.23-0.07,2.47-0.15,3.7
				c-0.04,0.55-0.04,1.11-0.13,1.65c-0.06,0.37-0.06,1.48-0.4,1.71c0.28-0.16,0.57-0.33,0.85-0.49c-0.35-0.34-0.43-0.96-0.63-1.39
				C8.88,67.18,7.99,67.63,8.01,67.66L8.01,67.66z"/>
		</g>
	</g>
	<g>
		<g>
			<path d="M10.25,71.36c0.05-0.83,0.04-1.66,0.06-2.49c0.01-0.41,0.03-0.82,0.06-1.23c0.02-0.24-0.01-0.61,0.1-0.84
				c-0.29,0.17-0.58,0.33-0.87,0.5c0.09,0.88-0.03,1.79-0.06,2.67c-0.03,0.89-0.1,1.82-0.02,2.7c0-0.03,0.4-0.22,0.44-0.25
				c0.1-0.06,0.37-0.15,0.43-0.25c0.11-0.2,0.06-0.63,0.07-0.85c0.02-0.51,0.02-1.02,0.02-1.53c0-0.5,0-1,0.01-1.51
				c0.01-0.22,0.02-0.44,0.03-0.65c0-0.11-0.01-0.22,0.02-0.32c-0.29,0.17-0.58,0.33-0.87,0.5c0.08,1.62-0.14,3.25-0.06,4.87
				c0-0.03,0.39-0.22,0.44-0.25c0.08-0.05,0.4-0.16,0.43-0.25c0.08-0.24,0.04-0.52,0.05-0.77c0.01-0.39,0.02-0.79,0.02-1.18
				c0.01-0.68,0.1-1.43-0.01-2.11c0,0.02-0.4,0.22-0.44,0.25c-0.06,0.04-0.42,0.18-0.43,0.25c-0.07,0.43-0.02,0.89-0.03,1.33
				c-0.01,0.44-0.04,0.89-0.01,1.33c0-0.03,0.39-0.22,0.44-0.25c0.06-0.04,0.42-0.18,0.43-0.25c0.08-0.48,0.08-0.99,0.09-1.47
				c0.02-0.5,0.07-1.01,0.03-1.51c0,0.03-0.39,0.22-0.44,0.25c-0.07,0.04-0.42,0.18-0.43,0.25c-0.09,0.44-0.04,0.92-0.05,1.37
				c-0.01,0.53-0.04,1.06-0.05,1.58c0-0.04,0.39-0.22,0.44-0.25c0.06-0.04,0.42-0.18,0.43-0.25c0.13-0.75,0.1-1.53,0.19-2.28
				c-0.29,0.17-0.58,0.33-0.87,0.5c-0.06,0.79-0.11,1.59-0.15,2.39c-0.02,0.34-0.06,0.71-0.03,1.05c0.01,0.16,0.02,0.31,0,0.48
				c-0.01,0.1-0.1,0.37-0.02,0.45c0.01,0,0.01-0.01,0.02-0.01c0.24-0.12,0.48-0.27,0.71-0.41c0.09-0.05,0.15-0.07,0.18-0.15
				c0.05-0.1,0.03-0.29,0.04-0.4c0.01-0.32,0.02-0.63,0.03-0.95c0-0.19-0.04-0.5,0.04-0.68c-0.29,0.17-0.58,0.33-0.87,0.5
				c0.04,0.72,0.03,1.44,0.03,2.17c0.29-0.17,0.58-0.33,0.87-0.5c-0.01-0.28-0.11-0.57-0.09-0.85c-0.29,0.17-0.58,0.33-0.87,0.5
				c0.09,0.34-0.01,0.74,0,1.09c0-0.04,0.39-0.22,0.44-0.25c0.05-0.03,0.43-0.2,0.43-0.25c0-1.86-0.07-3.73,0.09-5.58
				c0,0.05-0.39,0.22-0.44,0.25c-0.06,0.03-0.42,0.19-0.43,0.25c-0.16,1.85-0.09,3.72-0.09,5.58c0.29-0.17,0.58-0.33,0.87-0.5
				c0-0.35,0.09-0.75,0-1.09c0,0.01-0.4,0.23-0.44,0.25c-0.06,0.03-0.43,0.19-0.43,0.25c-0.02,0.28,0.08,0.57,0.09,0.85
				c0-0.03,0.39-0.22,0.44-0.25c0.05-0.03,0.43-0.2,0.43-0.25c0-0.72,0.01-1.44-0.03-2.17c0,0.03-0.39,0.22-0.44,0.25
				c-0.09,0.05-0.39,0.15-0.43,0.25c-0.05,0.1-0.03,0.23-0.03,0.34c-0.01,0.21-0.01,0.42-0.01,0.63c-0.01,0.35,0.03,0.78-0.07,1.12
				c0.28-0.16,0.57-0.33,0.85-0.49c-0.07,0.04,0-0.37,0-0.39c0.02-0.16,0.03-0.32,0.01-0.48c-0.03-0.36,0.01-0.74,0.03-1.1
				c0.04-0.8,0.1-1.59,0.15-2.39c0,0.04-0.39,0.22-0.44,0.25c-0.06,0.04-0.42,0.18-0.43,0.25c-0.09,0.75-0.06,1.53-0.19,2.28
				c0.29-0.17,0.58-0.33,0.87-0.5c0.02-0.53,0.04-1.06,0.05-1.58c0.01-0.45-0.03-0.93,0.05-1.37c-0.29,0.17-0.58,0.33-0.87,0.5
				c0.04,0.5-0.02,1.01-0.03,1.51c-0.02,0.49-0.02,0.99-0.09,1.47c0.29-0.17,0.58-0.33,0.87-0.5c-0.03-0.44-0.01-0.89,0.01-1.33
				c0.01-0.44-0.03-0.9,0.03-1.33c-0.29,0.17-0.58,0.33-0.87,0.5c0.11,0.68,0.02,1.42,0.01,2.11c-0.01,0.37-0.01,0.74-0.02,1.12
				c-0.01,0.27,0.04,0.57-0.05,0.83c0.29-0.17,0.58-0.33,0.87-0.5c-0.08-1.62,0.14-3.25,0.06-4.87c0,0.03-0.39,0.22-0.44,0.25
				c-0.08,0.05-0.4,0.16-0.43,0.25c-0.09,0.26-0.04,0.65-0.05,0.92c-0.02,0.52-0.02,1.05-0.02,1.57c0,0.49,0,0.98-0.02,1.47
				C9.58,72,9.64,72.46,9.52,72.67c0.29-0.17,0.58-0.33,0.87-0.5c-0.08-0.89-0.01-1.81,0.02-2.7c0.03-0.88,0.15-1.8,0.06-2.67
				c0,0.03-0.4,0.22-0.44,0.25C9.94,67.1,9.65,67.2,9.6,67.3c-0.1,0.21-0.08,0.55-0.09,0.78c-0.03,0.43-0.05,0.86-0.06,1.29
				c-0.02,0.83-0.01,1.66-0.06,2.49c0-0.04,0.39-0.22,0.44-0.25C9.87,71.58,10.24,71.42,10.25,71.36L10.25,71.36z"/>
		</g>
	</g>
	<g>
		<g>
			<path d="M9.26,97.48c0.27-2.13,0.31-4.27,0.47-6.41c0.17-2.21,0.23-4.45,0.31-6.66c0.08-2.16,0.14-4.33,0.23-6.49
				c0.08-1.96-0.13-3.88-0.19-5.83c-0.29,0.17-0.58,0.33-0.87,0.5c0.15,4.3-0.31,8.59-0.19,12.88c0.06,2.11-0.3,4.2-0.45,6.3
				c-0.07,1.04-0.14,2.09-0.17,3.14c-0.02,0.84,0.1,1.85-0.12,2.67c0.27-0.16,0.54-0.31,0.81-0.47c-0.18,0.1-0.09-0.72-0.08-0.85
				c0.02-0.56,0.04-1.11,0.06-1.67c0.04-1.05,0.17-2.08,0.26-3.13c0.17-2.12,0.28-4.24,0.42-6.36c0.13-2.02,0.33-4.03,0.53-6.04
				c0.19-1.92,0.25-3.85,0.39-5.78c-0.29,0.17-0.58,0.33-0.87,0.5c0.23,0.77,0.06,1.75,0.04,2.54c-0.03,1.11-0.13,2.23-0.17,3.34
				c-0.09,2.16-0.15,4.31-0.24,6.47c-0.1,2.2-0.19,4.41-0.29,6.61c-0.05,1.07-0.11,2.14-0.13,3.21c-0.02,0.9,0.02,1.85-0.08,2.74
				c0.29-0.17,0.58-0.33,0.87-0.5c-0.29-0.67-0.42-1.57-0.34-2.29c-0.29,0.17-0.58,0.33-0.87,0.5c-0.04,0.63,0.07,1.29,0.09,1.92
				c0-0.16,0.86-0.33,0.87-0.5c0-0.71,0.02-1.43,0.04-2.14c0.01-0.59-0.04-1.3,0.13-1.88c-0.29,0.17-0.58,0.33-0.87,0.5
				c0.17,0.53,0.13,1.16,0.16,1.72c0.04,0.63,0.13,1.26,0.16,1.88c-0.01-0.16,0.83-0.32,0.87-0.5c0.13-0.73,0.01-1.55,0.03-2.3
				c0.02-0.77,0.07-1.53,0.11-2.3c0.07-1.61,0.08-3.23,0.14-4.84c0.06-1.58,0.19-3.15,0.3-4.72c0.11-1.54,0.34-3.2,0.12-4.73
				c0.02,0.13-0.86,0.35-0.87,0.5c-0.1,3.27-0.32,6.53-0.55,9.79c-0.12,1.63-0.21,3.27-0.25,4.91c-0.02,0.85-0.03,1.7-0.04,2.54
				c0,0.4,0,0.81,0,1.21c0,0.39-0.09,0.83,0,1.21c-0.02-0.09,0.89-0.4,0.87-0.5c-0.09-0.42-0.03-0.96,0.05-1.38
				c-0.29,0.17-0.58,0.33-0.87,0.5c0.11,0.31,0.16,0.66,0.19,0.99c0.29-0.17,0.58-0.33,0.87-0.5c-0.12-0.55-0.2-1.3-0.12-1.86
				c-0.29,0.17-0.58,0.33-0.87,0.5c0.08,0.41,0.13,0.82,0.16,1.23c-0.01-0.14,0.88-0.35,0.87-0.5c0-0.06-0.01-0.12-0.01-0.18
				c0.01,0.14-0.88,0.35-0.87,0.5c0,0.06,0.01,0.12,0.01,0.18c0.29-0.17,0.58-0.33,0.87-0.5c-0.03-0.41-0.09-0.82-0.16-1.23
				c0.02,0.12-0.85,0.36-0.87,0.5c-0.08,0.56,0,1.31,0.12,1.86c-0.02-0.1,0.88-0.38,0.87-0.5c-0.04-0.32-0.09-0.68-0.19-0.99
				c0.03,0.07-0.84,0.39-0.87,0.5c-0.08,0.42-0.14,0.96-0.05,1.38c0.29-0.17,0.58-0.33,0.87-0.5c-0.08-0.34-0.01-0.74,0-1.09
				c0-0.4,0-0.81,0-1.21c0-0.85,0.01-1.7,0.03-2.54c0.04-1.68,0.14-3.35,0.26-5.03c0.23-3.26,0.46-6.52,0.55-9.79
				c-0.29,0.17-0.58,0.33-0.87,0.5c0.22,1.5-0.01,3.11-0.11,4.62c-0.11,1.61-0.25,3.22-0.31,4.84c-0.06,1.57-0.06,3.15-0.13,4.73
				c-0.03,0.77-0.09,1.53-0.11,2.3c-0.02,0.78,0.1,1.64-0.04,2.41c0.29-0.17,0.58-0.33,0.87-0.5c-0.03-0.63-0.11-1.26-0.16-1.88
				c-0.04-0.56,0-1.18-0.16-1.72c0.02,0.08-0.83,0.38-0.87,0.5c-0.16,0.57-0.12,1.29-0.13,1.88c-0.02,0.71-0.03,1.43-0.04,2.14
				c0.29-0.17,0.58-0.33,0.87-0.5c-0.01-0.63-0.13-1.29-0.09-1.92c-0.01,0.18-0.84,0.3-0.87,0.5c-0.08,0.72,0.05,1.62,0.34,2.29
				c-0.02-0.05,0.85-0.4,0.87-0.5c0.1-0.89,0.06-1.84,0.08-2.74c0.02-1.07,0.08-2.14,0.13-3.21c0.11-2.2,0.2-4.4,0.29-6.61
				c0.1-2.16,0.16-4.31,0.24-6.47c0.05-1.11,0.14-2.23,0.17-3.34c0.02-0.78,0.19-1.78-0.04-2.54c0.03,0.09-0.86,0.38-0.87,0.5
				c-0.14,1.92-0.2,3.85-0.39,5.78c-0.2,2.01-0.4,4.02-0.53,6.04c-0.14,2.12-0.25,4.24-0.42,6.36c-0.08,1.04-0.22,2.08-0.26,3.13
				c-0.02,0.56-0.04,1.11-0.06,1.67c-0.01,0.17-0.01,0.34-0.02,0.51c-0.02,0.25-0.05,0.2,0.11,0.34c0.02-0.01,0.04-0.02,0.06-0.03
				c0.23-0.13,0.54-0.25,0.74-0.42c0.24-0.22,0.2-0.56,0.21-0.9c0.03-1.07,0.04-2.14,0.09-3.21c0.12-2.27,0.44-4.52,0.55-6.79
				c0.06-1.23-0.02-2.47-0.01-3.7c0.01-1.16,0.06-2.33,0.11-3.49c0.1-2.33,0.18-4.65,0.1-6.98c0.01,0.15-0.87,0.34-0.87,0.5
				c0.06,1.91,0.26,3.8,0.19,5.72c-0.08,2.2-0.15,4.4-0.23,6.6c-0.08,2.18-0.14,4.37-0.3,6.54c-0.16,2.18-0.21,4.36-0.48,6.53
				C8.42,97.78,9.24,97.68,9.26,97.48L9.26,97.48z"/>
		</g>
	</g>
	<g>
		<path class="st1" d="M39.16,70.46c-0.23-2.79-1.03-4.89-2.02-5.82c0.78-3.14,0.53-5.68,0.11-8.17c-0.29-1.23-0.7-2.2-1.17-2.97
			c-0.21-0.29-0.42-0.55-0.61-0.88c-0.07-0.17-0.1-0.23-0.1-0.19c0,0,0-0.01,0-0.01c0-0.47,0-0.94,0.02-1.42
			c0.03-0.34,0.06-0.67,0.11-1c0.01-0.05,0.02-0.1,0.03-0.16c0.39-2.08,0.83-4.21,0.78-6.59c-0.04-1.91-0.26-3.86-0.82-5.18
			c-0.26-0.6-0.56-1.03-0.88-1.37c0-0.03,0-0.06,0-0.09c0,0.02,0,0.06,0,0.09c0,0,0,0,0,0c0-0.07,0.01-0.15,0.01-0.22
			c0,0.02,0,0.04,0,0.06c0,0.04,0,0.09-0.01,0.13c0-0.04,0-0.07,0.01-0.11c0,0.04-0.01,0.08-0.01,0.13
			c0.02-0.36,0.04-0.72,0.06-1.08c-0.01,0.27-0.03,0.54-0.04,0.81c0-0.02,0-0.03,0-0.04c0.02-0.38,0.04-0.76,0.06-1.15
			c0.09-2.83-0.21-5.79-0.96-7.91c-0.4-1.26-0.94-2.27-1.55-2.61c0.05,0.02,0.05,0.02-0.06-0.06c-0.02-0.01-0.03-0.02-0.05-0.03
			c0-0.02,0-0.02,0-0.04c-0.01-0.12-0.02-0.24-0.03-0.36c-0.01-0.19-0.01-0.38-0.02-0.56c-0.01-0.39-0.03-0.73-0.04-0.85
			c-0.1-2.48-0.11-3.37-0.64-6.53c0-0.02-0.02-0.12-0.06-0.35c-0.01-0.06-0.02-0.12-0.03-0.19c0,0,0,0,0-0.01c0,0,0,0,0,0
			c-0.24-1.42-0.62-2.79-1.21-3.3c-0.65-0.43-1.37,0.08-1.95,0.9c-0.65,1.11-0.99,3.09-1.03,5.05c0,0.08,0,0.15,0,0.21
			c0-0.08,0.01-0.19,0.02-0.3c-0.01,0.12-0.01,0.23-0.02,0.35c-0.01,0.19-0.01,0.18,0,0.05c-0.04,0.8-0.07,1.61-0.07,2.41
			c-0.13,0.1-0.26,0.21-0.39,0.31c-0.02,0.02-0.05,0.04-0.08,0.06c-0.01,0-0.01,0.01-0.02,0.01c-0.01,0.01-0.02,0.01-0.03,0.02
			c0.01,0,0.01-0.01,0.02-0.01c-0.28,0.2-0.52,0.55-0.7,0.96c0-0.01,0-0.01,0.01-0.02c0,0.01-0.01,0.01-0.01,0.02
			c0,0.01-0.01,0.01-0.01,0.02c-0.01,0.02-0.01,0.02-0.02,0.04c-0.29,0.63-0.55,1.31-0.73,2.06c-0.41,2.4-0.87,5.01-0.53,7.52
			c0.09,1.39,0.29,2.85,0.76,3.93c-0.36,0.07-0.7,0.24-1.03,0.69c-1.46,1.97-1.56,6.95-0.74,10.24c0.13,0.58,0.29,1.09,0.46,1.6
			c-0.02,0.01-0.04,0.02-0.06,0.03c-0.08,0.02-0.15,0.05-0.23,0.07c-1.81,0.34-3.66,2.3-3.51,7.78c0.06,3.12,0.82,5.56,1.65,7.68
			c-0.82,1.35-1.74,2.44-2.23,4.7c-0.87,4.38,0.4,9.14,1.87,11.37c1.61,2.31,3.56,2.97,5.37,2.28c-0.16,0.06-0.32,0.12-0.13,0.06
			c1.11-0.23,2.21,0.49,3.31,0.47c2.05-0.34,0.81-0.54,3.2-0.74c1.06-0.28,2.13-0.29,3.17-0.83c1.22-1.09,2.41-3.24,2.82-6.53
			C39.34,73.35,39.29,72.19,39.16,70.46z"/>
		<path class="st1" d="M27.05,18.58c0,0.04,0,0.07,0,0.1c0-0.02,0-0.03,0-0.05C27.05,18.61,27.05,18.6,27.05,18.58z"/>
		<path class="st1" d="M34.61,36.43c0,0.04,0,0.08-0.01,0.12c0-0.01,0-0.02,0-0.02c0-0.04,0-0.08,0.01-0.12
			C34.61,36.42,34.61,36.42,34.61,36.43z"/>
		<path class="st1" d="M34.62,36.37c0,0.03,0,0.07-0.01,0.1C34.62,36.33,34.62,36.28,34.62,36.37z"/>
	</g>
	<g>
		<g>
			<path d="M24.55,65.53c0.5,1.01,1.11,1.99,1.5,3.06c0.41,1.11,0.91,2.18,1.32,3.28c0.36,0.98,0.75,1.93,0.97,2.95
				c0.22,1.06,0.6,2.07,0.67,3.16c-0.01-0.14,0.88-0.34,0.87-0.5c-0.06-1.05-0.41-2.05-0.64-3.07c-0.24-1.05-0.61-2.03-0.99-3.05
				c-0.4-1.08-0.89-2.11-1.29-3.19c-0.4-1.1-1.02-2.11-1.54-3.16C25.42,65.04,24.53,65.5,24.55,65.53L24.55,65.53z"/>
		</g>
	</g>
	<g>
		<g>
			<path d="M29.33,74.82c0-3.02,1.01-5.88,1.78-8.76c0.37-1.4,0.83-2.86,1.43-4.18c0.32-0.71,0.6-1.43,0.89-2.15
				c0.24-0.6,0.5-1.41,0.88-1.92c-0.29,0.17-0.58,0.33-0.87,0.5c0,0.03,0.01,0.05,0.01,0.08c-0.02-0.12,0.88-0.37,0.87-0.5
				c0-0.03-0.01-0.05-0.01-0.08c0.01,0.09-0.79,0.4-0.87,0.5c-0.39,0.52-0.64,1.32-0.88,1.92c-0.28,0.68-0.55,1.37-0.85,2.05
				c-0.61,1.36-1.09,2.84-1.47,4.28c-0.77,2.88-1.78,5.74-1.78,8.76C28.46,75.16,29.33,75,29.33,74.82L29.33,74.82z"/>
		</g>
	</g>
	<g>
		<g>
			<path d="M29.38,48.87c-0.09-0.64,0.02-1.25,0.05-1.89c0.03-0.63,0.07-1.27,0.17-1.88c0.24-1.36,0.35-2.74,0.72-4.07
				c0.7-2.5,1.42-4.98,2.43-7.37c-0.1,0.24-0.76,0.25-0.87,0.5c-1.01,2.38-1.73,4.87-2.43,7.37c-0.37,1.3-0.47,2.65-0.7,3.97
				c-0.11,0.62-0.16,1.25-0.19,1.87c-0.03,0.67-0.15,1.32-0.06,2C28.5,49.25,29.4,49,29.38,48.87L29.38,48.87z"/>
		</g>
	</g>
	<g>
		<g>
			<path d="M29.43,46.55c-0.17-0.99-0.33-1.99-0.45-2.98c-0.14-1.07-0.45-2.11-0.7-3.16c-0.23-0.97-0.5-1.94-0.88-2.87
				c-0.33-0.82-0.67-1.67-1.25-2.33c-0.05-0.06-0.83,0.54-0.87,0.5c0.57,0.64,0.89,1.45,1.22,2.24c0.39,0.95,0.67,1.96,0.91,2.96
				c0.24,1.02,0.54,2.02,0.69,3.06c0.14,1.03,0.29,2.06,0.47,3.08C28.54,46.94,29.45,46.67,29.43,46.55L29.43,46.55z"/>
		</g>
	</g>
	<g>
		<g>
			<path d="M29.33,45.77c-0.03-3.18-0.2-6.36-0.2-9.54c0-1.56-0.02-3.13,0-4.69c0.01-0.81,0.04-1.62,0.05-2.43
				c0.01-0.48,0.16-1.28-0.04-1.73c0.01,0.02-0.88,0.46-0.87,0.5c0.19,0.42,0.05,1.16,0.05,1.61c-0.01,0.81-0.04,1.63-0.05,2.44
				c-0.02,1.6,0,3.21,0,4.81c0,3.18,0.17,6.36,0.2,9.54C28.46,46.12,29.33,45.95,29.33,45.77L29.33,45.77z"/>
		</g>
	</g>
	<g>
		<g>
			<path d="M29.62,59.18c-0.06-1.03-0.28-2.03-0.4-3.06c-0.12-1.04-0.32-2.06-0.53-3.08c-0.21-0.99-0.53-1.99-0.83-2.95
				c-0.29-0.92-0.95-1.83-1.52-2.6c-0.03-0.04-0.85,0.53-0.87,0.5c0.57,0.76,1.23,1.68,1.52,2.6c0.31,0.96,0.63,1.96,0.83,2.95
				c0.21,1.02,0.42,2.04,0.53,3.08c0.12,1.03,0.33,2.03,0.4,3.06C28.75,59.54,29.63,59.34,29.62,59.18L29.62,59.18z"/>
		</g>
	</g>
	<g>
		<g>
			<path d="M27.91,73.66c0.28,1.72,0.37,3.47,0.39,5.21c0.02,1.69-0.24,3.38-0.29,5.06c-0.09,3.31-0.33,6.59-0.58,9.89
				c-0.15,2.02-0.4,4.05-0.4,6.08c0-0.16,0.87-0.33,0.87-0.5c0-1.75,0.13-3.56,0.34-5.31c0.22-1.8,0.26-3.62,0.43-5.42
				c0.14-1.47,0.1-2.96,0.18-4.44c0.09-1.7,0.16-3.41,0.3-5.1c0.07-0.89-0.02-1.81-0.05-2.7c-0.04-1.1-0.15-2.19-0.33-3.27
				C28.79,73.26,27.89,73.53,27.91,73.66L27.91,73.66z"/>
		</g>
	</g>
	<g>
		<g>
			<path d="M29.45,71.87c0,1.94-0.17,3.88-0.18,5.82c0,1.91,0.07,3.83,0.07,5.73c0,1.7-0.07,3.41-0.17,5.1
				c-0.11,1.83-0.14,3.67-0.27,5.5c-0.15,2.07-0.15,4.16-0.15,6.24c0-0.16,0.87-0.33,0.87-0.5c0-1.85,0.03-3.69,0.1-5.53
				C29.79,92.4,30,90.56,30,88.73c0-1.64,0.2-3.28,0.21-4.92c0.01-1.88-0.07-3.75-0.07-5.63c0-2.27,0.18-4.53,0.18-6.8
				C30.31,71.53,29.45,71.7,29.45,71.87L29.45,71.87z"/>
		</g>
	</g>
	<g>
		<g>
			<path d="M27.03,99.83c0.22,0.14,0.41,0.26,0.68,0.25c0.06,0,0.1-0.02,0.15-0.05c0.15-0.08,0.29-0.16,0.43-0.25
				c0.12-0.07,0.24-0.14,0.36-0.21c0.05-0.03,0.08-0.07,0.13-0.1c-0.28,0.16-0.57,0.33-0.85,0.49c0.05-0.02,0.1-0.01,0.15-0.01
				c0.05,0,0.08-0.02,0.13-0.04c0.11-0.05,0.23-0.02,0.34-0.02c0.29-0.17,0.58-0.33,0.87-0.5c-0.26,0-0.47-0.2-0.69-0.32
				c-0.11-0.06-0.21-0.1-0.33-0.11c-0.13-0.01-0.19,0.01-0.31,0.08c-0.16,0.09-0.32,0.18-0.47,0.27c-0.07,0.04-0.22,0.09-0.27,0.17
				c-0.03,0.03-0.03,0.02,0,0.06c0.01,0.02,0.04,0.04,0.06,0.05c0.04,0.03,0.09,0.04,0.13,0.05c0.1,0.02,0.2,0.02,0.3,0.05
				c0.15,0.04,0.29,0.07,0.44,0.08c0.29-0.17,0.58-0.33,0.87-0.5c-0.38,0-0.76-0.03-1.14-0.06c-0.02,0-0.13,0.07-0.13,0.07
				c-0.1,0.06-0.2,0.12-0.31,0.18c-0.1,0.06-0.2,0.12-0.31,0.18c-0.02,0.01-0.1,0.08-0.13,0.08c0.05,0.01,0.08,0.03,0.13,0.05
				c0.06,0.02,0.13,0.02,0.2,0.03c0.11,0.02,0.21,0.07,0.32,0.1c0.1,0.03,0.2,0.04,0.3,0c0.25-0.11,0.5-0.28,0.73-0.42
				c0.05-0.03,0.12-0.05,0.13-0.11c0.01-0.04-0.01-0.07-0.03-0.1c-0.06-0.06-0.18-0.09-0.25-0.12c-0.21-0.1-0.45-0.2-0.64-0.35
				c-0.29,0.17-0.58,0.33-0.87,0.5c0.12-0.01,0.2,0.11,0.28,0.18c0.07,0.06,0.16,0.18,0.26,0.18c0.03,0,0.12-0.07,0.13-0.07
				c0.1-0.06,0.2-0.12,0.31-0.18c0.03-0.02,0.44-0.24,0.43-0.25c-0.05-0.13-0.16-0.13-0.26-0.21c-0.12-0.09-0.19-0.22-0.22-0.36
				c-0.03-0.2-0.05-0.53,0.1-0.7c-0.29,0.17-0.58,0.33-0.87,0.5c0.03,0.18,0,0.36,0.03,0.53c0.01,0.08,0.02,0.31,0.11,0.35
				c0.01,0,0.14-0.08,0.13-0.07c0.1-0.06,0.2-0.12,0.31-0.18c0.1-0.06,0.2-0.12,0.31-0.18c0.02-0.01,0.12-0.06,0.13-0.08
				c0.02-0.13-0.02-0.27-0.02-0.41c0-0.14,0-0.29-0.01-0.43c-0.01-0.28-0.04-0.55-0.09-0.83c-0.29,0.17-0.58,0.33-0.87,0.5
				c0.09,0.31,0.14,0.63,0.21,0.94c0.03,0.14,0.07,0.29,0.1,0.43c0.02,0.12,0.04,0.25,0.1,0.36c0-0.01,0.8-0.44,0.87-0.5
				c0.05-0.05,0.04-0.16,0.04-0.23c0-0.13-0.02-0.26-0.04-0.39c-0.03-0.2-0.05-0.45-0.14-0.63c0,0-0.4,0.23-0.44,0.25
				c-0.1,0.06-0.2,0.12-0.31,0.18c-0.02,0.01-0.13,0.06-0.13,0.08c0.01,0.26,0.12,0.51,0.19,0.76c0.06,0.2,0.09,0.44,0.22,0.61
				c0.01,0.01,0.4-0.23,0.44-0.25c0.1-0.06,0.2-0.12,0.31-0.18c0.02-0.01,0.12-0.06,0.13-0.08c0.03-0.25-0.01-0.5-0.08-0.74
				c-0.04-0.13-0.08-0.36-0.2-0.45c-0.01,0-0.14,0.08-0.13,0.07c-0.1,0.06-0.2,0.12-0.31,0.18c-0.1,0.06-0.2,0.12-0.31,0.18
				c-0.02,0.01-0.12,0.05-0.13,0.08c-0.06,0.23,0,0.47,0.05,0.7c0.04,0.2,0.04,0.45,0.16,0.62c0.01,0.01,0.4-0.23,0.44-0.25
				c0.1-0.06,0.2-0.12,0.31-0.18c0.02-0.01,0.12-0.05,0.13-0.08c0.03-0.13-0.05-0.28-0.09-0.4c-0.07-0.19-0.14-0.38-0.21-0.56
				c0,0-0.4,0.23-0.44,0.25c-0.03,0.02-0.44,0.23-0.43,0.25c0.09,0.26,0.22,0.5,0.36,0.74c0.03,0.06,0.1,0.19,0.17,0.19
				c0.07,0,0.19-0.1,0.24-0.13c0.2-0.11,0.4-0.23,0.59-0.34c0.08-0.05,0.11-0.08,0.13-0.17c0.01-0.1,0-0.2-0.02-0.29
				c-0.03-0.18-0.08-0.37-0.16-0.53c0,0-0.4,0.23-0.44,0.25c-0.1,0.06-0.2,0.12-0.31,0.18c-0.02,0.01-0.12,0.06-0.13,0.08
				c-0.01,0.2,0.07,0.4,0.14,0.59c0.06,0.17,0.1,0.37,0.21,0.52c0.01,0.01,0.4-0.23,0.44-0.25c0.1-0.06,0.2-0.12,0.31-0.18
				c0.02-0.01,0.12-0.06,0.13-0.08c0.03-0.21-0.05-0.4-0.09-0.6c-0.03-0.15-0.04-0.34-0.14-0.46c-0.01-0.01-0.4,0.23-0.44,0.25
				c-0.1,0.06-0.2,0.12-0.31,0.18c-0.01,0.01-0.13,0.07-0.13,0.08c0.03,0.2,0.11,0.38,0.16,0.57c0.04,0.17,0.07,0.35,0.16,0.5
				c0,0.01,0.4-0.23,0.44-0.25c0.1-0.06,0.2-0.12,0.31-0.18c0.02-0.01,0.12-0.06,0.13-0.08c0.02-0.19-0.03-0.38-0.06-0.56
				c-0.04-0.25-0.08-0.51-0.14-0.76c0,0.02-0.4,0.22-0.44,0.25c-0.1,0.06-0.2,0.12-0.31,0.18c-0.02,0.01-0.13,0.06-0.13,0.08
				c0.01,0.12,0.06,0.23,0.08,0.35c0,0,0.15-0.08,0.13-0.07c0.1-0.06,0.2-0.12,0.31-0.18c0.1-0.06,0.2-0.12,0.31-0.18
				c0.02-0.01,0.13-0.06,0.13-0.08c-0.01-0.12-0.06-0.23-0.08-0.35c-0.29,0.17-0.58,0.33-0.87,0.5c0.06,0.25,0.09,0.51,0.14,0.76
				c0.03,0.18,0.08,0.37,0.06,0.56c0.29-0.17,0.58-0.33,0.87-0.5c-0.09-0.15-0.12-0.33-0.16-0.5c-0.05-0.19-0.13-0.37-0.16-0.57
				c-0.29,0.17-0.58,0.33-0.87,0.5c0.1,0.12,0.11,0.31,0.14,0.46c0.04,0.2,0.12,0.39,0.09,0.6c0.29-0.17,0.58-0.33,0.87-0.5
				c-0.11-0.15-0.15-0.35-0.21-0.52c-0.07-0.19-0.15-0.39-0.14-0.59c-0.29,0.17-0.58,0.33-0.87,0.5c0.07,0.15,0.11,0.32,0.15,0.48
				c0.02,0.1,0.1,0.39-0.02,0.47c0.28-0.16,0.57-0.33,0.85-0.49c-0.11,0.05-0.23-0.24-0.27-0.31c-0.11-0.2-0.21-0.4-0.29-0.61
				c-0.29,0.17-0.58,0.33-0.87,0.5c0.07,0.19,0.15,0.37,0.21,0.56c0.04,0.12,0.12,0.27,0.09,0.4c0.29-0.17,0.58-0.33,0.87-0.5
				c-0.12-0.17-0.13-0.42-0.16-0.62c-0.04-0.22-0.1-0.47-0.05-0.7c-0.29,0.17-0.58,0.33-0.87,0.5c0.12,0.09,0.16,0.31,0.2,0.45
				c0.07,0.24,0.11,0.49,0.08,0.74c0.29-0.17,0.58-0.33,0.87-0.5c-0.13-0.17-0.16-0.41-0.22-0.61c-0.08-0.25-0.18-0.49-0.19-0.76
				c-0.29,0.17-0.58,0.33-0.87,0.5c0.09,0.18,0.11,0.43,0.14,0.63c0.02,0.13,0.03,0.26,0.04,0.39c0,0.06,0.01,0.18-0.04,0.23
				c0.29-0.17,0.58-0.33,0.87-0.5c-0.06-0.11-0.07-0.24-0.1-0.36c-0.03-0.15-0.07-0.29-0.1-0.43c-0.07-0.31-0.13-0.63-0.21-0.94
				c0,0.01-0.4,0.23-0.44,0.25c-0.1,0.06-0.2,0.12-0.31,0.18c-0.01,0.01-0.13,0.07-0.13,0.08c0.05,0.27,0.07,0.55,0.09,0.83
				c0.01,0.14,0,0.27,0.01,0.41c0,0.14,0.04,0.29,0.02,0.43c0.29-0.17,0.58-0.33,0.87-0.5c-0.09-0.03-0.09-0.27-0.11-0.35
				c-0.03-0.18,0-0.36-0.03-0.53c0,0.02-0.4,0.22-0.44,0.25c-0.1,0.06-0.2,0.12-0.31,0.18c-0.04,0.02-0.1,0.04-0.13,0.08
				c-0.15,0.16-0.13,0.5-0.1,0.7c0.02,0.14,0.09,0.26,0.2,0.35c0.1,0.08,0.22,0.08,0.27,0.22c0.29-0.17,0.58-0.33,0.87-0.5
				c-0.1,0-0.19-0.12-0.26-0.18c-0.08-0.07-0.16-0.19-0.28-0.18c-0.03,0-0.12,0.06-0.13,0.07c-0.1,0.06-0.2,0.12-0.31,0.18
				c-0.1,0.06-0.2,0.12-0.31,0.18c-0.01,0.01-0.12,0.08-0.13,0.08c0.17,0.13,0.37,0.22,0.56,0.31c0.13,0.07,0.4,0.1,0.35,0.3
				c0.29-0.17,0.58-0.33,0.87-0.5c-0.16,0.06-0.31-0.01-0.46-0.06c-0.08-0.03-0.16-0.04-0.24-0.05c-0.09-0.01-0.16-0.06-0.24-0.07
				c-0.29,0.17-0.58,0.33-0.87,0.5c0.38,0.04,0.76,0.06,1.14,0.06c0.03,0,0.12-0.07,0.13-0.07c0.1-0.06,0.2-0.12,0.31-0.18
				c0.1-0.06,0.2-0.12,0.31-0.18c0.03-0.02,0.1-0.08,0.13-0.08c-0.2-0.01-0.39-0.08-0.59-0.1c-0.07-0.01-0.47-0.09-0.34-0.2
				c-0.29,0.17-0.58,0.33-0.87,0.5c0.07-0.03,0.16-0.01,0.24,0c0.12,0.01,0.23,0.08,0.33,0.14c0.2,0.12,0.39,0.29,0.63,0.29
				c0.02,0,0.12-0.07,0.13-0.07c0.1-0.06,0.2-0.12,0.31-0.18c0.1-0.06,0.2-0.12,0.31-0.18c0.03-0.02,0.1-0.08,0.13-0.08
				c-0.1,0-0.21-0.03-0.31,0c-0.05,0.02-0.09,0.05-0.14,0.06c-0.05,0.01-0.1-0.01-0.15,0c-0.07,0.02-0.13,0.07-0.19,0.1
				c-0.16,0.09-0.32,0.18-0.48,0.28c-0.07,0.04-0.15,0.08-0.22,0.13c-0.04,0.03-0.07,0.07-0.11,0.1c0.29-0.17,0.58-0.33,0.87-0.5
				c-0.11,0.04-0.29,0.02-0.4-0.02c-0.14-0.05-0.25-0.14-0.38-0.22c-0.01,0-0.14,0.08-0.13,0.07c-0.1,0.06-0.2,0.12-0.31,0.18
				c-0.1,0.06-0.2,0.12-0.31,0.18C27.14,99.77,27.04,99.84,27.03,99.83L27.03,99.83z"/>
		</g>
	</g>
	<g>
		<g>
			<path d="M27.82,72.63c0.1,0.94,0.54,0.55,1.09,0.22c0.56-0.34,0.33-1.47,0.35-2.06c0.02-0.93-0.04-1.86-0.03-2.79
				c0.01-0.97-0.03-1.95-0.03-2.92c-0.02-1.88,0.04-3.77,0.1-5.65c0.06-2.05-0.11-4.12-0.15-6.17c0,0.15-0.87,0.33-0.87,0.5
				c0.04,1.72,0.1,3.45,0.15,5.18c0.05,1.57-0.05,3.16-0.08,4.73c-0.03,1.61,0.03,3.22,0.01,4.84c-0.01,0.81,0.02,1.6,0.03,2.41
				c0,0.35-0.01,0.71-0.01,1.06c0,0.31,0.1,1.1-0.19,1.3c0.28-0.16,0.57-0.33,0.85-0.49c-0.27-0.03-0.32-0.42-0.35-0.64
				C28.7,72.26,27.81,72.49,27.82,72.63L27.82,72.63z"/>
		</g>
	</g>
	<g>
		<g>
			<path d="M30.27,71.98c-0.15-1.61-0.1-3.24-0.13-4.86c-0.03-1.67-0.05-3.35-0.04-5.02c0-1.74,0.01-3.48-0.05-5.22
				c-0.06-1.67,0.02-3.39-0.2-5.05c0.02,0.13-0.83,0.34-0.87,0.5c-0.01,0.03-0.01,0.05-0.02,0.08c0.04-0.21,0.82-0.28,0.87-0.5
				c0.01-0.03,0.01-0.05,0.02-0.08c-0.29,0.17-0.58,0.33-0.87,0.5c0.22,1.66,0.13,3.38,0.2,5.05c0.06,1.74,0.05,3.48,0.05,5.22
				c0,1.68,0.01,3.35,0.04,5.02c0.03,1.62-0.02,3.25,0.13,4.86C29.39,72.35,30.28,72.13,30.27,71.98L30.27,71.98z"/>
		</g>
	</g>
	<g>
		<g>
			<path d="M29.63,70.4c0.44-2.35,1.2-4.59,1.96-6.84c0.36-1.08,0.84-2.2,1.38-3.2c0.27-0.51,0.52-1.04,0.8-1.55
				c0.2-0.37,0.4-0.9,0.74-1.17c-0.26,0.2-0.61,0.3-0.87,0.5c-0.31,0.25-0.5,0.73-0.68,1.07c-0.29,0.52-0.53,1.06-0.81,1.58
				c-0.55,1.03-1.05,2.17-1.42,3.28c-0.76,2.26-1.52,4.49-1.96,6.84C28.81,70.69,29.59,70.62,29.63,70.4L29.63,70.4z"/>
		</g>
	</g>
	<g>
		<g>
			<path d="M30.17,68.45c0.19-0.74,0.45-1.45,0.71-2.16c0.26-0.71,0.42-1.46,0.64-2.19c0.21-0.71,0.52-1.38,0.78-2.07
				c0.26-0.71,0.65-1.35,0.93-2.04c-0.03,0.08-0.36,0.2-0.44,0.25c-0.09,0.05-0.39,0.16-0.43,0.25c-0.27,0.67-0.65,1.29-0.9,1.97
				c-0.27,0.71-0.58,1.41-0.8,2.14c-0.21,0.71-0.38,1.43-0.62,2.12c-0.26,0.74-0.53,1.46-0.73,2.23c0.02-0.06,0.37-0.21,0.44-0.25
				C29.82,68.66,30.15,68.53,30.17,68.45L30.17,68.45z"/>
		</g>
	</g>
	<g>
		<g>
			<path d="M29.12,54.02c0.15-1.77,0.14-3.57,0.15-5.34c0.01-1.58,0.04-3.13-0.08-4.71c0.01,0.14-0.88,0.35-0.87,0.5
				c0.12,1.57,0.09,3.13,0.08,4.71c-0.01,1.77,0,3.57-0.15,5.34C28.27,54.34,29.11,54.22,29.12,54.02L29.12,54.02z"/>
		</g>
	</g>
	<g>
		<g>
			<path d="M30,54.17c-0.12-2.03-0.22-4.07-0.34-6.1c-0.05-0.96-0.05-1.91-0.15-2.87c-0.11-1.05-0.31-2.14-0.3-3.19
				c-0.29,0.17-0.58,0.33-0.87,0.5c0,0.01,0.01,0.01,0.01,0.02c0.02,0.02,0.86-0.51,0.87-0.5c0-0.01-0.01-0.01-0.01-0.02
				c0.01,0.02-0.87,0.43-0.87,0.5c-0.01,1.05,0.19,2.15,0.3,3.19c0.1,0.96,0.1,1.91,0.15,2.87c0.12,2.03,0.22,4.07,0.34,6.1
				C29.13,54.53,30.01,54.33,30,54.17L30,54.17z"/>
		</g>
	</g>
	<g>
		<g>
			<path d="M29.66,57.6c-0.08-0.82-0.07-1.65-0.09-2.48c-0.02-0.78-0.11-1.55-0.13-2.33c-0.02-0.72-0.1-1.45-0.1-2.17
				c0-0.51-0.05-1.1,0.04-1.61c-0.29,0.17-0.58,0.33-0.87,0.5c0.21,0.24,0.12,0.93,0.14,1.22c0.04,0.58,0.07,1.16,0.07,1.75
				c0.01,1.03-0.01,2.06,0,3.09c0,1,0.08,2,0.11,3c0.03,1.11-0.1,2.22-0.13,3.33c-0.05,2.02,0.03,4.03-0.11,6.04
				c-0.07,1-0.11,2-0.14,3.01c-0.02,1.03-0.14,2.05-0.18,3.07c0.29-0.17,0.58-0.33,0.87-0.5c-0.01-0.04-0.02-0.07-0.02-0.11
				c0.02,0.09-0.89,0.39-0.87,0.5c0.01,0.04,0.02,0.07,0.02,0.11c-0.02-0.11,0.86-0.36,0.87-0.5c0.04-1.03,0.16-2.05,0.18-3.07
				c0.02-1,0.07-2.01,0.14-3.01c0.14-2.01,0.05-4.03,0.11-6.04c0.03-1.11,0.16-2.21,0.13-3.33c-0.03-1-0.11-2-0.11-3
				c0-1.03,0.01-2.06,0-3.09c0-0.58-0.03-1.17-0.07-1.75c-0.02-0.29,0.06-0.99-0.14-1.22c0,0-0.86,0.44-0.87,0.5
				c-0.09,0.51-0.04,1.09-0.04,1.61c0,0.72,0.08,1.45,0.1,2.17c0.02,0.78,0.11,1.55,0.13,2.33c0.02,0.83,0.01,1.65,0.09,2.48
				C28.78,57.97,29.67,57.75,29.66,57.6L29.66,57.6z"/>
		</g>
	</g>
	<g>
		<g>
			<path d="M27.28,71.67c0.2,0.38,0.3,0.94,0.63,1.22c0.05,0.04,0.73-0.42,0.81-0.46c0.31-0.18,0.29-0.56,0.35-0.89
				c0.1-0.57,0.19-1.11,0.23-1.69c0.07-1.08,0.09-2.15,0.16-3.23c0.14-2.34,0.26-4.69,0.32-7.03c-0.29,0.17-0.58,0.33-0.87,0.5
				c0.01,2.33-0.16,4.67-0.06,7c0.05,1.11,0.07,2.21,0.04,3.32c-0.02,0.55-0.01,1.11-0.04,1.66c-0.02,0.37,0.05,0.89-0.08,1.24
				c0.29-0.17,0.58-0.33,0.87-0.5c-0.1-0.57-0.06-1.17-0.06-1.75c-0.01-0.64-0.06-1.27-0.07-1.9c0,0.16-0.86,0.32-0.87,0.5
				c-0.02,0.69-0.11,1.37-0.17,2.06c-0.06,0.64-0.02,1.41-0.28,2.01c0.14-0.08,0.29-0.17,0.43-0.25c-0.02,0.01-0.05,0.03-0.07,0.04
				c0.15-0.08,0.29-0.16,0.44-0.25c-0.09-0.41-0.06-0.88,0-1.29c-0.29,0.17-0.58,0.33-0.87,0.5c0,0.3,0.08,0.69-0.01,0.98
				c0.29-0.17,0.58-0.33,0.87-0.5c-0.17-0.24-0.1-0.57-0.28-0.82c0,0-0.87,0.46-0.87,0.5c0.06,0.29,0.16,0.55,0.18,0.85
				c0,0.1-0.01,0.28,0.02,0.36c-0.02-0.05,0.89-0.44,0.87-0.5c-0.03-0.09-0.01-0.26-0.02-0.36c-0.02-0.3-0.12-0.56-0.18-0.85
				c-0.29,0.17-0.58,0.33-0.87,0.5c0.18,0.24,0.11,0.58,0.28,0.82c-0.01-0.01,0.84-0.42,0.87-0.5c0.08-0.29,0-0.68,0.01-0.98
				c0,0.17-0.84,0.31-0.87,0.5c-0.05,0.41-0.09,0.88,0,1.29c0-0.01,0.43-0.24,0.44-0.25c0.14-0.08,0.4-0.17,0.5-0.29
				c0.21-0.26,0.17-0.88,0.2-1.18c0.1-0.96,0.22-1.92,0.25-2.89c-0.29,0.17-0.58,0.33-0.87,0.5c0.01,0.63,0.06,1.27,0.07,1.9
				c0.01,0.58-0.04,1.18,0.06,1.75c-0.02-0.11,0.82-0.36,0.87-0.5c0.13-0.35,0.06-0.87,0.08-1.24c0.03-0.55,0.02-1.11,0.04-1.66
				c0.03-1.11,0.01-2.21-0.04-3.32c-0.1-2.33,0.07-4.67,0.06-7c0,0.16-0.86,0.32-0.87,0.5c-0.05,2.23-0.18,4.47-0.3,6.7
				c-0.06,1.05-0.07,2.1-0.15,3.15c-0.04,0.48-0.05,0.97-0.13,1.45c-0.05,0.28-0.08,1.3-0.36,1.47c0.27-0.15,0.54-0.31,0.81-0.46
				c-0.34-0.28-0.43-0.84-0.63-1.22C28.15,71.17,27.27,71.65,27.28,71.67L27.28,71.67z"/>
		</g>
	</g>
	<g>
		<g>
			<path d="M29.53,74.85c0.05-0.73,0.04-1.46,0.06-2.19c0.01-0.36,0.03-0.72,0.06-1.08c0.02-0.21-0.01-0.54,0.1-0.73
				c-0.29,0.17-0.58,0.33-0.87,0.5c0.09,0.77-0.03,1.58-0.06,2.35c-0.02,0.41-0.02,0.81-0.03,1.22c-0.01,0.38-0.03,0.77,0.01,1.15
				c0-0.03,0.4-0.22,0.44-0.25c0.11-0.06,0.36-0.14,0.43-0.25c0.11-0.17,0.06-0.56,0.07-0.74c0.02-0.45,0.02-0.9,0.02-1.34
				c0-0.44,0-0.88,0.01-1.32c0.01-0.19,0.02-0.38,0.03-0.57c0-0.09-0.01-0.2,0.02-0.28c-0.29,0.17-0.58,0.33-0.87,0.5
				c0.08,1.42-0.14,2.85-0.06,4.28c0-0.03,0.39-0.22,0.44-0.25c0.1-0.06,0.2-0.12,0.31-0.18c0.03-0.02,0.11-0.05,0.13-0.08
				c0.08-0.21,0.04-0.45,0.05-0.67c0.01-0.34,0.02-0.69,0.02-1.03c0.01-0.33,0.01-0.66,0.01-0.99c0-0.29,0.03-0.57-0.02-0.85
				c0,0.02-0.4,0.22-0.44,0.25c-0.07,0.04-0.42,0.18-0.43,0.25c-0.07,0.38-0.02,0.78-0.03,1.16c-0.01,0.38-0.04,0.78-0.01,1.16
				c0-0.03,0.4-0.22,0.44-0.25c0.07-0.04,0.42-0.18,0.43-0.25c0.08-0.42,0.08-0.87,0.09-1.29c0.02-0.44,0.07-0.89,0.03-1.32
				c0,0.03-0.4,0.22-0.44,0.25c-0.07,0.04-0.41,0.17-0.43,0.25c-0.09,0.38-0.04,0.81-0.05,1.2c-0.01,0.46-0.04,0.93-0.05,1.39
				c0-0.04,0.39-0.22,0.44-0.25c0.07-0.04,0.42-0.18,0.43-0.25c0.12-0.66,0.1-1.34,0.19-2c-0.29,0.17-0.58,0.33-0.87,0.5
				c-0.05,0.65-0.09,1.29-0.14,1.94c-0.02,0.31-0.05,0.63-0.05,0.95c0,0.12,0.03,0.23,0.02,0.35c-0.01,0.15-0.05,0.31-0.06,0.47
				c-0.01,0.1-0.03,0.12,0.07,0.11c0.12-0.01,0.32-0.18,0.42-0.24c0.12-0.07,0.31-0.13,0.39-0.23c0.06-0.07,0.07-0.14,0.08-0.25
				c0.03-0.3,0.03-0.6,0.04-0.9c0-0.18-0.05-0.53,0.04-0.7c-0.29,0.17-0.58,0.33-0.87,0.5c0.04,0.63,0.03,1.27,0.03,1.9
				c0.29-0.17,0.58-0.33,0.87-0.5c-0.01-0.25-0.11-0.5-0.09-0.75c-0.29,0.17-0.58,0.33-0.87,0.5c0.09,0.29-0.01,0.65,0,0.96
				c0-0.04,0.39-0.22,0.44-0.25c0.05-0.03,0.43-0.2,0.43-0.25c0-1.63-0.07-3.28,0.09-4.9c0,0.05-0.38,0.22-0.44,0.25
				c-0.06,0.03-0.42,0.19-0.43,0.25C28.92,73.65,29,75.3,29,76.92c0.29-0.17,0.58-0.33,0.87-0.5c0-0.3,0.09-0.66,0-0.96
				c0,0.01-0.4,0.23-0.44,0.25c-0.06,0.03-0.43,0.19-0.43,0.25c-0.02,0.25,0.08,0.5,0.09,0.75c0-0.03,0.39-0.22,0.44-0.25
				c0.05-0.03,0.43-0.2,0.43-0.25c0-0.63,0.01-1.27-0.03-1.9c0,0.03-0.39,0.22-0.44,0.25c-0.1,0.06-0.38,0.15-0.43,0.25
				c-0.04,0.09-0.03,0.2-0.03,0.3c-0.01,0.18-0.01,0.37-0.01,0.55c-0.01,0.31,0.03,0.69-0.07,0.98c0.29-0.17,0.58-0.33,0.87-0.5
				c-0.11,0.05-0.04-0.19-0.03-0.25c0.02-0.16,0.05-0.33,0.04-0.48c-0.03-0.31-0.01-0.63,0.01-0.94c0.04-0.71,0.1-1.43,0.16-2.14
				c0,0.04-0.39,0.22-0.44,0.25c-0.06,0.04-0.42,0.18-0.43,0.25c-0.09,0.66-0.06,1.35-0.19,2c0.29-0.17,0.58-0.33,0.87-0.5
				c0.02-0.46,0.04-0.93,0.05-1.39c0.01-0.39-0.03-0.82,0.05-1.2c-0.29,0.17-0.58,0.33-0.87,0.5c0.04,0.43-0.02,0.89-0.03,1.32
				c-0.02,0.43-0.02,0.87-0.09,1.29c0.29-0.17,0.58-0.33,0.87-0.5c-0.03-0.38-0.01-0.78,0.01-1.16c0.01-0.38-0.03-0.79,0.03-1.16
				c-0.29,0.17-0.58,0.33-0.87,0.5c0.05,0.27,0.03,0.54,0.02,0.81c0,0.34-0.01,0.69-0.02,1.03c-0.01,0.33-0.01,0.65-0.02,0.98
				c-0.01,0.23,0.04,0.51-0.05,0.73c0.29-0.17,0.58-0.33,0.87-0.5c-0.08-1.42,0.14-2.85,0.06-4.28c0,0.03-0.39,0.22-0.44,0.25
				c-0.1,0.06-0.2,0.12-0.31,0.18c-0.03,0.02-0.11,0.05-0.13,0.08c-0.03,0.08-0.02,0.18-0.02,0.27c0,0.18-0.02,0.35-0.02,0.53
				c-0.02,0.46-0.02,0.92-0.02,1.38c0,0.43,0,0.86-0.02,1.29c-0.01,0.19,0.04,0.62-0.07,0.79c0.29-0.17,0.58-0.33,0.87-0.5
				c-0.04-0.36-0.02-0.73-0.01-1.09c0.01-0.43,0.01-0.85,0.03-1.28c0.03-0.77,0.15-1.58,0.06-2.35c0,0.03-0.4,0.22-0.44,0.25
				c-0.1,0.06-0.37,0.15-0.43,0.25c-0.1,0.18-0.08,0.48-0.09,0.68c-0.03,0.38-0.05,0.75-0.06,1.13c-0.02,0.73-0.01,1.46-0.06,2.19
				c0-0.04,0.39-0.22,0.44-0.25C29.15,75.07,29.52,74.91,29.53,74.85L29.53,74.85z"/>
		</g>
	</g>
	<g>
		<g>
			<path d="M28.54,97.77c0.26-1.87,0.3-3.75,0.47-5.63c0.17-1.9,0.24-3.83,0.31-5.74c0.07-1.94,0.15-3.89,0.23-5.83
				c0.07-1.71-0.13-3.38-0.19-5.09c-0.29,0.17-0.58,0.33-0.87,0.5c0.15,3.8-0.33,7.6-0.19,11.41c0.06,1.76-0.29,3.51-0.44,5.26
				c-0.08,0.94-0.15,1.88-0.18,2.82c-0.03,0.77,0.1,1.69-0.12,2.43c0.28-0.16,0.57-0.33,0.85-0.49c-0.3,0.15-0.12-0.74-0.12-0.84
				c0.02-0.52,0.04-1.03,0.06-1.55c0.05-0.85,0.17-1.69,0.25-2.54c0.16-1.78,0.28-3.56,0.4-5.34c0.13-1.78,0.3-3.57,0.53-5.34
				c0.22-1.76,0.27-3.52,0.41-5.28c-0.29,0.17-0.58,0.33-0.87,0.5c0.2,0.59,0.06,1.41,0.04,2.02c-0.03,0.99-0.12,1.98-0.17,2.97
				c-0.09,1.91-0.15,3.82-0.24,5.73c-0.09,1.92-0.19,3.85-0.29,5.77c-0.05,0.92-0.11,1.84-0.13,2.77c-0.02,0.86,0,1.75-0.08,2.6
				c0.29-0.17,0.58-0.33,0.87-0.5c-0.29-0.57-0.41-1.38-0.34-2.01c-0.29,0.17-0.58,0.33-0.87,0.5c-0.04,0.55,0.07,1.13,0.09,1.69
				c0-0.16,0.86-0.33,0.87-0.5c0.01-0.65,0.02-1.3,0.04-1.94c0.01-0.49-0.03-1.11,0.13-1.58c-0.29,0.17-0.58,0.33-0.87,0.5
				c0.16,0.5,0.13,1.06,0.17,1.58c0.04,0.53,0.11,1.05,0.15,1.58c-0.01-0.15,0.83-0.33,0.87-0.5c0.12-0.58,0.02-1.26,0.03-1.85
				c0.01-0.76,0.08-1.51,0.11-2.27c0.07-1.41,0.07-2.82,0.13-4.23c0.06-1.38,0.19-2.76,0.3-4.14c0.1-1.32,0.33-2.77,0.11-4.09
				c0.02,0.12-0.86,0.35-0.87,0.5c-0.1,2.83-0.32,5.66-0.55,8.48c-0.12,1.51-0.22,3.01-0.26,4.52c-0.02,0.73-0.03,1.46-0.03,2.19
				c0,0.4,0.01,0.81,0,1.22c-0.01,0.28-0.07,0.58,0,0.85c-0.02-0.08,0.89-0.4,0.87-0.5c-0.08-0.37-0.02-0.84,0.05-1.21
				c-0.29,0.17-0.58,0.33-0.87,0.5c0.11,0.27,0.15,0.58,0.19,0.87c0.29-0.17,0.58-0.33,0.87-0.5c-0.11-0.47-0.2-1.15-0.12-1.63
				c-0.29,0.17-0.58,0.33-0.87,0.5c0.08,0.36,0.13,0.71,0.16,1.08c-0.01-0.13,0.88-0.35,0.87-0.5c0-0.05-0.01-0.11-0.01-0.16
				c0.01,0.13-0.88,0.35-0.87,0.5c0,0.05,0.01,0.11,0.01,0.16c0.29-0.17,0.58-0.33,0.87-0.5c-0.04-0.36-0.09-0.72-0.16-1.08
				c0.02,0.11-0.84,0.36-0.87,0.5c-0.08,0.48,0.01,1.17,0.12,1.63c-0.02-0.09,0.88-0.39,0.87-0.5c-0.05-0.29-0.09-0.6-0.19-0.87
				c0.02,0.06-0.85,0.39-0.87,0.5c-0.07,0.37-0.13,0.84-0.05,1.21c0.29-0.17,0.58-0.33,0.87-0.5c-0.07-0.27-0.01-0.57,0-0.85
				c0.01-0.36,0-0.73,0-1.09c0-0.73,0.01-1.46,0.03-2.19c0.04-1.55,0.14-3.1,0.27-4.64c0.23-2.82,0.45-5.65,0.55-8.48
				c-0.29,0.17-0.58,0.33-0.87,0.5c0.22,1.28-0.01,2.68-0.1,3.97c-0.11,1.42-0.25,2.84-0.31,4.26c-0.06,1.37-0.07,2.74-0.13,4.11
				c-0.03,0.76-0.1,1.51-0.12,2.27c-0.02,0.63,0.09,1.35-0.03,1.97c0.29-0.17,0.58-0.33,0.87-0.5c-0.04-0.53-0.11-1.05-0.15-1.58
				c-0.04-0.52-0.01-1.08-0.17-1.58c0.02,0.07-0.83,0.39-0.87,0.5c-0.16,0.47-0.11,1.08-0.13,1.58c-0.02,0.65-0.03,1.3-0.04,1.94
				c0.29-0.17,0.58-0.33,0.87-0.5c-0.01-0.56-0.13-1.13-0.09-1.69c-0.02,0.18-0.85,0.3-0.87,0.5c-0.07,0.64,0.05,1.43,0.34,2.01
				c-0.02-0.04,0.86-0.41,0.87-0.5c0.08-0.81,0.06-1.66,0.08-2.48c0.02-0.96,0.08-1.92,0.14-2.88c0.11-1.92,0.2-3.85,0.29-5.77
				c0.09-1.91,0.15-3.82,0.24-5.73c0.05-0.95,0.14-1.9,0.17-2.86c0.02-0.65,0.17-1.51-0.04-2.13c0.03,0.08-0.86,0.39-0.87,0.5
				c-0.14,1.76-0.19,3.52-0.41,5.28c-0.22,1.77-0.4,3.56-0.53,5.34c-0.12,1.78-0.24,3.56-0.4,5.34c-0.08,0.85-0.2,1.69-0.25,2.54
				c-0.03,0.48-0.04,0.95-0.06,1.43c-0.01,0.24-0.07,0.52-0.05,0.75c0.02,0.2-0.03,0.12,0.12,0.23c0.01,0,0.01-0.01,0.02-0.01
				c0.36-0.17,0.89-0.35,0.96-0.76c0.16-0.94,0.05-1.97,0.11-2.92c0.11-2.02,0.44-4.02,0.56-6.04c0.12-2.1,0-4.22,0.1-6.33
				c0.1-2.14,0.2-4.26,0.11-6.4c0.01,0.15-0.87,0.34-0.87,0.5c0.06,1.7,0.26,3.37,0.19,5.09c-0.08,1.94-0.16,3.89-0.23,5.83
				c-0.07,1.91-0.15,3.84-0.31,5.74c-0.16,1.88-0.21,3.75-0.47,5.63C27.7,98.07,28.51,97.98,28.54,97.77L28.54,97.77z"/>
		</g>
	</g>
	<g>
		<path class="st2" d="M29.88,78.19c-0.23-2.05-1.03-3.59-2.02-4.28c0.78-2.31,0.53-4.18,0.11-6.01c-0.29-0.9-0.7-1.62-1.17-2.18
			c-0.21-0.21-0.42-0.41-0.61-0.65c-0.07-0.13-0.1-0.17-0.1-0.14c0,0,0-0.01,0-0.01c0-0.35,0-0.7,0.02-1.04
			c0.03-0.25,0.06-0.5,0.11-0.74c0.01-0.04,0.02-0.07,0.03-0.12c0.39-1.53,0.83-3.1,0.78-4.85c-0.04-1.41-0.26-2.84-0.82-3.81
			c-0.26-0.44-0.56-0.76-0.88-1.01c0-0.02,0-0.05,0-0.07c0,0.02,0,0.04,0,0.07c0,0,0,0,0,0c0-0.05,0.01-0.11,0.01-0.16
			c0,0.01,0,0.03,0,0.04c0,0.03,0,0.06-0.01,0.1c0-0.03,0-0.05,0.01-0.08c0,0.03-0.01,0.06-0.01,0.1c0.02-0.26,0.04-0.53,0.06-0.79
			c-0.01,0.2-0.03,0.4-0.04,0.6c0-0.01,0-0.02,0-0.03c0.02-0.28,0.04-0.56,0.06-0.84c0.09-2.08-0.21-4.26-0.96-5.82
			c-0.4-0.93-0.94-1.67-1.55-1.92c0.05,0.02,0.05,0.01-0.06-0.04c-0.02-0.01-0.03-0.01-0.05-0.02c0-0.01,0-0.02,0-0.03
			c-0.01-0.09-0.02-0.18-0.03-0.27c-0.01-0.14-0.01-0.28-0.02-0.41c-0.01-0.28-0.03-0.53-0.04-0.63c-0.1-1.83-0.11-2.48-0.64-4.81
			c0-0.02-0.02-0.09-0.06-0.26c-0.01-0.05-0.02-0.09-0.03-0.14c0,0,0,0,0,0c0,0,0,0,0,0c-0.24-1.05-0.62-2.06-1.21-2.43
			c-0.65-0.32-1.37,0.06-1.95,0.66c-0.65,0.82-0.99,2.27-1.03,3.72c0,0.06,0,0.11,0,0.15c0-0.06,0.01-0.14,0.02-0.22
			c-0.01,0.09-0.01,0.17-0.02,0.26c-0.01,0.14-0.01,0.13,0,0.04c-0.04,0.59-0.07,1.18-0.07,1.78c-0.13,0.07-0.26,0.15-0.39,0.23
			c-0.02,0.01-0.05,0.03-0.08,0.05c-0.01,0-0.01,0.01-0.02,0.01c-0.01,0.01-0.02,0.01-0.03,0.02c0.01,0,0.01-0.01,0.02-0.01
			c-0.28,0.15-0.52,0.4-0.7,0.71c0-0.01,0-0.01,0.01-0.01c0,0.01-0.01,0.01-0.01,0.02c0,0-0.01,0.01-0.01,0.01
			c-0.01,0.01-0.01,0.02-0.02,0.03c-0.29,0.46-0.55,0.96-0.73,1.52c-0.41,1.76-0.87,3.69-0.53,5.53c0.09,1.02,0.29,2.1,0.76,2.89
			c-0.36,0.05-0.7,0.18-1.03,0.51c-1.46,1.45-1.56,5.11-0.74,7.54c0.13,0.42,0.29,0.8,0.46,1.18c-0.02,0.01-0.04,0.01-0.06,0.02
			c-0.08,0.02-0.15,0.04-0.23,0.05c-1.81,0.25-3.66,1.69-3.51,5.72c0.06,2.3,0.82,4.09,1.65,5.65c-0.82,0.99-1.74,1.79-2.23,3.46
			c-0.87,3.22,0.4,6.73,1.87,8.37c1.61,1.7,3.56,2.18,5.37,1.68c-0.16,0.04-0.32,0.09-0.13,0.04c1.11-0.17,2.21,0.36,3.31,0.35
			c2.05-0.25,0.81-0.4,3.2-0.54c1.06-0.21,2.13-0.21,3.17-0.61c1.22-0.8,2.41-2.38,2.82-4.8C30.06,80.31,30.01,79.46,29.88,78.19z"
			/>
		<path class="st2" d="M17.77,40.01c0,0.03,0,0.05,0,0.08c0-0.01,0-0.03,0-0.04C17.77,40.04,17.77,40.03,17.77,40.01z"/>
		<path class="st2" d="M25.34,53.15c0,0.03,0,0.06-0.01,0.09c0-0.01,0-0.01,0-0.02c0-0.03,0-0.06,0.01-0.09
			C25.34,53.14,25.34,53.14,25.34,53.15z"/>
		<path class="st2" d="M25.34,53.1c0,0.02,0,0.05-0.01,0.07C25.34,53.07,25.35,53.03,25.34,53.1z"/>
	</g>
	<g>
		<g>
			<path d="M15.27,74.62c0.99,1.47,2.01,2.92,2.76,4.53c0.35,0.74,0.81,1.44,1.01,2.24c0.21,0.81,0.62,1.55,0.68,2.4
				c-0.01-0.14,0.88-0.35,0.87-0.5c-0.06-0.82-0.44-1.55-0.67-2.33c-0.24-0.82-0.67-1.54-1.03-2.31c-0.75-1.61-1.77-3.07-2.76-4.53
				C16.12,74.09,15.28,74.63,15.27,74.62L15.27,74.62z"/>
		</g>
	</g>
	<g>
		<g>
			<path d="M20.05,81.33c0-2.33,1.06-4.47,1.84-6.61c0.39-1.07,0.91-2.12,1.49-3.1c0.29-0.5,0.56-1.01,0.84-1.5
				c0.23-0.4,0.49-0.98,0.82-1.3c-0.29,0.17-0.58,0.33-0.87,0.5c0,0.02,0.01,0.04,0.01,0.06c-0.02-0.1,0.89-0.39,0.87-0.5
				c0-0.02-0.01-0.04-0.01-0.06c0.01,0.06-0.79,0.42-0.87,0.5c-0.31,0.3-0.54,0.83-0.77,1.21c-0.29,0.49-0.56,1-0.84,1.5
				c-0.58,1.02-1.14,2.09-1.54,3.19c-0.77,2.14-1.84,4.28-1.84,6.61C19.19,81.67,20.05,81.5,20.05,81.33L20.05,81.33z"/>
		</g>
	</g>
	<g>
		<g>
			<path d="M20.1,62.23c-0.09-0.51,0.02-0.99,0.06-1.5c0.04-0.49,0.11-0.98,0.21-1.46c0.23-1.03,0.38-2.05,0.76-3.04
				c0.68-1.78,1.39-3.55,2.35-5.2c-0.14,0.25-0.72,0.25-0.87,0.5c-0.95,1.65-1.66,3.42-2.35,5.2c-0.38,0.99-0.53,2.01-0.76,3.04
				c-0.11,0.48-0.18,0.96-0.21,1.46c-0.04,0.51-0.15,0.99-0.06,1.5C19.22,62.63,20.12,62.35,20.1,62.23L20.1,62.23z"/>
		</g>
	</g>
	<g>
		<g>
			<path d="M20.15,60.52c-0.09-0.37-0.14-0.75-0.21-1.13c-0.07-0.36-0.18-0.7-0.24-1.07c-0.13-0.78-0.43-1.52-0.68-2.27
				c-0.25-0.76-0.54-1.53-0.93-2.23c-0.34-0.61-0.68-1.21-1.22-1.65c-0.09-0.08-0.78,0.57-0.87,0.5c0.54,0.44,0.88,1.04,1.22,1.65
				c0.39,0.7,0.68,1.47,0.93,2.23c0.25,0.75,0.55,1.49,0.68,2.27c0.06,0.36,0.17,0.7,0.24,1.07c0.07,0.38,0.12,0.75,0.21,1.13
				C19.26,60.94,20.17,60.62,20.15,60.52L20.15,60.52z"/>
		</g>
	</g>
	<g>
		<g>
			<path d="M20.05,59.95c-0.04-2.3-0.19-4.6-0.2-6.9c-0.01-1.16-0.02-2.32,0-3.48c0.01-0.61,0.04-1.22,0.05-1.83
				c0.01-0.36,0.13-0.98-0.04-1.32c0,0.01-0.88,0.48-0.87,0.5c0.17,0.33,0.05,0.95,0.04,1.32c-0.01,0.61-0.04,1.22-0.05,1.83
				c-0.02,1.16,0,2.32,0,3.48c0.01,2.3,0.16,4.6,0.2,6.9C19.18,60.3,20.05,60.12,20.05,59.95L20.05,59.95z"/>
		</g>
	</g>
	<g>
		<g>
			<path d="M20.35,69.82c-0.06-0.79-0.29-1.54-0.41-2.33c-0.12-0.79-0.32-1.59-0.57-2.35c-0.12-0.37-0.26-0.73-0.42-1.08
				c-0.14-0.31-0.23-0.62-0.37-0.93c-0.16-0.36-0.43-0.67-0.68-0.97c-0.28-0.32-0.53-0.65-0.83-0.94c-0.07-0.07-0.81,0.56-0.87,0.5
				c0.54,0.52,1.16,1.17,1.49,1.85c0.15,0.3,0.23,0.63,0.37,0.93c0.17,0.37,0.32,0.76,0.45,1.14c0.24,0.73,0.44,1.51,0.56,2.28
				c0.12,0.81,0.35,1.58,0.42,2.4C19.47,70.18,20.36,69.97,20.35,69.82L20.35,69.82z"/>
		</g>
	</g>
	<g>
		<g>
			<path d="M18.63,80.6c0.37,1.63,0.43,3.34,0.34,5.01c-0.05,0.91-0.21,1.81-0.24,2.71c-0.02,0.78-0.09,1.56-0.14,2.33
				c-0.09,1.46-0.18,2.92-0.38,4.37c-0.23,1.6-0.45,3.26-0.46,4.88c0-0.16,0.87-0.33,0.87-0.5c0-1.62,0.22-3.28,0.46-4.88
				c0.21-1.45,0.29-2.91,0.38-4.37c0.05-0.78,0.12-1.55,0.14-2.33c0.02-0.9,0.19-1.81,0.24-2.71c0.09-1.67,0.03-3.37-0.34-5.01
				C19.52,80.19,18.61,80.5,18.63,80.6L18.63,80.6z"/>
		</g>
	</g>
	<g>
		<g>
			<path d="M20.17,79.29c0,1.79-0.18,3.55-0.18,5.34c0,1.83,0.08,3.63-0.03,5.44c-0.19,3.36-0.5,6.73-0.5,10.1
				c0-0.16,0.87-0.33,0.87-0.5c0-3.38,0.31-6.74,0.5-10.1c0.1-1.82,0.03-3.62,0.03-5.44c0-1.79,0.18-3.55,0.18-5.34
				C21.04,78.95,20.17,79.12,20.17,79.29L20.17,79.29z"/>
		</g>
	</g>
	<g>
		<g>
			<path d="M17.75,99.86c0.1,0.05,0.2,0.1,0.31,0.14c0.1,0.03,0.2,0.04,0.31,0.04c0.16,0.01,0.26-0.07,0.4-0.14
				c0.24-0.14,0.49-0.26,0.71-0.42c-0.02,0.01-0.04,0.02-0.06,0.04c0.01,0,0.01-0.01,0.02-0.01c-0.27,0.15-0.54,0.31-0.81,0.46
				c0.05-0.02,0.1-0.01,0.16-0.01c0.05,0,0.09-0.02,0.15-0.04c0.11-0.04,0.23-0.01,0.34-0.01c0.29-0.17,0.58-0.33,0.87-0.5
				c-0.25,0-0.45-0.14-0.67-0.23c-0.11-0.05-0.22-0.08-0.34-0.08c-0.04,0-0.08-0.01-0.12-0.01c-0.06,0-0.11,0.04-0.17,0.07
				c-0.19,0.11-0.37,0.21-0.56,0.32c-0.07,0.04-0.13,0.08-0.2,0.12c-0.01,0.01-0.04,0.02-0.04,0.04c0,0.03,0.11,0.07,0.13,0.08
				c0.04,0.02,0.09,0.02,0.14,0.03c0.1,0.01,0.19,0.02,0.29,0.04c0.14,0.03,0.27,0.05,0.41,0.05c0.29-0.17,0.58-0.33,0.87-0.5
				c-0.38,0-0.76-0.02-1.14-0.05c-0.02,0-0.12,0.07-0.13,0.07c-0.1,0.06-0.2,0.12-0.31,0.18c-0.1,0.06-0.2,0.12-0.31,0.18
				c-0.02,0.01-0.1,0.08-0.13,0.08c0.05,0,0.09,0.02,0.13,0.04c0.05,0.01,0.11,0.01,0.17,0.02c0.11,0.01,0.21,0.04,0.31,0.06
				c0.1,0.02,0.2,0.04,0.29,0.02c0.09-0.02,0.18-0.09,0.26-0.13c0.18-0.1,0.35-0.2,0.52-0.3c0.05-0.03,0.14-0.05,0.14-0.12
				c0-0.03-0.02-0.05-0.04-0.07c-0.07-0.05-0.17-0.06-0.25-0.08c-0.21-0.07-0.44-0.14-0.63-0.26c-0.29,0.17-0.58,0.33-0.87,0.5
				c0.11-0.01,0.19,0.07,0.28,0.13c0.08,0.05,0.16,0.14,0.26,0.14c0.03,0,0.12-0.06,0.13-0.07c0.1-0.06,0.2-0.12,0.31-0.18
				c0.03-0.02,0.43-0.25,0.43-0.25c-0.05-0.1-0.16-0.1-0.26-0.15c-0.1-0.05-0.19-0.14-0.22-0.25c-0.04-0.15-0.04-0.42,0.09-0.53
				c-0.29,0.17-0.58,0.33-0.87,0.5c0.03,0.13,0,0.27,0.03,0.4c0.01,0.06,0.03,0.23,0.1,0.25c0.01,0,0.14-0.07,0.13-0.07
				c0.1-0.06,0.2-0.12,0.31-0.18c0.1-0.06,0.2-0.12,0.31-0.18c0.02-0.01,0.12-0.06,0.13-0.08c0.02-0.1-0.02-0.2-0.02-0.3
				c0-0.11,0-0.21-0.01-0.32c-0.01-0.2-0.04-0.41-0.09-0.61c-0.29,0.17-0.58,0.33-0.87,0.5c0.09,0.23,0.14,0.47,0.22,0.71
				c0.03,0.11,0.07,0.21,0.1,0.32c0.02,0.08,0.04,0.17,0.09,0.24c0.01,0.02,0.8-0.45,0.87-0.5c0.05-0.03,0.04-0.11,0.04-0.16
				c0-0.1-0.02-0.2-0.04-0.29c-0.02-0.1-0.04-0.2-0.07-0.29c-0.02-0.06-0.03-0.12-0.07-0.17c-0.01-0.01-0.4,0.23-0.44,0.25
				c-0.1,0.06-0.2,0.12-0.31,0.18c-0.02,0.01-0.13,0.06-0.13,0.08c0.01,0.2,0.12,0.38,0.19,0.56c0.06,0.15,0.1,0.33,0.22,0.45
				c0,0,0.15-0.08,0.13-0.07c0.1-0.06,0.2-0.12,0.31-0.18c0.1-0.06,0.2-0.12,0.31-0.18c0.02-0.01,0.12-0.06,0.13-0.08
				c0.03-0.18-0.01-0.37-0.08-0.54c-0.04-0.1-0.09-0.27-0.2-0.33c-0.01,0-0.14,0.08-0.13,0.07c-0.1,0.06-0.2,0.12-0.31,0.18
				c-0.1,0.06-0.2,0.12-0.31,0.18c-0.02,0.01-0.12,0.05-0.13,0.08c-0.06,0.16,0,0.35,0.05,0.51c0.04,0.15,0.05,0.34,0.16,0.46
				c0.02,0.02,0.4-0.22,0.44-0.25c0.1-0.06,0.2-0.12,0.31-0.18c0.03-0.02,0.12-0.05,0.13-0.08c0.03-0.09-0.05-0.21-0.08-0.29
				c-0.07-0.14-0.14-0.28-0.22-0.42c0,0.01-0.88,0.48-0.87,0.5c0.1,0.19,0.22,0.37,0.35,0.53c0.04,0.05,0.1,0.14,0.17,0.15
				c0.04,0,0.08-0.03,0.1-0.04c0.21-0.12,0.43-0.24,0.64-0.37c0.08-0.05,0.2-0.09,0.22-0.19c0.01-0.07,0-0.15-0.02-0.22
				c-0.03-0.13-0.08-0.28-0.16-0.39c-0.01-0.01-0.4,0.23-0.44,0.25c-0.1,0.06-0.2,0.12-0.31,0.18c-0.02,0.01-0.12,0.06-0.13,0.08
				c-0.01,0.15,0.07,0.3,0.14,0.44c0.06,0.13,0.1,0.28,0.21,0.38c0,0,0.15-0.08,0.13-0.07c0.1-0.06,0.2-0.12,0.31-0.18
				c0.1-0.06,0.2-0.12,0.31-0.18c0.02-0.01,0.12-0.06,0.13-0.08c0.03-0.16-0.05-0.29-0.09-0.44c-0.03-0.11-0.05-0.26-0.14-0.34
				c-0.01,0-0.15,0.08-0.13,0.07c-0.1,0.06-0.2,0.12-0.31,0.18c-0.1,0.06-0.2,0.12-0.31,0.18c-0.01,0.01-0.13,0.07-0.13,0.08
				c0.03,0.15,0.11,0.28,0.16,0.42c0.04,0.13,0.07,0.26,0.16,0.37c0.01,0.01,0.4-0.23,0.44-0.25c0.1-0.06,0.2-0.12,0.31-0.18
				c0.02-0.01,0.12-0.06,0.13-0.08c0.02-0.14-0.03-0.29-0.06-0.42c-0.04-0.18-0.08-0.37-0.13-0.55c0,0.01-0.4,0.23-0.44,0.25
				c-0.1,0.06-0.2,0.12-0.31,0.18c-0.02,0.01-0.13,0.07-0.13,0.08c0.01,0.09,0.06,0.17,0.08,0.26c0,0,0.15-0.08,0.13-0.07
				c0.1-0.06,0.2-0.12,0.31-0.18c0.1-0.06,0.2-0.12,0.31-0.18c0.02-0.01,0.13-0.06,0.13-0.08c-0.01-0.09-0.06-0.17-0.08-0.26
				c-0.29,0.17-0.58,0.33-0.87,0.5c0.05,0.18,0.09,0.37,0.13,0.55c0.03,0.13,0.08,0.28,0.06,0.42c0.29-0.17,0.58-0.33,0.87-0.5
				c-0.09-0.11-0.11-0.24-0.16-0.37c-0.05-0.14-0.13-0.27-0.16-0.42c-0.29,0.17-0.58,0.33-0.87,0.5c0.09,0.08,0.11,0.23,0.14,0.34
				c0.04,0.15,0.12,0.28,0.09,0.44c0.29-0.17,0.58-0.33,0.87-0.5c-0.1-0.1-0.14-0.25-0.21-0.38c-0.07-0.13-0.15-0.28-0.14-0.44
				c-0.29,0.17-0.58,0.33-0.87,0.5c0.07,0.1,0.11,0.23,0.14,0.34c0.02,0.08,0.09,0.29-0.01,0.35c0.28-0.16,0.57-0.33,0.85-0.49
				c-0.11,0.05-0.22-0.15-0.27-0.22c-0.11-0.15-0.21-0.29-0.3-0.46c-0.29,0.17-0.58,0.33-0.87,0.5c0.07,0.14,0.15,0.28,0.22,0.42
				c0.04,0.08,0.12,0.19,0.08,0.29c0.29-0.17,0.58-0.33,0.87-0.5c-0.11-0.12-0.13-0.31-0.16-0.46c-0.04-0.16-0.1-0.35-0.05-0.51
				c-0.29,0.17-0.58,0.33-0.87,0.5c0.11,0.06,0.16,0.23,0.2,0.33c0.07,0.17,0.11,0.36,0.08,0.54c0.29-0.17,0.58-0.33,0.87-0.5
				c-0.12-0.12-0.16-0.3-0.22-0.45c-0.08-0.18-0.18-0.36-0.19-0.56c-0.29,0.17-0.58,0.33-0.87,0.5c0.03,0.05,0.05,0.12,0.07,0.17
				c0.03,0.1,0.05,0.2,0.07,0.29c0.02,0.1,0.04,0.19,0.04,0.29c0,0.05,0.01,0.13-0.04,0.16c0.29-0.17,0.58-0.33,0.87-0.5
				c-0.05-0.07-0.07-0.16-0.09-0.24c-0.03-0.11-0.06-0.21-0.1-0.32c-0.08-0.23-0.13-0.48-0.22-0.71c0,0.01-0.4,0.23-0.44,0.25
				c-0.1,0.06-0.2,0.12-0.31,0.18c-0.01,0.01-0.13,0.07-0.13,0.08c0.05,0.2,0.07,0.4,0.09,0.61c0.01,0.1,0,0.2,0.01,0.3
				c0,0.1,0.04,0.21,0.02,0.32c0.29-0.17,0.58-0.33,0.87-0.5c-0.07-0.02-0.09-0.19-0.1-0.25c-0.03-0.13,0-0.27-0.03-0.4
				c0,0-0.15,0.08-0.13,0.07c-0.1,0.06-0.2,0.12-0.31,0.18c-0.14,0.08-0.3,0.15-0.43,0.25c-0.14,0.11-0.13,0.38-0.09,0.53
				c0.03,0.11,0.11,0.19,0.21,0.24c0.09,0.06,0.21,0.05,0.27,0.16c0.29-0.17,0.58-0.33,0.87-0.5c-0.1,0-0.19-0.09-0.26-0.14
				c-0.09-0.06-0.17-0.13-0.28-0.13c-0.03,0-0.12,0.06-0.13,0.07c-0.1,0.06-0.2,0.12-0.31,0.18c-0.1,0.06-0.2,0.12-0.31,0.18
				c-0.01,0.01-0.12,0.08-0.13,0.08c0.17,0.1,0.37,0.16,0.56,0.23c0.09,0.03,0.18,0.06,0.27,0.09c0.06,0.02,0.1,0.06,0.08,0.13
				c0.29-0.17,0.58-0.33,0.87-0.5c-0.16,0.04-0.31-0.01-0.47-0.04c-0.08-0.02-0.16-0.03-0.25-0.04c-0.08-0.01-0.15-0.04-0.23-0.05
				c-0.29,0.17-0.58,0.33-0.87,0.5c0.38,0.03,0.76,0.05,1.14,0.05c0.03,0,0.12-0.07,0.13-0.07c0.1-0.06,0.2-0.12,0.31-0.18
				c0.1-0.06,0.2-0.12,0.31-0.18c0.03-0.02,0.1-0.08,0.13-0.08c-0.19,0-0.38-0.06-0.57-0.07c-0.08-0.01-0.15-0.01-0.23-0.03
				c-0.04-0.01-0.07-0.02-0.1-0.04c-0.01-0.01-0.03-0.02-0.04-0.03c-0.02-0.03-0.02-0.02,0.01-0.04c-0.29,0.17-0.58,0.33-0.87,0.5
				c0.07-0.03,0.16-0.01,0.24-0.01c0.11,0.01,0.22,0.05,0.32,0.1c0.21,0.09,0.41,0.22,0.65,0.22c0.03,0,0.12-0.07,0.13-0.07
				c0.1-0.06,0.2-0.12,0.31-0.18c0.1-0.06,0.2-0.12,0.31-0.18c0.03-0.02,0.1-0.08,0.13-0.08c-0.09,0-0.19-0.02-0.28,0
				c-0.04,0.01-0.08,0.03-0.12,0.04c-0.05,0.01-0.09,0.01-0.14,0.01c-0.04,0-0.07,0-0.11,0.02c-0.11,0.05-0.21,0.12-0.31,0.18
				c-0.21,0.12-0.41,0.24-0.61,0.37c0.28-0.16,0.56-0.32,0.84-0.48c-0.06,0.03-0.14,0.02-0.21,0.01c-0.07,0-0.13-0.01-0.19-0.02
				c-0.13-0.03-0.26-0.1-0.38-0.16c-0.01,0-0.14,0.08-0.13,0.07c-0.1,0.06-0.2,0.12-0.31,0.18c-0.1,0.06-0.2,0.12-0.31,0.18
				C17.86,99.79,17.76,99.86,17.75,99.86L17.75,99.86z"/>
		</g>
	</g>
	<g>
		<g>
			<path d="M18.54,79.85c0.09,0.65,0.44,0.43,0.84,0.21c0.13-0.07,0.38-0.16,0.47-0.28c0.17-0.2,0.11-0.59,0.11-0.83
				c0.01-0.69-0.06-1.37-0.05-2.06c0.02-0.83,0.03-1.66,0.01-2.5c-0.05-1.46,0.04-2.93,0.08-4.39c0.04-1.5-0.08-3.04-0.15-4.54
				c0.01,0.15-0.87,0.34-0.87,0.5c0.05,1.21,0.06,2.43,0.14,3.64c0.07,1.22-0.04,2.48-0.07,3.7c-0.03,1.21,0.04,2.41,0.01,3.62
				c-0.01,0.57,0.03,1.13,0.03,1.7c0,0.47,0.11,1.23-0.11,1.65c0.28-0.16,0.57-0.33,0.85-0.49c-0.29,0.14-0.41-0.2-0.44-0.43
				C19.43,79.46,18.53,79.72,18.54,79.85L18.54,79.85z"/>
		</g>
	</g>
	<g>
		<g>
			<path d="M20.99,79.23c-0.13-1.06-0.11-2.14-0.12-3.21c-0.02-1.23-0.05-2.46-0.05-3.69c0-1.31,0.04-2.62-0.03-3.94
				c-0.07-1.31,0.02-2.69-0.21-3.99c0.02,0.11-0.83,0.36-0.87,0.5c-0.01,0.02-0.01,0.04-0.02,0.06c0.06-0.22,0.8-0.27,0.87-0.5
				c0.01-0.02,0.01-0.04,0.02-0.06c-0.29,0.17-0.58,0.33-0.87,0.5c0.23,1.26,0.14,2.6,0.2,3.88c0.07,1.35,0.04,2.7,0.04,4.05
				c0,1.19,0.03,2.38,0.05,3.57c0.02,1.1-0.01,2.23,0.12,3.33C20.11,79.61,21.01,79.37,20.99,79.23L20.99,79.23z"/>
		</g>
	</g>
	<g>
		<g>
			<path d="M20.36,78.07c0.21-0.79,0.47-1.57,0.76-2.34c0.35-0.9,0.78-1.74,1.16-2.62c0.37-0.83,0.88-1.7,1.41-2.44
				c0.48-0.66,0.89-1.39,1.48-1.97c-0.14,0.08-0.29,0.17-0.43,0.25c0.02-0.01,0.04-0.02,0.06-0.04c0.13-0.08,0.29-0.21,0.43-0.25
				c-0.15,0.04-0.31,0.17-0.44,0.25c-0.24,0.14-0.47,0.25-0.66,0.46c-0.31,0.34-0.59,0.74-0.86,1.12c-0.59,0.83-1.1,1.72-1.61,2.6
				c-0.24,0.41-0.39,0.86-0.62,1.28c-0.25,0.47-0.45,0.94-0.65,1.44c-0.35,0.9-0.68,1.81-0.92,2.75c0.02-0.06,0.37-0.21,0.44-0.25
				C20,78.29,20.33,78.16,20.36,78.07L20.36,78.07z"/>
		</g>
	</g>
	<g>
		<g>
			<path d="M20.9,76.64c0.2-0.57,0.47-1.09,0.73-1.64c0.12-0.25,0.21-0.5,0.29-0.77c0.09-0.29,0.23-0.56,0.35-0.84
				c0.22-0.53,0.53-1.02,0.79-1.53c0.14-0.27,0.27-0.54,0.46-0.78c0.09-0.11,0.16-0.23,0.23-0.35c0.06-0.11,0.16-0.21,0.22-0.32
				c-0.04,0.08-0.35,0.2-0.44,0.25c-0.1,0.06-0.38,0.15-0.43,0.25c-0.05,0.1-0.13,0.17-0.19,0.27c-0.07,0.12-0.14,0.25-0.22,0.36
				c-0.18,0.24-0.32,0.5-0.46,0.76c-0.14,0.26-0.25,0.54-0.4,0.79c-0.15,0.27-0.3,0.51-0.42,0.79c-0.21,0.52-0.39,1.05-0.62,1.56
				c-0.26,0.56-0.54,1.1-0.75,1.69c0.03-0.07,0.36-0.2,0.44-0.25C20.55,76.84,20.87,76.73,20.9,76.64L20.9,76.64z"/>
		</g>
	</g>
	<g>
		<g>
			<path d="M19.85,66.02c0.08-0.7,0.1-1.39,0.1-2.09c0-0.63,0.05-1.26,0.05-1.9c0-0.6,0.05-1.2,0.02-1.81
				c-0.02-0.53-0.05-1.06-0.1-1.6c0,0.03-0.4,0.22-0.44,0.25c-0.04,0.03-0.44,0.21-0.43,0.25c0.05,0.52,0.09,1.03,0.1,1.55
				c0.01,0.62-0.02,1.24-0.02,1.86c0,0.61-0.05,1.22-0.05,1.82c0,0.72-0.02,1.44-0.1,2.16c0.01-0.05,0.38-0.22,0.44-0.25
				C19.48,66.24,19.84,66.09,19.85,66.02L19.85,66.02z"/>
		</g>
	</g>
	<g>
		<g>
			<path d="M20.73,66.13c-0.06-0.77-0.09-1.53-0.13-2.3c-0.04-0.76-0.17-1.5-0.21-2.26c-0.04-0.74-0.06-1.47-0.17-2.2
				c-0.06-0.38-0.12-0.75-0.15-1.13c-0.03-0.35-0.13-0.71-0.12-1.06c-0.29,0.17-0.58,0.33-0.87,0.5c0,0.01,0.01,0.01,0.01,0.02
				c0.05,0.06,0.82-0.55,0.87-0.5c0-0.01-0.01-0.01-0.01-0.02c0,0-0.87,0.45-0.87,0.5c0,0.35,0.09,0.71,0.12,1.06
				c0.03,0.38,0.1,0.75,0.15,1.13c0.11,0.74,0.13,1.46,0.17,2.2c0.05,0.75,0.17,1.5,0.21,2.26c0.04,0.77,0.07,1.53,0.13,2.3
				C19.85,66.49,20.74,66.28,20.73,66.13L20.73,66.13z"/>
		</g>
	</g>
	<g>
		<g>
			<path d="M20.38,68.66c-0.07-0.54-0.07-1.07-0.09-1.61c-0.02-0.59-0.11-1.16-0.13-1.75c-0.03-0.97-0.22-1.99-0.07-2.95
				c-0.29,0.17-0.58,0.33-0.87,0.5c0.17,0.19,0.12,0.66,0.14,0.9c0.04,0.48,0.06,0.95,0.07,1.43c0.01,0.76-0.02,1.52,0,2.29
				c0.02,0.66,0.07,1.31,0.1,1.97c0.05,0.92-0.11,1.83-0.14,2.76c-0.05,1.46,0.06,2.9-0.11,4.35c-0.09,0.75-0.08,1.51-0.12,2.26
				c-0.03,0.69-0.14,1.38-0.18,2.07c0.29-0.17,0.58-0.33,0.87-0.5c-0.01-0.03-0.02-0.05-0.02-0.08c0.02,0.07-0.89,0.42-0.87,0.5
				c0.01,0.03,0.02,0.05,0.02,0.08c-0.03-0.09,0.86-0.38,0.87-0.5c0.04-0.69,0.15-1.38,0.18-2.07c0.03-0.72,0.04-1.44,0.11-2.15
				c0.15-1.49,0.07-2.97,0.12-4.46c0.03-0.88,0.18-1.76,0.15-2.64c-0.02-0.66-0.08-1.32-0.11-1.98c-0.03-0.8,0.02-1.59,0-2.39
				c-0.01-0.48-0.03-0.96-0.07-1.43c-0.02-0.24,0.02-0.71-0.14-0.9c0,0-0.86,0.44-0.87,0.5c-0.15,0.96,0.04,1.99,0.07,2.95
				c0.02,0.59,0.11,1.16,0.13,1.75c0.02,0.54,0.01,1.08,0.09,1.61C19.5,69.04,20.4,68.79,20.38,68.66L20.38,68.66z"/>
		</g>
	</g>
	<g>
		<g>
			<path d="M18.01,79.14c0.14,0.2,0.24,0.42,0.38,0.63c0.12,0.18,0.17,0.27,0.37,0.22c0.23-0.06,0.64-0.31,0.81-0.47
				c0.25-0.23,0.33-0.9,0.39-1.24c0.09-0.49,0.1-1.01,0.14-1.51c0.16-2.21,0.33-4.44,0.4-6.65c-0.29,0.17-0.58,0.33-0.87,0.5
				c0.01,1.66-0.15,3.32-0.07,4.98c0.04,0.8,0.08,1.59,0.05,2.39c-0.02,0.44-0.01,0.88-0.04,1.32c-0.02,0.31,0.02,0.76-0.09,1.04
				c0.29-0.17,0.58-0.33,0.87-0.5c-0.09-0.39-0.06-0.81-0.06-1.21c-0.01-0.49-0.06-0.99-0.07-1.48c0,0.16-0.86,0.32-0.87,0.5
				c-0.02,0.48-0.1,0.95-0.16,1.42c-0.06,0.48-0.04,1.14-0.29,1.57c0.29-0.17,0.58-0.33,0.87-0.5c-0.19,0.08-0.1-0.77-0.07-0.92
				c-0.29,0.17-0.58,0.33-0.87,0.5c0,0.21,0.07,0.53-0.01,0.72c0.29-0.17,0.58-0.33,0.87-0.5c-0.15-0.18-0.11-0.43-0.28-0.6
				c-0.02-0.02-0.87,0.48-0.87,0.5c0.06,0.22,0.17,0.4,0.18,0.63c0,0.06-0.01,0.22,0.02,0.27c-0.01-0.01,0.88-0.47,0.87-0.5
				c-0.03-0.05-0.01-0.2-0.02-0.27c-0.01-0.23-0.12-0.41-0.18-0.63c-0.29,0.17-0.58,0.33-0.87,0.5c0.17,0.17,0.13,0.42,0.28,0.6
				c0,0,0.84-0.43,0.87-0.5c0.08-0.19,0-0.51,0.01-0.72c0,0.17-0.83,0.31-0.87,0.5c-0.04,0.21-0.06,0.46-0.05,0.67
				c0.01,0.1,0,0.24,0.09,0.26c0.02,0.01,0.07-0.04,0.09-0.05c0.2-0.04,0.66-0.31,0.81-0.47c0.27-0.29,0.23-1.1,0.28-1.48
				c0.06-0.5,0.15-1.01,0.17-1.51c-0.29,0.17-0.58,0.33-0.87,0.5c0.01,0.49,0.06,0.99,0.07,1.48c0.01,0.4-0.03,0.82,0.06,1.21
				c-0.02-0.09,0.82-0.38,0.87-0.5c0.1-0.26,0.06-0.66,0.08-0.95c0.03-0.44,0.02-0.89,0.04-1.33c0.03-0.83-0.01-1.64-0.05-2.47
				c-0.08-1.66,0.08-3.32,0.07-4.98c0,0.16-0.86,0.32-0.87,0.5c-0.05,1.67-0.17,3.34-0.3,5.01c-0.06,0.72-0.06,1.44-0.13,2.16
				c-0.07,0.69-0.09,1.59-0.45,2.2c0.29-0.17,0.58-0.33,0.87-0.5c-0.3,0.13-0.58-0.65-0.73-0.86
				C18.85,78.61,18.02,79.16,18.01,79.14L18.01,79.14z"/>
		</g>
	</g>
	<g>
		<g>
			<path d="M20.25,81.34c0.05-0.53,0.04-1.07,0.06-1.61c0.01-0.27,0.03-0.53,0.06-0.79c0.02-0.15,0.01-0.42,0.1-0.54
				c-0.29,0.17-0.58,0.33-0.87,0.5c0.04,0.26,0.01,0.54,0,0.8c-0.01,0.31-0.04,0.62-0.06,0.92c-0.02,0.3-0.02,0.6-0.03,0.9
				c-0.01,0.28-0.03,0.56,0.01,0.85c0-0.02,0.4-0.22,0.44-0.25c0.13-0.07,0.33-0.14,0.43-0.25c0.09-0.1,0.06-0.42,0.07-0.55
				c0.02-0.33,0.02-0.66,0.02-0.99c0-0.32,0-0.65,0.01-0.97c0.01-0.14,0.02-0.28,0.03-0.42c0-0.07-0.01-0.15,0.02-0.21
				c-0.29,0.17-0.58,0.33-0.87,0.5c0.04,0.51-0.02,1.04-0.04,1.55c-0.02,0.53-0.06,1.07-0.02,1.6c0-0.03,0.39-0.22,0.44-0.25
				c0.1-0.06,0.2-0.12,0.31-0.18c0.03-0.02,0.11-0.05,0.13-0.08c0.08-0.14,0.04-0.31,0.05-0.46c0-0.25,0.02-0.51,0.02-0.76
				c0.01-0.26,0.01-0.51,0.02-0.77c0-0.21,0.03-0.42-0.02-0.63c0,0.01-0.4,0.23-0.44,0.25c-0.1,0.06-0.2,0.12-0.31,0.18
				c-0.02,0.01-0.12,0.05-0.13,0.08c-0.07,0.27-0.02,0.58-0.03,0.86c-0.01,0.28-0.04,0.58-0.01,0.86c0-0.02,0.4-0.22,0.44-0.25
				c0.1-0.06,0.2-0.12,0.31-0.18c0.02-0.01,0.12-0.05,0.13-0.08c0.07-0.3,0.08-0.64,0.09-0.95c0.02-0.32,0.07-0.66,0.03-0.97
				c0,0.03-0.4,0.22-0.44,0.25c-0.1,0.06-0.2,0.12-0.31,0.18c-0.02,0.01-0.12,0.05-0.13,0.08c-0.08,0.27-0.04,0.6-0.05,0.88
				c-0.01,0.34-0.04,0.68-0.05,1.02c0-0.04,0.39-0.22,0.44-0.25c0.1-0.06,0.2-0.12,0.31-0.18c0.02-0.01,0.12-0.05,0.13-0.08
				c0.06-0.24,0.07-0.5,0.11-0.75c0.03-0.24,0.04-0.49,0.08-0.72c-0.29,0.17-0.58,0.33-0.87,0.5c-0.05,0.49-0.1,0.98-0.15,1.47
				c-0.02,0.21-0.05,0.44-0.05,0.66c0,0.11,0.03,0.18,0.02,0.29c-0.01,0.1-0.07,0.24-0.06,0.34c0,0.06-0.01,0.07,0.06,0.05
				c0.12-0.02,0.27-0.15,0.37-0.21c0.19-0.11,0.49-0.19,0.52-0.42c0.04-0.23,0.04-0.47,0.04-0.69c0-0.12-0.04-0.41,0.04-0.51
				c-0.29,0.17-0.58,0.33-0.87,0.5c0.04,0.47,0.03,0.93,0.03,1.4c0.29-0.17,0.58-0.33,0.87-0.5c0-0.18-0.11-0.37-0.09-0.55
				c-0.29,0.17-0.58,0.33-0.87,0.5c0.08,0.21-0.01,0.49,0,0.7c0-0.03,0.39-0.22,0.44-0.25c0.1-0.06,0.2-0.12,0.31-0.18
				c0.02-0.01,0.13-0.06,0.13-0.08c0-1.19-0.07-2.42,0.09-3.6c0,0.01-0.14,0.08-0.13,0.07c-0.1,0.06-0.2,0.12-0.31,0.18
				c-0.1,0.06-0.2,0.12-0.31,0.18c-0.02,0.01-0.12,0.06-0.13,0.08c-0.16,1.19-0.09,2.41-0.09,3.6c0.29-0.17,0.58-0.33,0.87-0.5
				c0-0.22,0.09-0.5,0-0.7c0,0-0.4,0.23-0.44,0.25c-0.1,0.06-0.2,0.12-0.31,0.18c-0.02,0.01-0.12,0.06-0.13,0.08
				c-0.02,0.18,0.08,0.37,0.09,0.55c0-0.04,0.39-0.22,0.44-0.25c0.1-0.06,0.2-0.12,0.31-0.18c0.02-0.01,0.12-0.06,0.13-0.08
				c0-0.47,0.01-0.93-0.03-1.4c0,0.03-0.4,0.22-0.44,0.25c-0.1,0.06-0.2,0.12-0.31,0.18c-0.03,0.02-0.1,0.05-0.13,0.08
				c-0.04,0.06-0.03,0.15-0.03,0.22c-0.01,0.14-0.01,0.27-0.01,0.41c-0.01,0.22,0.02,0.52-0.07,0.72c0.29-0.17,0.58-0.33,0.87-0.5
				c-0.1,0.03-0.05-0.1-0.04-0.15c0.02-0.11,0.07-0.25,0.06-0.37c-0.01-0.1-0.03-0.19-0.03-0.3c0.01-0.13,0.02-0.26,0.02-0.38
				c0.04-0.54,0.1-1.08,0.16-1.61c-0.01,0.05-0.38,0.22-0.44,0.25c-0.1,0.06-0.2,0.12-0.31,0.18c-0.02,0.01-0.12,0.06-0.13,0.08
				c-0.04,0.23-0.05,0.49-0.08,0.72c-0.03,0.25-0.05,0.51-0.11,0.75c0.29-0.17,0.58-0.33,0.87-0.5c0.02-0.34,0.04-0.68,0.05-1.02
				c0.01-0.28-0.03-0.61,0.05-0.88c-0.29,0.17-0.58,0.33-0.87,0.5c0.04,0.32-0.02,0.66-0.03,0.97c-0.02,0.31-0.02,0.65-0.09,0.95
				c0.29-0.17,0.58-0.33,0.87-0.5c-0.03-0.28-0.01-0.58,0.01-0.86c0.01-0.28-0.03-0.59,0.03-0.86c-0.29,0.17-0.58,0.33-0.87,0.5
				c0.05,0.21,0.03,0.42,0.02,0.63c0,0.26-0.01,0.51-0.02,0.77c-0.01,0.25-0.02,0.51-0.02,0.76c0,0.15,0.03,0.32-0.05,0.46
				c0.29-0.17,0.58-0.33,0.87-0.5c-0.04-0.53,0-1.07,0.02-1.6c0.02-0.51,0.07-1.04,0.04-1.55c0,0.03-0.39,0.22-0.44,0.25
				c-0.1,0.06-0.2,0.12-0.31,0.18c-0.03,0.02-0.11,0.05-0.13,0.08c-0.03,0.06-0.02,0.14-0.02,0.2c0,0.13-0.02,0.26-0.02,0.39
				c-0.02,0.34-0.02,0.67-0.02,1.01c0,0.32,0,0.63-0.02,0.95c-0.01,0.13,0.03,0.48-0.07,0.58c0.29-0.17,0.58-0.33,0.87-0.5
				c-0.04-0.27-0.02-0.54-0.01-0.81c0.01-0.31,0.01-0.63,0.03-0.94c0.02-0.29,0.04-0.59,0.06-0.88c0.01-0.27,0.05-0.57,0-0.84
				c0,0.02-0.4,0.22-0.44,0.25c-0.1,0.06-0.2,0.12-0.31,0.18c-0.03,0.02-0.1,0.04-0.13,0.08c-0.09,0.12-0.08,0.36-0.09,0.5
				c-0.03,0.28-0.05,0.55-0.06,0.83c-0.02,0.54-0.01,1.07-0.06,1.61c0-0.05,0.39-0.22,0.44-0.25c0.1-0.06,0.2-0.12,0.31-0.18
				C20.14,81.41,20.25,81.36,20.25,81.34L20.25,81.34z"/>
		</g>
	</g>
	<g>
		<g>
			<path d="M19.26,98.21c0.25-1.36,0.31-2.72,0.46-4.09c0.16-1.43,0.24-2.89,0.32-4.33c0.07-1.42,0.15-2.84,0.23-4.27
				c0.07-1.25-0.08-2.47-0.19-3.71c-0.29,0.17-0.58,0.33-0.87,0.5c0.12,1.37,0.02,2.75-0.07,4.12c-0.1,1.49-0.14,2.97-0.11,4.47
				c0.03,1.28-0.32,2.55-0.46,3.81c-0.07,0.65-0.13,1.31-0.16,1.96c-0.03,0.56,0.06,1.24-0.12,1.78c0.29-0.17,0.58-0.33,0.87-0.5
				c-0.27,0.1-0.16-0.2-0.15-0.36c0.03-0.34,0.04-0.68,0.06-1.03c0.04-0.72,0.16-1.42,0.26-2.13c0.18-1.34,0.29-2.7,0.42-4.05
				c0.25-2.61,0.78-5.18,0.94-7.79c-0.29,0.17-0.58,0.33-0.87,0.5c0.15,0.4,0.07,0.95,0.05,1.37c-0.03,0.71-0.11,1.42-0.16,2.14
				c-0.1,1.42-0.16,2.84-0.25,4.27c-0.09,1.46-0.19,2.92-0.3,4.38c-0.06,0.75-0.11,1.49-0.14,2.23c-0.02,0.55,0,1.15-0.08,1.69
				c0.29-0.17,0.58-0.33,0.87-0.5c-0.27-0.39-0.41-1.01-0.34-1.48c-0.29,0.17-0.58,0.33-0.87,0.5c-0.04,0.39,0.06,0.85,0.09,1.24
				c-0.01-0.14,0.86-0.34,0.87-0.5c0.01-0.5,0.02-1,0.04-1.5c0.01-0.33-0.01-0.78,0.12-1.09c-0.29,0.17-0.58,0.33-0.87,0.5
				c0.15,0.34,0.13,0.77,0.17,1.14c0.04,0.39,0.11,0.79,0.15,1.18c-0.01-0.14,0.82-0.34,0.87-0.5c0.12-0.43,0.02-0.97,0.03-1.43
				c0.02-0.56,0.08-1.13,0.12-1.69c0.06-0.98,0.07-1.96,0.12-2.94c0.06-1.03,0.19-2.06,0.3-3.09c0.11-0.96,0.34-2.1,0.12-3.06
				c0.02,0.11-0.85,0.36-0.87,0.5c-0.22,2.1-0.32,4.21-0.55,6.31c-0.12,1.1-0.22,2.19-0.26,3.3c-0.02,0.55-0.03,1.1-0.03,1.64
				c0,0.41-0.14,1.06,0,1.45c-0.02-0.05,0.89-0.43,0.87-0.5c-0.07-0.26-0.02-0.63,0.05-0.89c-0.29,0.17-0.58,0.33-0.87,0.5
				c0.09,0.2,0.15,0.42,0.19,0.64c0.29-0.17,0.58-0.33,0.87-0.5c-0.11-0.34-0.17-0.85-0.12-1.2c-0.29,0.17-0.58,0.33-0.87,0.5
				c0.08,0.26,0.13,0.52,0.16,0.79c-0.02-0.12,0.88-0.37,0.87-0.5c0-0.04-0.01-0.08-0.01-0.12c0.02,0.12-0.88,0.36-0.87,0.5
				c0,0.04,0.01,0.08,0.01,0.12c0.29-0.17,0.58-0.33,0.87-0.5c-0.04-0.27-0.09-0.53-0.16-0.79c0.03,0.09-0.85,0.37-0.87,0.5
				c-0.05,0.35,0.01,0.86,0.12,1.2c-0.02-0.07,0.89-0.41,0.87-0.5c-0.05-0.22-0.1-0.44-0.19-0.64c0.02,0.05-0.84,0.4-0.87,0.5
				c-0.07,0.26-0.13,0.63-0.05,0.89c0.29-0.17,0.58-0.33,0.87-0.5c-0.13-0.36,0-0.94,0-1.33c0-0.55,0.01-1.1,0.03-1.64
				c0.04-1.14,0.14-2.28,0.26-3.41c0.23-2.1,0.33-4.21,0.55-6.31c-0.29,0.17-0.58,0.33-0.87,0.5c0.22,0.96-0.01,2.09-0.12,3.06
				c-0.11,1.03-0.24,2.05-0.3,3.09c-0.05,0.98-0.07,1.96-0.12,2.94c-0.03,0.56-0.1,1.13-0.12,1.69c-0.01,0.45,0.09,0.99-0.03,1.43
				c0.29-0.17,0.58-0.33,0.87-0.5c-0.04-0.39-0.11-0.79-0.15-1.18c-0.04-0.37-0.02-0.8-0.17-1.14c0.02,0.04-0.83,0.41-0.87,0.5
				c-0.13,0.3-0.11,0.77-0.12,1.09c-0.02,0.5-0.03,1-0.04,1.5c0.29-0.17,0.58-0.33,0.87-0.5c-0.03-0.39-0.13-0.85-0.09-1.24
				c-0.02,0.19-0.84,0.29-0.87,0.5c-0.07,0.47,0.07,1.08,0.34,1.48c-0.01-0.02,0.86-0.43,0.87-0.5c0.07-0.51,0.05-1.07,0.07-1.59
				c0.03-0.74,0.08-1.48,0.14-2.22c0.11-1.5,0.22-3,0.31-4.5c0.08-1.38,0.15-2.77,0.24-4.15c0.05-0.72,0.13-1.43,0.17-2.15
				c0.02-0.44,0.12-1.04-0.04-1.47c0.03,0.07-0.86,0.39-0.87,0.5c-0.13,2.11-0.5,4.18-0.76,6.27c-0.28,2.22-0.46,4.44-0.75,6.66
				c-0.08,0.63-0.1,1.27-0.15,1.9c-0.02,0.29-0.16,0.6,0.2,0.49c0.2-0.06,0.56-0.27,0.71-0.41c0.25-0.23,0.17-0.64,0.17-0.97
				c0.03-1.16,0.11-2.34,0.29-3.48c0.17-1.07,0.4-2.18,0.36-3.27c-0.08-2.82,0.43-5.66,0.19-8.47c0.01,0.13-0.88,0.35-0.87,0.5
				c0.11,1.21,0.25,2.39,0.2,3.61c-0.07,1.46-0.16,2.91-0.24,4.37c-0.07,1.41-0.15,2.83-0.31,4.23c-0.15,1.4-0.21,2.8-0.47,4.19
				C18.43,98.5,19.22,98.43,19.26,98.21L19.26,98.21z"/>
		</g>
	</g>
</g>
</svg>
